<?xml version="1.0" encoding="utf-8" standalone="no"?>
<!DOCTYPE svg PUBLIC "-//W3C//DTD SVG 1.1//EN"
  "http://www.w3.org/Graphics/SVG/1.1/DTD/svg11.dtd">
<!-- Created with matplotlib (https://matplotlib.org/) -->
<svg height="432pt" version="1.1" viewBox="0 0 576 432" width="576pt" xmlns="http://www.w3.org/2000/svg" xmlns:xlink="http://www.w3.org/1999/xlink">
 <defs>
  <style type="text/css">
*{stroke-linecap:butt;stroke-linejoin:round;}
  </style>
 </defs>
 <g id="figure_1">
  <g id="patch_1">
   <path d="M 0 432 
L 576 432 
L 576 0 
L 0 0 
z
" style="fill:#ffffff;"/>
  </g>
  <g id="axes_1">
   <g id="patch_2">
    <path d="M 50.87 390.04 
L 565.2 390.04 
L 565.2 10.8 
L 50.87 10.8 
z
" style="fill:#ffffff;"/>
   </g>
   <g id="matplotlib.axis_1">
    <g id="xtick_1">
     <g id="line2d_1">
      <defs>
       <path d="M 0 0 
L 0 3.5 
" id="mda775ed159" style="stroke:#000000;stroke-width:0.8;"/>
      </defs>
      <g>
       <use style="stroke:#000000;stroke-width:0.8;" x="74.248636" xlink:href="#mda775ed159" y="390.04"/>
      </g>
     </g>
     <g id="text_1">
      <!-- 8 -->
      <defs>
       <path d="M 31.78125 34.625 
Q 24.75 34.625 20.71875 30.859375 
Q 16.703125 27.09375 16.703125 20.515625 
Q 16.703125 13.921875 20.71875 10.15625 
Q 24.75 6.390625 31.78125 6.390625 
Q 38.8125 6.390625 42.859375 10.171875 
Q 46.921875 13.96875 46.921875 20.515625 
Q 46.921875 27.09375 42.890625 30.859375 
Q 38.875 34.625 31.78125 34.625 
z
M 21.921875 38.8125 
Q 15.578125 40.375 12.03125 44.71875 
Q 8.5 49.078125 8.5 55.328125 
Q 8.5 64.0625 14.71875 69.140625 
Q 20.953125 74.21875 31.78125 74.21875 
Q 42.671875 74.21875 48.875 69.140625 
Q 55.078125 64.0625 55.078125 55.328125 
Q 55.078125 49.078125 51.53125 44.71875 
Q 48 40.375 41.703125 38.8125 
Q 48.828125 37.15625 52.796875 32.3125 
Q 56.78125 27.484375 56.78125 20.515625 
Q 56.78125 9.90625 50.3125 4.234375 
Q 43.84375 -1.421875 31.78125 -1.421875 
Q 19.734375 -1.421875 13.25 4.234375 
Q 6.78125 9.90625 6.78125 20.515625 
Q 6.78125 27.484375 10.78125 32.3125 
Q 14.796875 37.15625 21.921875 38.8125 
z
M 18.3125 54.390625 
Q 18.3125 48.734375 21.84375 45.5625 
Q 25.390625 42.390625 31.78125 42.390625 
Q 38.140625 42.390625 41.71875 45.5625 
Q 45.3125 48.734375 45.3125 54.390625 
Q 45.3125 60.0625 41.71875 63.234375 
Q 38.140625 66.40625 31.78125 66.40625 
Q 25.390625 66.40625 21.84375 63.234375 
Q 18.3125 60.0625 18.3125 54.390625 
z
" id="DejaVuSans-56"/>
      </defs>
      <g transform="translate(71.067386 404.638438)scale(0.1 -0.1)">
       <use xlink:href="#DejaVuSans-56"/>
      </g>
     </g>
    </g>
    <g id="xtick_2">
     <g id="line2d_2">
      <g>
       <use style="stroke:#000000;stroke-width:0.8;" x="167.763182" xlink:href="#mda775ed159" y="390.04"/>
      </g>
     </g>
     <g id="text_2">
      <!-- 10 -->
      <defs>
       <path d="M 12.40625 8.296875 
L 28.515625 8.296875 
L 28.515625 63.921875 
L 10.984375 60.40625 
L 10.984375 69.390625 
L 28.421875 72.90625 
L 38.28125 72.90625 
L 38.28125 8.296875 
L 54.390625 8.296875 
L 54.390625 0 
L 12.40625 0 
z
" id="DejaVuSans-49"/>
       <path d="M 31.78125 66.40625 
Q 24.171875 66.40625 20.328125 58.90625 
Q 16.5 51.421875 16.5 36.375 
Q 16.5 21.390625 20.328125 13.890625 
Q 24.171875 6.390625 31.78125 6.390625 
Q 39.453125 6.390625 43.28125 13.890625 
Q 47.125 21.390625 47.125 36.375 
Q 47.125 51.421875 43.28125 58.90625 
Q 39.453125 66.40625 31.78125 66.40625 
z
M 31.78125 74.21875 
Q 44.046875 74.21875 50.515625 64.515625 
Q 56.984375 54.828125 56.984375 36.375 
Q 56.984375 17.96875 50.515625 8.265625 
Q 44.046875 -1.421875 31.78125 -1.421875 
Q 19.53125 -1.421875 13.0625 8.265625 
Q 6.59375 17.96875 6.59375 36.375 
Q 6.59375 54.828125 13.0625 64.515625 
Q 19.53125 74.21875 31.78125 74.21875 
z
" id="DejaVuSans-48"/>
      </defs>
      <g transform="translate(161.400682 404.638438)scale(0.1 -0.1)">
       <use xlink:href="#DejaVuSans-49"/>
       <use x="63.623047" xlink:href="#DejaVuSans-48"/>
      </g>
     </g>
    </g>
    <g id="xtick_3">
     <g id="line2d_3">
      <g>
       <use style="stroke:#000000;stroke-width:0.8;" x="261.277727" xlink:href="#mda775ed159" y="390.04"/>
      </g>
     </g>
     <g id="text_3">
      <!-- 12 -->
      <defs>
       <path d="M 19.1875 8.296875 
L 53.609375 8.296875 
L 53.609375 0 
L 7.328125 0 
L 7.328125 8.296875 
Q 12.9375 14.109375 22.625 23.890625 
Q 32.328125 33.6875 34.8125 36.53125 
Q 39.546875 41.84375 41.421875 45.53125 
Q 43.3125 49.21875 43.3125 52.78125 
Q 43.3125 58.59375 39.234375 62.25 
Q 35.15625 65.921875 28.609375 65.921875 
Q 23.96875 65.921875 18.8125 64.3125 
Q 13.671875 62.703125 7.8125 59.421875 
L 7.8125 69.390625 
Q 13.765625 71.78125 18.9375 73 
Q 24.125 74.21875 28.421875 74.21875 
Q 39.75 74.21875 46.484375 68.546875 
Q 53.21875 62.890625 53.21875 53.421875 
Q 53.21875 48.921875 51.53125 44.890625 
Q 49.859375 40.875 45.40625 35.40625 
Q 44.1875 33.984375 37.640625 27.21875 
Q 31.109375 20.453125 19.1875 8.296875 
z
" id="DejaVuSans-50"/>
      </defs>
      <g transform="translate(254.915227 404.638438)scale(0.1 -0.1)">
       <use xlink:href="#DejaVuSans-49"/>
       <use x="63.623047" xlink:href="#DejaVuSans-50"/>
      </g>
     </g>
    </g>
    <g id="xtick_4">
     <g id="line2d_4">
      <g>
       <use style="stroke:#000000;stroke-width:0.8;" x="354.792273" xlink:href="#mda775ed159" y="390.04"/>
      </g>
     </g>
     <g id="text_4">
      <!-- 14 -->
      <defs>
       <path d="M 37.796875 64.3125 
L 12.890625 25.390625 
L 37.796875 25.390625 
z
M 35.203125 72.90625 
L 47.609375 72.90625 
L 47.609375 25.390625 
L 58.015625 25.390625 
L 58.015625 17.1875 
L 47.609375 17.1875 
L 47.609375 0 
L 37.796875 0 
L 37.796875 17.1875 
L 4.890625 17.1875 
L 4.890625 26.703125 
z
" id="DejaVuSans-52"/>
      </defs>
      <g transform="translate(348.429773 404.638438)scale(0.1 -0.1)">
       <use xlink:href="#DejaVuSans-49"/>
       <use x="63.623047" xlink:href="#DejaVuSans-52"/>
      </g>
     </g>
    </g>
    <g id="xtick_5">
     <g id="line2d_5">
      <g>
       <use style="stroke:#000000;stroke-width:0.8;" x="448.306818" xlink:href="#mda775ed159" y="390.04"/>
      </g>
     </g>
     <g id="text_5">
      <!-- 16 -->
      <defs>
       <path d="M 33.015625 40.375 
Q 26.375 40.375 22.484375 35.828125 
Q 18.609375 31.296875 18.609375 23.390625 
Q 18.609375 15.53125 22.484375 10.953125 
Q 26.375 6.390625 33.015625 6.390625 
Q 39.65625 6.390625 43.53125 10.953125 
Q 47.40625 15.53125 47.40625 23.390625 
Q 47.40625 31.296875 43.53125 35.828125 
Q 39.65625 40.375 33.015625 40.375 
z
M 52.59375 71.296875 
L 52.59375 62.3125 
Q 48.875 64.0625 45.09375 64.984375 
Q 41.3125 65.921875 37.59375 65.921875 
Q 27.828125 65.921875 22.671875 59.328125 
Q 17.53125 52.734375 16.796875 39.40625 
Q 19.671875 43.65625 24.015625 45.921875 
Q 28.375 48.1875 33.59375 48.1875 
Q 44.578125 48.1875 50.953125 41.515625 
Q 57.328125 34.859375 57.328125 23.390625 
Q 57.328125 12.15625 50.6875 5.359375 
Q 44.046875 -1.421875 33.015625 -1.421875 
Q 20.359375 -1.421875 13.671875 8.265625 
Q 6.984375 17.96875 6.984375 36.375 
Q 6.984375 53.65625 15.1875 63.9375 
Q 23.390625 74.21875 37.203125 74.21875 
Q 40.921875 74.21875 44.703125 73.484375 
Q 48.484375 72.75 52.59375 71.296875 
z
" id="DejaVuSans-54"/>
      </defs>
      <g transform="translate(441.944318 404.638438)scale(0.1 -0.1)">
       <use xlink:href="#DejaVuSans-49"/>
       <use x="63.623047" xlink:href="#DejaVuSans-54"/>
      </g>
     </g>
    </g>
    <g id="xtick_6">
     <g id="line2d_6">
      <g>
       <use style="stroke:#000000;stroke-width:0.8;" x="541.821364" xlink:href="#mda775ed159" y="390.04"/>
      </g>
     </g>
     <g id="text_6">
      <!-- 18 -->
      <g transform="translate(535.458864 404.638438)scale(0.1 -0.1)">
       <use xlink:href="#DejaVuSans-49"/>
       <use x="63.623047" xlink:href="#DejaVuSans-56"/>
      </g>
     </g>
    </g>
    <g id="text_7">
     <!-- number of queens -->
     <defs>
      <path d="M 54.890625 33.015625 
L 54.890625 0 
L 45.90625 0 
L 45.90625 32.71875 
Q 45.90625 40.484375 42.875 44.328125 
Q 39.84375 48.1875 33.796875 48.1875 
Q 26.515625 48.1875 22.3125 43.546875 
Q 18.109375 38.921875 18.109375 30.90625 
L 18.109375 0 
L 9.078125 0 
L 9.078125 54.6875 
L 18.109375 54.6875 
L 18.109375 46.1875 
Q 21.34375 51.125 25.703125 53.5625 
Q 30.078125 56 35.796875 56 
Q 45.21875 56 50.046875 50.171875 
Q 54.890625 44.34375 54.890625 33.015625 
z
" id="DejaVuSans-110"/>
      <path d="M 8.5 21.578125 
L 8.5 54.6875 
L 17.484375 54.6875 
L 17.484375 21.921875 
Q 17.484375 14.15625 20.5 10.265625 
Q 23.53125 6.390625 29.59375 6.390625 
Q 36.859375 6.390625 41.078125 11.03125 
Q 45.3125 15.671875 45.3125 23.6875 
L 45.3125 54.6875 
L 54.296875 54.6875 
L 54.296875 0 
L 45.3125 0 
L 45.3125 8.40625 
Q 42.046875 3.421875 37.71875 1 
Q 33.40625 -1.421875 27.6875 -1.421875 
Q 18.265625 -1.421875 13.375 4.4375 
Q 8.5 10.296875 8.5 21.578125 
z
M 31.109375 56 
z
" id="DejaVuSans-117"/>
      <path d="M 52 44.1875 
Q 55.375 50.25 60.0625 53.125 
Q 64.75 56 71.09375 56 
Q 79.640625 56 84.28125 50.015625 
Q 88.921875 44.046875 88.921875 33.015625 
L 88.921875 0 
L 79.890625 0 
L 79.890625 32.71875 
Q 79.890625 40.578125 77.09375 44.375 
Q 74.3125 48.1875 68.609375 48.1875 
Q 61.625 48.1875 57.5625 43.546875 
Q 53.515625 38.921875 53.515625 30.90625 
L 53.515625 0 
L 44.484375 0 
L 44.484375 32.71875 
Q 44.484375 40.625 41.703125 44.40625 
Q 38.921875 48.1875 33.109375 48.1875 
Q 26.21875 48.1875 22.15625 43.53125 
Q 18.109375 38.875 18.109375 30.90625 
L 18.109375 0 
L 9.078125 0 
L 9.078125 54.6875 
L 18.109375 54.6875 
L 18.109375 46.1875 
Q 21.1875 51.21875 25.484375 53.609375 
Q 29.78125 56 35.6875 56 
Q 41.65625 56 45.828125 52.96875 
Q 50 49.953125 52 44.1875 
z
" id="DejaVuSans-109"/>
      <path d="M 48.6875 27.296875 
Q 48.6875 37.203125 44.609375 42.84375 
Q 40.53125 48.484375 33.40625 48.484375 
Q 26.265625 48.484375 22.1875 42.84375 
Q 18.109375 37.203125 18.109375 27.296875 
Q 18.109375 17.390625 22.1875 11.75 
Q 26.265625 6.109375 33.40625 6.109375 
Q 40.53125 6.109375 44.609375 11.75 
Q 48.6875 17.390625 48.6875 27.296875 
z
M 18.109375 46.390625 
Q 20.953125 51.265625 25.265625 53.625 
Q 29.59375 56 35.59375 56 
Q 45.5625 56 51.78125 48.09375 
Q 58.015625 40.1875 58.015625 27.296875 
Q 58.015625 14.40625 51.78125 6.484375 
Q 45.5625 -1.421875 35.59375 -1.421875 
Q 29.59375 -1.421875 25.265625 0.953125 
Q 20.953125 3.328125 18.109375 8.203125 
L 18.109375 0 
L 9.078125 0 
L 9.078125 75.984375 
L 18.109375 75.984375 
z
" id="DejaVuSans-98"/>
      <path d="M 56.203125 29.59375 
L 56.203125 25.203125 
L 14.890625 25.203125 
Q 15.484375 15.921875 20.484375 11.0625 
Q 25.484375 6.203125 34.421875 6.203125 
Q 39.59375 6.203125 44.453125 7.46875 
Q 49.3125 8.734375 54.109375 11.28125 
L 54.109375 2.78125 
Q 49.265625 0.734375 44.1875 -0.34375 
Q 39.109375 -1.421875 33.890625 -1.421875 
Q 20.796875 -1.421875 13.15625 6.1875 
Q 5.515625 13.8125 5.515625 26.8125 
Q 5.515625 40.234375 12.765625 48.109375 
Q 20.015625 56 32.328125 56 
Q 43.359375 56 49.78125 48.890625 
Q 56.203125 41.796875 56.203125 29.59375 
z
M 47.21875 32.234375 
Q 47.125 39.59375 43.09375 43.984375 
Q 39.0625 48.390625 32.421875 48.390625 
Q 24.90625 48.390625 20.390625 44.140625 
Q 15.875 39.890625 15.1875 32.171875 
z
" id="DejaVuSans-101"/>
      <path d="M 41.109375 46.296875 
Q 39.59375 47.171875 37.8125 47.578125 
Q 36.03125 48 33.890625 48 
Q 26.265625 48 22.1875 43.046875 
Q 18.109375 38.09375 18.109375 28.8125 
L 18.109375 0 
L 9.078125 0 
L 9.078125 54.6875 
L 18.109375 54.6875 
L 18.109375 46.1875 
Q 20.953125 51.171875 25.484375 53.578125 
Q 30.03125 56 36.53125 56 
Q 37.453125 56 38.578125 55.875 
Q 39.703125 55.765625 41.0625 55.515625 
z
" id="DejaVuSans-114"/>
      <path id="DejaVuSans-32"/>
      <path d="M 30.609375 48.390625 
Q 23.390625 48.390625 19.1875 42.75 
Q 14.984375 37.109375 14.984375 27.296875 
Q 14.984375 17.484375 19.15625 11.84375 
Q 23.34375 6.203125 30.609375 6.203125 
Q 37.796875 6.203125 41.984375 11.859375 
Q 46.1875 17.53125 46.1875 27.296875 
Q 46.1875 37.015625 41.984375 42.703125 
Q 37.796875 48.390625 30.609375 48.390625 
z
M 30.609375 56 
Q 42.328125 56 49.015625 48.375 
Q 55.71875 40.765625 55.71875 27.296875 
Q 55.71875 13.875 49.015625 6.21875 
Q 42.328125 -1.421875 30.609375 -1.421875 
Q 18.84375 -1.421875 12.171875 6.21875 
Q 5.515625 13.875 5.515625 27.296875 
Q 5.515625 40.765625 12.171875 48.375 
Q 18.84375 56 30.609375 56 
z
" id="DejaVuSans-111"/>
      <path d="M 37.109375 75.984375 
L 37.109375 68.5 
L 28.515625 68.5 
Q 23.6875 68.5 21.796875 66.546875 
Q 19.921875 64.59375 19.921875 59.515625 
L 19.921875 54.6875 
L 34.71875 54.6875 
L 34.71875 47.703125 
L 19.921875 47.703125 
L 19.921875 0 
L 10.890625 0 
L 10.890625 47.703125 
L 2.296875 47.703125 
L 2.296875 54.6875 
L 10.890625 54.6875 
L 10.890625 58.5 
Q 10.890625 67.625 15.140625 71.796875 
Q 19.390625 75.984375 28.609375 75.984375 
z
" id="DejaVuSans-102"/>
      <path d="M 14.796875 27.296875 
Q 14.796875 17.390625 18.875 11.75 
Q 22.953125 6.109375 30.078125 6.109375 
Q 37.203125 6.109375 41.296875 11.75 
Q 45.40625 17.390625 45.40625 27.296875 
Q 45.40625 37.203125 41.296875 42.84375 
Q 37.203125 48.484375 30.078125 48.484375 
Q 22.953125 48.484375 18.875 42.84375 
Q 14.796875 37.203125 14.796875 27.296875 
z
M 45.40625 8.203125 
Q 42.578125 3.328125 38.25 0.953125 
Q 33.9375 -1.421875 27.875 -1.421875 
Q 17.96875 -1.421875 11.734375 6.484375 
Q 5.515625 14.40625 5.515625 27.296875 
Q 5.515625 40.1875 11.734375 48.09375 
Q 17.96875 56 27.875 56 
Q 33.9375 56 38.25 53.625 
Q 42.578125 51.265625 45.40625 46.390625 
L 45.40625 54.6875 
L 54.390625 54.6875 
L 54.390625 -20.796875 
L 45.40625 -20.796875 
z
" id="DejaVuSans-113"/>
      <path d="M 44.28125 53.078125 
L 44.28125 44.578125 
Q 40.484375 46.53125 36.375 47.5 
Q 32.28125 48.484375 27.875 48.484375 
Q 21.1875 48.484375 17.84375 46.4375 
Q 14.5 44.390625 14.5 40.28125 
Q 14.5 37.15625 16.890625 35.375 
Q 19.28125 33.59375 26.515625 31.984375 
L 29.59375 31.296875 
Q 39.15625 29.25 43.1875 25.515625 
Q 47.21875 21.78125 47.21875 15.09375 
Q 47.21875 7.46875 41.1875 3.015625 
Q 35.15625 -1.421875 24.609375 -1.421875 
Q 20.21875 -1.421875 15.453125 -0.5625 
Q 10.6875 0.296875 5.421875 2 
L 5.421875 11.28125 
Q 10.40625 8.6875 15.234375 7.390625 
Q 20.0625 6.109375 24.8125 6.109375 
Q 31.15625 6.109375 34.5625 8.28125 
Q 37.984375 10.453125 37.984375 14.40625 
Q 37.984375 18.0625 35.515625 20.015625 
Q 33.0625 21.96875 24.703125 23.78125 
L 21.578125 24.515625 
Q 13.234375 26.265625 9.515625 29.90625 
Q 5.8125 33.546875 5.8125 39.890625 
Q 5.8125 47.609375 11.28125 51.796875 
Q 16.75 56 26.8125 56 
Q 31.78125 56 36.171875 55.265625 
Q 40.578125 54.546875 44.28125 53.078125 
z
" id="DejaVuSans-115"/>
     </defs>
     <g transform="translate(262.25375 418.316562)scale(0.1 -0.1)">
      <use xlink:href="#DejaVuSans-110"/>
      <use x="63.378906" xlink:href="#DejaVuSans-117"/>
      <use x="126.757812" xlink:href="#DejaVuSans-109"/>
      <use x="224.169922" xlink:href="#DejaVuSans-98"/>
      <use x="287.646484" xlink:href="#DejaVuSans-101"/>
      <use x="349.169922" xlink:href="#DejaVuSans-114"/>
      <use x="390.283203" xlink:href="#DejaVuSans-32"/>
      <use x="422.070312" xlink:href="#DejaVuSans-111"/>
      <use x="483.251953" xlink:href="#DejaVuSans-102"/>
      <use x="518.457031" xlink:href="#DejaVuSans-32"/>
      <use x="550.244141" xlink:href="#DejaVuSans-113"/>
      <use x="613.720703" xlink:href="#DejaVuSans-117"/>
      <use x="677.099609" xlink:href="#DejaVuSans-101"/>
      <use x="738.623047" xlink:href="#DejaVuSans-101"/>
      <use x="800.146484" xlink:href="#DejaVuSans-110"/>
      <use x="863.525391" xlink:href="#DejaVuSans-115"/>
     </g>
    </g>
   </g>
   <g id="matplotlib.axis_2">
    <g id="ytick_1">
     <g id="line2d_7">
      <defs>
       <path d="M 0 0 
L -3.5 0 
" id="md1f08dc908" style="stroke:#000000;stroke-width:0.8;"/>
      </defs>
      <g>
       <use style="stroke:#000000;stroke-width:0.8;" x="50.87" xlink:href="#md1f08dc908" y="361.494305"/>
      </g>
     </g>
     <g id="text_8">
      <!-- $\mathdefault{10^{-4}}$ -->
      <defs>
       <path d="M 10.59375 35.5 
L 73.1875 35.5 
L 73.1875 27.203125 
L 10.59375 27.203125 
z
" id="DejaVuSans-8722"/>
      </defs>
      <g transform="translate(20.37 365.293524)scale(0.1 -0.1)">
       <use transform="translate(0 0.684375)" xlink:href="#DejaVuSans-49"/>
       <use transform="translate(63.623047 0.684375)" xlink:href="#DejaVuSans-48"/>
       <use transform="translate(128.203125 38.965625)scale(0.7)" xlink:href="#DejaVuSans-8722"/>
       <use transform="translate(186.855469 38.965625)scale(0.7)" xlink:href="#DejaVuSans-52"/>
      </g>
     </g>
    </g>
    <g id="ytick_2">
     <g id="line2d_8">
      <g>
       <use style="stroke:#000000;stroke-width:0.8;" x="50.87" xlink:href="#md1f08dc908" y="310.524834"/>
      </g>
     </g>
     <g id="text_9">
      <!-- $\mathdefault{10^{-3}}$ -->
      <defs>
       <path d="M 40.578125 39.3125 
Q 47.65625 37.796875 51.625 33 
Q 55.609375 28.21875 55.609375 21.1875 
Q 55.609375 10.40625 48.1875 4.484375 
Q 40.765625 -1.421875 27.09375 -1.421875 
Q 22.515625 -1.421875 17.65625 -0.515625 
Q 12.796875 0.390625 7.625 2.203125 
L 7.625 11.71875 
Q 11.71875 9.328125 16.59375 8.109375 
Q 21.484375 6.890625 26.8125 6.890625 
Q 36.078125 6.890625 40.9375 10.546875 
Q 45.796875 14.203125 45.796875 21.1875 
Q 45.796875 27.640625 41.28125 31.265625 
Q 36.765625 34.90625 28.71875 34.90625 
L 20.21875 34.90625 
L 20.21875 43.015625 
L 29.109375 43.015625 
Q 36.375 43.015625 40.234375 45.921875 
Q 44.09375 48.828125 44.09375 54.296875 
Q 44.09375 59.90625 40.109375 62.90625 
Q 36.140625 65.921875 28.71875 65.921875 
Q 24.65625 65.921875 20.015625 65.03125 
Q 15.375 64.15625 9.8125 62.3125 
L 9.8125 71.09375 
Q 15.4375 72.65625 20.34375 73.4375 
Q 25.25 74.21875 29.59375 74.21875 
Q 40.828125 74.21875 47.359375 69.109375 
Q 53.90625 64.015625 53.90625 55.328125 
Q 53.90625 49.265625 50.4375 45.09375 
Q 46.96875 40.921875 40.578125 39.3125 
z
" id="DejaVuSans-51"/>
      </defs>
      <g transform="translate(20.37 314.324053)scale(0.1 -0.1)">
       <use transform="translate(0 0.765625)" xlink:href="#DejaVuSans-49"/>
       <use transform="translate(63.623047 0.765625)" xlink:href="#DejaVuSans-48"/>
       <use transform="translate(128.203125 39.046875)scale(0.7)" xlink:href="#DejaVuSans-8722"/>
       <use transform="translate(186.855469 39.046875)scale(0.7)" xlink:href="#DejaVuSans-51"/>
      </g>
     </g>
    </g>
    <g id="ytick_3">
     <g id="line2d_9">
      <g>
       <use style="stroke:#000000;stroke-width:0.8;" x="50.87" xlink:href="#md1f08dc908" y="259.555364"/>
      </g>
     </g>
     <g id="text_10">
      <!-- $\mathdefault{10^{-2}}$ -->
      <g transform="translate(20.37 263.354583)scale(0.1 -0.1)">
       <use transform="translate(0 0.765625)" xlink:href="#DejaVuSans-49"/>
       <use transform="translate(63.623047 0.765625)" xlink:href="#DejaVuSans-48"/>
       <use transform="translate(128.203125 39.046875)scale(0.7)" xlink:href="#DejaVuSans-8722"/>
       <use transform="translate(186.855469 39.046875)scale(0.7)" xlink:href="#DejaVuSans-50"/>
      </g>
     </g>
    </g>
    <g id="ytick_4">
     <g id="line2d_10">
      <g>
       <use style="stroke:#000000;stroke-width:0.8;" x="50.87" xlink:href="#md1f08dc908" y="208.585894"/>
      </g>
     </g>
     <g id="text_11">
      <!-- $\mathdefault{10^{-1}}$ -->
      <g transform="translate(20.37 212.385112)scale(0.1 -0.1)">
       <use transform="translate(0 0.684375)" xlink:href="#DejaVuSans-49"/>
       <use transform="translate(63.623047 0.684375)" xlink:href="#DejaVuSans-48"/>
       <use transform="translate(128.203125 38.965625)scale(0.7)" xlink:href="#DejaVuSans-8722"/>
       <use transform="translate(186.855469 38.965625)scale(0.7)" xlink:href="#DejaVuSans-49"/>
      </g>
     </g>
    </g>
    <g id="ytick_5">
     <g id="line2d_11">
      <g>
       <use style="stroke:#000000;stroke-width:0.8;" x="50.87" xlink:href="#md1f08dc908" y="157.616423"/>
      </g>
     </g>
     <g id="text_12">
      <!-- $\mathdefault{10^{0}}$ -->
      <g transform="translate(26.27 161.415642)scale(0.1 -0.1)">
       <use transform="translate(0 0.765625)" xlink:href="#DejaVuSans-49"/>
       <use transform="translate(63.623047 0.765625)" xlink:href="#DejaVuSans-48"/>
       <use transform="translate(128.203125 39.046875)scale(0.7)" xlink:href="#DejaVuSans-48"/>
      </g>
     </g>
    </g>
    <g id="ytick_6">
     <g id="line2d_12">
      <g>
       <use style="stroke:#000000;stroke-width:0.8;" x="50.87" xlink:href="#md1f08dc908" y="106.646953"/>
      </g>
     </g>
     <g id="text_13">
      <!-- $\mathdefault{10^{1}}$ -->
      <g transform="translate(26.27 110.446171)scale(0.1 -0.1)">
       <use transform="translate(0 0.684375)" xlink:href="#DejaVuSans-49"/>
       <use transform="translate(63.623047 0.684375)" xlink:href="#DejaVuSans-48"/>
       <use transform="translate(128.203125 38.965625)scale(0.7)" xlink:href="#DejaVuSans-49"/>
      </g>
     </g>
    </g>
    <g id="ytick_7">
     <g id="line2d_13">
      <g>
       <use style="stroke:#000000;stroke-width:0.8;" x="50.87" xlink:href="#md1f08dc908" y="55.677482"/>
      </g>
     </g>
     <g id="text_14">
      <!-- $\mathdefault{10^{2}}$ -->
      <g transform="translate(26.27 59.476701)scale(0.1 -0.1)">
       <use transform="translate(0 0.765625)" xlink:href="#DejaVuSans-49"/>
       <use transform="translate(63.623047 0.765625)" xlink:href="#DejaVuSans-48"/>
       <use transform="translate(128.203125 39.046875)scale(0.7)" xlink:href="#DejaVuSans-50"/>
      </g>
     </g>
    </g>
    <g id="ytick_8">
     <g id="line2d_14">
      <defs>
       <path d="M 0 0 
L -2 0 
" id="m562c817c11" style="stroke:#000000;stroke-width:0.6;"/>
      </defs>
      <g>
       <use style="stroke:#000000;stroke-width:0.6;" x="50.87" xlink:href="#m562c817c11" y="388.145158"/>
      </g>
     </g>
    </g>
    <g id="ytick_9">
     <g id="line2d_15">
      <g>
       <use style="stroke:#000000;stroke-width:0.6;" x="50.87" xlink:href="#m562c817c11" y="381.777096"/>
      </g>
     </g>
    </g>
    <g id="ytick_10">
     <g id="line2d_16">
      <g>
       <use style="stroke:#000000;stroke-width:0.6;" x="50.87" xlink:href="#m562c817c11" y="376.837644"/>
      </g>
     </g>
    </g>
    <g id="ytick_11">
     <g id="line2d_17">
      <g>
       <use style="stroke:#000000;stroke-width:0.6;" x="50.87" xlink:href="#m562c817c11" y="372.801818"/>
      </g>
     </g>
    </g>
    <g id="ytick_12">
     <g id="line2d_18">
      <g>
       <use style="stroke:#000000;stroke-width:0.6;" x="50.87" xlink:href="#m562c817c11" y="369.389576"/>
      </g>
     </g>
    </g>
    <g id="ytick_13">
     <g id="line2d_19">
      <g>
       <use style="stroke:#000000;stroke-width:0.6;" x="50.87" xlink:href="#m562c817c11" y="366.433757"/>
      </g>
     </g>
    </g>
    <g id="ytick_14">
     <g id="line2d_20">
      <g>
       <use style="stroke:#000000;stroke-width:0.6;" x="50.87" xlink:href="#m562c817c11" y="363.82654"/>
      </g>
     </g>
    </g>
    <g id="ytick_15">
     <g id="line2d_21">
      <g>
       <use style="stroke:#000000;stroke-width:0.6;" x="50.87" xlink:href="#m562c817c11" y="346.150965"/>
      </g>
     </g>
    </g>
    <g id="ytick_16">
     <g id="line2d_22">
      <g>
       <use style="stroke:#000000;stroke-width:0.6;" x="50.87" xlink:href="#m562c817c11" y="337.175687"/>
      </g>
     </g>
    </g>
    <g id="ytick_17">
     <g id="line2d_23">
      <g>
       <use style="stroke:#000000;stroke-width:0.6;" x="50.87" xlink:href="#m562c817c11" y="330.807626"/>
      </g>
     </g>
    </g>
    <g id="ytick_18">
     <g id="line2d_24">
      <g>
       <use style="stroke:#000000;stroke-width:0.6;" x="50.87" xlink:href="#m562c817c11" y="325.868174"/>
      </g>
     </g>
    </g>
    <g id="ytick_19">
     <g id="line2d_25">
      <g>
       <use style="stroke:#000000;stroke-width:0.6;" x="50.87" xlink:href="#m562c817c11" y="321.832348"/>
      </g>
     </g>
    </g>
    <g id="ytick_20">
     <g id="line2d_26">
      <g>
       <use style="stroke:#000000;stroke-width:0.6;" x="50.87" xlink:href="#m562c817c11" y="318.420105"/>
      </g>
     </g>
    </g>
    <g id="ytick_21">
     <g id="line2d_27">
      <g>
       <use style="stroke:#000000;stroke-width:0.6;" x="50.87" xlink:href="#m562c817c11" y="315.464287"/>
      </g>
     </g>
    </g>
    <g id="ytick_22">
     <g id="line2d_28">
      <g>
       <use style="stroke:#000000;stroke-width:0.6;" x="50.87" xlink:href="#m562c817c11" y="312.85707"/>
      </g>
     </g>
    </g>
    <g id="ytick_23">
     <g id="line2d_29">
      <g>
       <use style="stroke:#000000;stroke-width:0.6;" x="50.87" xlink:href="#m562c817c11" y="295.181495"/>
      </g>
     </g>
    </g>
    <g id="ytick_24">
     <g id="line2d_30">
      <g>
       <use style="stroke:#000000;stroke-width:0.6;" x="50.87" xlink:href="#m562c817c11" y="286.206217"/>
      </g>
     </g>
    </g>
    <g id="ytick_25">
     <g id="line2d_31">
      <g>
       <use style="stroke:#000000;stroke-width:0.6;" x="50.87" xlink:href="#m562c817c11" y="279.838156"/>
      </g>
     </g>
    </g>
    <g id="ytick_26">
     <g id="line2d_32">
      <g>
       <use style="stroke:#000000;stroke-width:0.6;" x="50.87" xlink:href="#m562c817c11" y="274.898703"/>
      </g>
     </g>
    </g>
    <g id="ytick_27">
     <g id="line2d_33">
      <g>
       <use style="stroke:#000000;stroke-width:0.6;" x="50.87" xlink:href="#m562c817c11" y="270.862877"/>
      </g>
     </g>
    </g>
    <g id="ytick_28">
     <g id="line2d_34">
      <g>
       <use style="stroke:#000000;stroke-width:0.6;" x="50.87" xlink:href="#m562c817c11" y="267.450635"/>
      </g>
     </g>
    </g>
    <g id="ytick_29">
     <g id="line2d_35">
      <g>
       <use style="stroke:#000000;stroke-width:0.6;" x="50.87" xlink:href="#m562c817c11" y="264.494816"/>
      </g>
     </g>
    </g>
    <g id="ytick_30">
     <g id="line2d_36">
      <g>
       <use style="stroke:#000000;stroke-width:0.6;" x="50.87" xlink:href="#m562c817c11" y="261.887599"/>
      </g>
     </g>
    </g>
    <g id="ytick_31">
     <g id="line2d_37">
      <g>
       <use style="stroke:#000000;stroke-width:0.6;" x="50.87" xlink:href="#m562c817c11" y="244.212025"/>
      </g>
     </g>
    </g>
    <g id="ytick_32">
     <g id="line2d_38">
      <g>
       <use style="stroke:#000000;stroke-width:0.6;" x="50.87" xlink:href="#m562c817c11" y="235.236746"/>
      </g>
     </g>
    </g>
    <g id="ytick_33">
     <g id="line2d_39">
      <g>
       <use style="stroke:#000000;stroke-width:0.6;" x="50.87" xlink:href="#m562c817c11" y="228.868685"/>
      </g>
     </g>
    </g>
    <g id="ytick_34">
     <g id="line2d_40">
      <g>
       <use style="stroke:#000000;stroke-width:0.6;" x="50.87" xlink:href="#m562c817c11" y="223.929233"/>
      </g>
     </g>
    </g>
    <g id="ytick_35">
     <g id="line2d_41">
      <g>
       <use style="stroke:#000000;stroke-width:0.6;" x="50.87" xlink:href="#m562c817c11" y="219.893407"/>
      </g>
     </g>
    </g>
    <g id="ytick_36">
     <g id="line2d_42">
      <g>
       <use style="stroke:#000000;stroke-width:0.6;" x="50.87" xlink:href="#m562c817c11" y="216.481164"/>
      </g>
     </g>
    </g>
    <g id="ytick_37">
     <g id="line2d_43">
      <g>
       <use style="stroke:#000000;stroke-width:0.6;" x="50.87" xlink:href="#m562c817c11" y="213.525346"/>
      </g>
     </g>
    </g>
    <g id="ytick_38">
     <g id="line2d_44">
      <g>
       <use style="stroke:#000000;stroke-width:0.6;" x="50.87" xlink:href="#m562c817c11" y="210.918129"/>
      </g>
     </g>
    </g>
    <g id="ytick_39">
     <g id="line2d_45">
      <g>
       <use style="stroke:#000000;stroke-width:0.6;" x="50.87" xlink:href="#m562c817c11" y="193.242554"/>
      </g>
     </g>
    </g>
    <g id="ytick_40">
     <g id="line2d_46">
      <g>
       <use style="stroke:#000000;stroke-width:0.6;" x="50.87" xlink:href="#m562c817c11" y="184.267276"/>
      </g>
     </g>
    </g>
    <g id="ytick_41">
     <g id="line2d_47">
      <g>
       <use style="stroke:#000000;stroke-width:0.6;" x="50.87" xlink:href="#m562c817c11" y="177.899215"/>
      </g>
     </g>
    </g>
    <g id="ytick_42">
     <g id="line2d_48">
      <g>
       <use style="stroke:#000000;stroke-width:0.6;" x="50.87" xlink:href="#m562c817c11" y="172.959763"/>
      </g>
     </g>
    </g>
    <g id="ytick_43">
     <g id="line2d_49">
      <g>
       <use style="stroke:#000000;stroke-width:0.6;" x="50.87" xlink:href="#m562c817c11" y="168.923936"/>
      </g>
     </g>
    </g>
    <g id="ytick_44">
     <g id="line2d_50">
      <g>
       <use style="stroke:#000000;stroke-width:0.6;" x="50.87" xlink:href="#m562c817c11" y="165.511694"/>
      </g>
     </g>
    </g>
    <g id="ytick_45">
     <g id="line2d_51">
      <g>
       <use style="stroke:#000000;stroke-width:0.6;" x="50.87" xlink:href="#m562c817c11" y="162.555875"/>
      </g>
     </g>
    </g>
    <g id="ytick_46">
     <g id="line2d_52">
      <g>
       <use style="stroke:#000000;stroke-width:0.6;" x="50.87" xlink:href="#m562c817c11" y="159.948658"/>
      </g>
     </g>
    </g>
    <g id="ytick_47">
     <g id="line2d_53">
      <g>
       <use style="stroke:#000000;stroke-width:0.6;" x="50.87" xlink:href="#m562c817c11" y="142.273084"/>
      </g>
     </g>
    </g>
    <g id="ytick_48">
     <g id="line2d_54">
      <g>
       <use style="stroke:#000000;stroke-width:0.6;" x="50.87" xlink:href="#m562c817c11" y="133.297805"/>
      </g>
     </g>
    </g>
    <g id="ytick_49">
     <g id="line2d_55">
      <g>
       <use style="stroke:#000000;stroke-width:0.6;" x="50.87" xlink:href="#m562c817c11" y="126.929744"/>
      </g>
     </g>
    </g>
    <g id="ytick_50">
     <g id="line2d_56">
      <g>
       <use style="stroke:#000000;stroke-width:0.6;" x="50.87" xlink:href="#m562c817c11" y="121.990292"/>
      </g>
     </g>
    </g>
    <g id="ytick_51">
     <g id="line2d_57">
      <g>
       <use style="stroke:#000000;stroke-width:0.6;" x="50.87" xlink:href="#m562c817c11" y="117.954466"/>
      </g>
     </g>
    </g>
    <g id="ytick_52">
     <g id="line2d_58">
      <g>
       <use style="stroke:#000000;stroke-width:0.6;" x="50.87" xlink:href="#m562c817c11" y="114.542224"/>
      </g>
     </g>
    </g>
    <g id="ytick_53">
     <g id="line2d_59">
      <g>
       <use style="stroke:#000000;stroke-width:0.6;" x="50.87" xlink:href="#m562c817c11" y="111.586405"/>
      </g>
     </g>
    </g>
    <g id="ytick_54">
     <g id="line2d_60">
      <g>
       <use style="stroke:#000000;stroke-width:0.6;" x="50.87" xlink:href="#m562c817c11" y="108.979188"/>
      </g>
     </g>
    </g>
    <g id="ytick_55">
     <g id="line2d_61">
      <g>
       <use style="stroke:#000000;stroke-width:0.6;" x="50.87" xlink:href="#m562c817c11" y="91.303613"/>
      </g>
     </g>
    </g>
    <g id="ytick_56">
     <g id="line2d_62">
      <g>
       <use style="stroke:#000000;stroke-width:0.6;" x="50.87" xlink:href="#m562c817c11" y="82.328335"/>
      </g>
     </g>
    </g>
    <g id="ytick_57">
     <g id="line2d_63">
      <g>
       <use style="stroke:#000000;stroke-width:0.6;" x="50.87" xlink:href="#m562c817c11" y="75.960274"/>
      </g>
     </g>
    </g>
    <g id="ytick_58">
     <g id="line2d_64">
      <g>
       <use style="stroke:#000000;stroke-width:0.6;" x="50.87" xlink:href="#m562c817c11" y="71.020822"/>
      </g>
     </g>
    </g>
    <g id="ytick_59">
     <g id="line2d_65">
      <g>
       <use style="stroke:#000000;stroke-width:0.6;" x="50.87" xlink:href="#m562c817c11" y="66.984996"/>
      </g>
     </g>
    </g>
    <g id="ytick_60">
     <g id="line2d_66">
      <g>
       <use style="stroke:#000000;stroke-width:0.6;" x="50.87" xlink:href="#m562c817c11" y="63.572753"/>
      </g>
     </g>
    </g>
    <g id="ytick_61">
     <g id="line2d_67">
      <g>
       <use style="stroke:#000000;stroke-width:0.6;" x="50.87" xlink:href="#m562c817c11" y="60.616934"/>
      </g>
     </g>
    </g>
    <g id="ytick_62">
     <g id="line2d_68">
      <g>
       <use style="stroke:#000000;stroke-width:0.6;" x="50.87" xlink:href="#m562c817c11" y="58.009717"/>
      </g>
     </g>
    </g>
    <g id="ytick_63">
     <g id="line2d_69">
      <g>
       <use style="stroke:#000000;stroke-width:0.6;" x="50.87" xlink:href="#m562c817c11" y="40.334143"/>
      </g>
     </g>
    </g>
    <g id="ytick_64">
     <g id="line2d_70">
      <g>
       <use style="stroke:#000000;stroke-width:0.6;" x="50.87" xlink:href="#m562c817c11" y="31.358865"/>
      </g>
     </g>
    </g>
    <g id="ytick_65">
     <g id="line2d_71">
      <g>
       <use style="stroke:#000000;stroke-width:0.6;" x="50.87" xlink:href="#m562c817c11" y="24.990803"/>
      </g>
     </g>
    </g>
    <g id="ytick_66">
     <g id="line2d_72">
      <g>
       <use style="stroke:#000000;stroke-width:0.6;" x="50.87" xlink:href="#m562c817c11" y="20.051351"/>
      </g>
     </g>
    </g>
    <g id="ytick_67">
     <g id="line2d_73">
      <g>
       <use style="stroke:#000000;stroke-width:0.6;" x="50.87" xlink:href="#m562c817c11" y="16.015525"/>
      </g>
     </g>
    </g>
    <g id="ytick_68">
     <g id="line2d_74">
      <g>
       <use style="stroke:#000000;stroke-width:0.6;" x="50.87" xlink:href="#m562c817c11" y="12.603283"/>
      </g>
     </g>
    </g>
    <g id="text_15">
     <!-- time [s] -->
     <defs>
      <path d="M 18.3125 70.21875 
L 18.3125 54.6875 
L 36.8125 54.6875 
L 36.8125 47.703125 
L 18.3125 47.703125 
L 18.3125 18.015625 
Q 18.3125 11.328125 20.140625 9.421875 
Q 21.96875 7.515625 27.59375 7.515625 
L 36.8125 7.515625 
L 36.8125 0 
L 27.59375 0 
Q 17.1875 0 13.234375 3.875 
Q 9.28125 7.765625 9.28125 18.015625 
L 9.28125 47.703125 
L 2.6875 47.703125 
L 2.6875 54.6875 
L 9.28125 54.6875 
L 9.28125 70.21875 
z
" id="DejaVuSans-116"/>
      <path d="M 9.421875 54.6875 
L 18.40625 54.6875 
L 18.40625 0 
L 9.421875 0 
z
M 9.421875 75.984375 
L 18.40625 75.984375 
L 18.40625 64.59375 
L 9.421875 64.59375 
z
" id="DejaVuSans-105"/>
      <path d="M 8.59375 75.984375 
L 29.296875 75.984375 
L 29.296875 69 
L 17.578125 69 
L 17.578125 -6.203125 
L 29.296875 -6.203125 
L 29.296875 -13.1875 
L 8.59375 -13.1875 
z
" id="DejaVuSans-91"/>
      <path d="M 30.421875 75.984375 
L 30.421875 -13.1875 
L 9.71875 -13.1875 
L 9.71875 -6.203125 
L 21.390625 -6.203125 
L 21.390625 69 
L 9.71875 69 
L 9.71875 75.984375 
z
" id="DejaVuSans-93"/>
     </defs>
     <g transform="translate(14.290313 219.811406)rotate(-90)scale(0.1 -0.1)">
      <use xlink:href="#DejaVuSans-116"/>
      <use x="39.208984" xlink:href="#DejaVuSans-105"/>
      <use x="66.992188" xlink:href="#DejaVuSans-109"/>
      <use x="164.404297" xlink:href="#DejaVuSans-101"/>
      <use x="225.927734" xlink:href="#DejaVuSans-32"/>
      <use x="257.714844" xlink:href="#DejaVuSans-91"/>
      <use x="296.728516" xlink:href="#DejaVuSans-115"/>
      <use x="348.828125" xlink:href="#DejaVuSans-93"/>
     </g>
    </g>
   </g>
   <g id="LineCollection_1">
    <path clip-path="url(#p51461f153d)" d="M 74.248636 372.801818 
L 74.248636 361.055959 
" style="fill:none;stroke:#ff0000;stroke-width:1.5;"/>
    <path clip-path="url(#p51461f153d)" d="M 121.005909 352.667093 
L 121.005909 347.876703 
" style="fill:none;stroke:#ff0000;stroke-width:1.5;"/>
    <path clip-path="url(#p51461f153d)" d="M 167.763182 329.413631 
L 167.763182 322.204386 
" style="fill:none;stroke:#ff0000;stroke-width:1.5;"/>
    <path clip-path="url(#p51461f153d)" d="M 214.520455 298.442991 
L 214.520455 295.561038 
" style="fill:none;stroke:#ff0000;stroke-width:1.5;"/>
    <path clip-path="url(#p51461f153d)" d="M 261.277727 264.72847 
L 261.277727 262.837389 
" style="fill:none;stroke:#ff0000;stroke-width:1.5;"/>
    <path clip-path="url(#p51461f153d)" d="M 308.035 228.39781 
L 308.035 227.423826 
" style="fill:none;stroke:#ff0000;stroke-width:1.5;"/>
    <path clip-path="url(#p51461f153d)" d="M 354.792273 193.955278 
L 354.792273 192.137158 
" style="fill:none;stroke:#ff0000;stroke-width:1.5;"/>
    <path clip-path="url(#p51461f153d)" d="M 401.549545 160.050495 
L 401.549545 156.806874 
" style="fill:none;stroke:#ff0000;stroke-width:1.5;"/>
    <path clip-path="url(#p51461f153d)" d="M 448.306818 118.563537 
L 448.306818 118.319411 
" style="fill:none;stroke:#ff0000;stroke-width:1.5;"/>
    <path clip-path="url(#p51461f153d)" d="M 495.064091 73.529273 
L 495.064091 71.916509 
" style="fill:none;stroke:#ff0000;stroke-width:1.5;"/>
    <path clip-path="url(#p51461f153d)" d="M 541.821364 30.137109 
L 541.821364 28.038182 
" style="fill:none;stroke:#ff0000;stroke-width:1.5;"/>
   </g>
   <g id="LineCollection_2">
    <path clip-path="url(#p51461f153d)" d="M 74.248636 433 
L 74.248636 223.980204 
" style="fill:none;stroke:#0000ff;stroke-width:1.5;"/>
    <path clip-path="url(#p51461f153d)" d="M 121.005909 316.138524 
L 121.005909 304.649197 
" style="fill:none;stroke:#0000ff;stroke-width:1.5;"/>
    <path clip-path="url(#p51461f153d)" d="M 167.763182 299.941821 
L 167.763182 291.734495 
" style="fill:none;stroke:#0000ff;stroke-width:1.5;"/>
    <path clip-path="url(#p51461f153d)" d="M 214.520455 284.448037 
L 214.520455 278.032321 
" style="fill:none;stroke:#0000ff;stroke-width:1.5;"/>
    <path clip-path="url(#p51461f153d)" d="M 261.277727 263.768096 
L 261.277727 260.26843 
" style="fill:none;stroke:#0000ff;stroke-width:1.5;"/>
    <path clip-path="url(#p51461f153d)" d="M 308.035 227.768133 
L 308.035 227.54078 
" style="fill:none;stroke:#0000ff;stroke-width:1.5;"/>
    <path clip-path="url(#p51461f153d)" d="M 354.792273 194.131889 
L 354.792273 191.775517 
" style="fill:none;stroke:#0000ff;stroke-width:1.5;"/>
    <path clip-path="url(#p51461f153d)" d="M 401.549545 158.547505 
L 401.549545 156.857017 
" style="fill:none;stroke:#0000ff;stroke-width:1.5;"/>
    <path clip-path="url(#p51461f153d)" d="M 448.306818 118.714381 
L 448.306818 118.431093 
" style="fill:none;stroke:#0000ff;stroke-width:1.5;"/>
    <path clip-path="url(#p51461f153d)" d="M 495.064091 73.881743 
L 495.064091 72.021378 
" style="fill:none;stroke:#0000ff;stroke-width:1.5;"/>
    <path clip-path="url(#p51461f153d)" d="M 541.821364 29.676658 
L 541.821364 28.185381 
" style="fill:none;stroke:#0000ff;stroke-width:1.5;"/>
   </g>
   <g id="LineCollection_3">
    <path clip-path="url(#p51461f153d)" d="M 74.248636 343.847349 
L 74.248636 334.690345 
" style="fill:none;stroke:#bf00bf;stroke-width:1.5;"/>
    <path clip-path="url(#p51461f153d)" d="M 121.005909 340.424704 
L 121.005909 326.868022 
" style="fill:none;stroke:#bf00bf;stroke-width:1.5;"/>
    <path clip-path="url(#p51461f153d)" d="M 167.763182 321.107556 
L 167.763182 312.971808 
" style="fill:none;stroke:#bf00bf;stroke-width:1.5;"/>
    <path clip-path="url(#p51461f153d)" d="M 214.520455 303.349171 
L 214.520455 297.277856 
" style="fill:none;stroke:#bf00bf;stroke-width:1.5;"/>
    <path clip-path="url(#p51461f153d)" d="M 261.277727 274.396549 
L 261.277727 273.71338 
" style="fill:none;stroke:#bf00bf;stroke-width:1.5;"/>
    <path clip-path="url(#p51461f153d)" d="M 308.035 238.604963 
L 308.035 235.137565 
" style="fill:none;stroke:#bf00bf;stroke-width:1.5;"/>
    <path clip-path="url(#p51461f153d)" d="M 354.792273 200.414733 
L 354.792273 200.095313 
" style="fill:none;stroke:#bf00bf;stroke-width:1.5;"/>
    <path clip-path="url(#p51461f153d)" d="M 401.549545 164.186157 
L 401.549545 162.22336 
" style="fill:none;stroke:#bf00bf;stroke-width:1.5;"/>
    <path clip-path="url(#p51461f153d)" d="M 448.306818 122.268517 
L 448.306818 122.12782 
" style="fill:none;stroke:#bf00bf;stroke-width:1.5;"/>
    <path clip-path="url(#p51461f153d)" d="M 495.064091 78.725203 
L 495.064091 76.711739 
" style="fill:none;stroke:#bf00bf;stroke-width:1.5;"/>
    <path clip-path="url(#p51461f153d)" d="M 541.821364 33.480853 
L 541.821364 32.654602 
" style="fill:none;stroke:#bf00bf;stroke-width:1.5;"/>
   </g>
   <g id="LineCollection_4">
    <path clip-path="url(#p51461f153d)" d="M 74.248636 343.606605 
L 74.248636 336.760067 
" style="fill:none;stroke:#ff00ff;stroke-width:1.5;"/>
    <path clip-path="url(#p51461f153d)" d="M 121.005909 335.926396 
L 121.005909 325.503833 
" style="fill:none;stroke:#ff00ff;stroke-width:1.5;"/>
    <path clip-path="url(#p51461f153d)" d="M 167.763182 320.120628 
L 167.763182 310.760771 
" style="fill:none;stroke:#ff00ff;stroke-width:1.5;"/>
    <path clip-path="url(#p51461f153d)" d="M 214.520455 299.961989 
L 214.520455 293.98344 
" style="fill:none;stroke:#ff00ff;stroke-width:1.5;"/>
    <path clip-path="url(#p51461f153d)" d="M 261.277727 274.074792 
L 261.277727 269.119597 
" style="fill:none;stroke:#ff00ff;stroke-width:1.5;"/>
    <path clip-path="url(#p51461f153d)" d="M 308.035 235.779141 
L 308.035 232.567466 
" style="fill:none;stroke:#ff00ff;stroke-width:1.5;"/>
    <path clip-path="url(#p51461f153d)" d="M 354.792273 201.11519 
L 354.792273 198.53303 
" style="fill:none;stroke:#ff00ff;stroke-width:1.5;"/>
    <path clip-path="url(#p51461f153d)" d="M 401.549545 162.16145 
L 401.549545 161.919751 
" style="fill:none;stroke:#ff00ff;stroke-width:1.5;"/>
    <path clip-path="url(#p51461f153d)" d="M 448.306818 120.936928 
L 448.306818 120.129379 
" style="fill:none;stroke:#ff00ff;stroke-width:1.5;"/>
    <path clip-path="url(#p51461f153d)" d="M 495.064091 77.464622 
L 495.064091 75.419143 
" style="fill:none;stroke:#ff00ff;stroke-width:1.5;"/>
    <path clip-path="url(#p51461f153d)" d="M 541.821364 31.916289 
L 541.821364 31.003844 
" style="fill:none;stroke:#ff00ff;stroke-width:1.5;"/>
   </g>
   <g id="LineCollection_5">
    <path clip-path="url(#p51461f153d)" d="M 74.248636 433 
L 74.248636 288.964228 
" style="fill:none;stroke:#000000;stroke-width:1.5;"/>
    <path clip-path="url(#p51461f153d)" d="M 121.005909 346.999849 
L 121.005909 342.396154 
" style="fill:none;stroke:#000000;stroke-width:1.5;"/>
    <path clip-path="url(#p51461f153d)" d="M 167.763182 433 
L 167.763182 299.995134 
" style="fill:none;stroke:#000000;stroke-width:1.5;"/>
    <path clip-path="url(#p51461f153d)" d="M 214.520455 303.882871 
L 214.520455 303.05797 
" style="fill:none;stroke:#000000;stroke-width:1.5;"/>
    <path clip-path="url(#p51461f153d)" d="M 261.277727 269.058729 
L 261.277727 268.882892 
" style="fill:none;stroke:#000000;stroke-width:1.5;"/>
    <path clip-path="url(#p51461f153d)" d="M 308.035 238.164687 
L 308.035 236.880287 
" style="fill:none;stroke:#000000;stroke-width:1.5;"/>
    <path clip-path="url(#p51461f153d)" d="M 354.792273 200.100888 
L 354.792273 199.20179 
" style="fill:none;stroke:#000000;stroke-width:1.5;"/>
    <path clip-path="url(#p51461f153d)" d="M 401.549545 160.335437 
L 401.549545 158.966142 
" style="fill:none;stroke:#000000;stroke-width:1.5;"/>
    <path clip-path="url(#p51461f153d)" d="M 448.306818 118.969815 
L 448.306818 116.458391 
" style="fill:none;stroke:#000000;stroke-width:1.5;"/>
    <path clip-path="url(#p51461f153d)" d="M 495.064091 74.239885 
L 495.064091 72.034129 
" style="fill:none;stroke:#000000;stroke-width:1.5;"/>
    <path clip-path="url(#p51461f153d)" d="M 541.821364 29.800453 
L 541.821364 28.915116 
" style="fill:none;stroke:#000000;stroke-width:1.5;"/>
   </g>
   <g id="line2d_75">
    <defs>
     <path d="M 2 0 
L -2 -0 
" id="mdbbf62ee94" style="stroke:#ff0000;"/>
    </defs>
    <g clip-path="url(#p51461f153d)">
     <use style="fill:#ff0000;stroke:#ff0000;" x="74.248636" xlink:href="#mdbbf62ee94" y="372.801818"/>
     <use style="fill:#ff0000;stroke:#ff0000;" x="121.005909" xlink:href="#mdbbf62ee94" y="352.667093"/>
     <use style="fill:#ff0000;stroke:#ff0000;" x="167.763182" xlink:href="#mdbbf62ee94" y="329.413631"/>
     <use style="fill:#ff0000;stroke:#ff0000;" x="214.520455" xlink:href="#mdbbf62ee94" y="298.442991"/>
     <use style="fill:#ff0000;stroke:#ff0000;" x="261.277727" xlink:href="#mdbbf62ee94" y="264.72847"/>
     <use style="fill:#ff0000;stroke:#ff0000;" x="308.035" xlink:href="#mdbbf62ee94" y="228.39781"/>
     <use style="fill:#ff0000;stroke:#ff0000;" x="354.792273" xlink:href="#mdbbf62ee94" y="193.955278"/>
     <use style="fill:#ff0000;stroke:#ff0000;" x="401.549545" xlink:href="#mdbbf62ee94" y="160.050495"/>
     <use style="fill:#ff0000;stroke:#ff0000;" x="448.306818" xlink:href="#mdbbf62ee94" y="118.563537"/>
     <use style="fill:#ff0000;stroke:#ff0000;" x="495.064091" xlink:href="#mdbbf62ee94" y="73.529273"/>
     <use style="fill:#ff0000;stroke:#ff0000;" x="541.821364" xlink:href="#mdbbf62ee94" y="30.137109"/>
    </g>
   </g>
   <g id="line2d_76">
    <g clip-path="url(#p51461f153d)">
     <use style="fill:#ff0000;stroke:#ff0000;" x="74.248636" xlink:href="#mdbbf62ee94" y="361.055959"/>
     <use style="fill:#ff0000;stroke:#ff0000;" x="121.005909" xlink:href="#mdbbf62ee94" y="347.876703"/>
     <use style="fill:#ff0000;stroke:#ff0000;" x="167.763182" xlink:href="#mdbbf62ee94" y="322.204386"/>
     <use style="fill:#ff0000;stroke:#ff0000;" x="214.520455" xlink:href="#mdbbf62ee94" y="295.561038"/>
     <use style="fill:#ff0000;stroke:#ff0000;" x="261.277727" xlink:href="#mdbbf62ee94" y="262.837389"/>
     <use style="fill:#ff0000;stroke:#ff0000;" x="308.035" xlink:href="#mdbbf62ee94" y="227.423826"/>
     <use style="fill:#ff0000;stroke:#ff0000;" x="354.792273" xlink:href="#mdbbf62ee94" y="192.137158"/>
     <use style="fill:#ff0000;stroke:#ff0000;" x="401.549545" xlink:href="#mdbbf62ee94" y="156.806874"/>
     <use style="fill:#ff0000;stroke:#ff0000;" x="448.306818" xlink:href="#mdbbf62ee94" y="118.319411"/>
     <use style="fill:#ff0000;stroke:#ff0000;" x="495.064091" xlink:href="#mdbbf62ee94" y="71.916509"/>
     <use style="fill:#ff0000;stroke:#ff0000;" x="541.821364" xlink:href="#mdbbf62ee94" y="28.038182"/>
    </g>
   </g>
   <g id="line2d_77">
    <defs>
     <path d="M 2 0 
L -2 -0 
" id="m7a31cb387a" style="stroke:#0000ff;"/>
    </defs>
    <g clip-path="url(#p51461f153d)">
     <use style="fill:#0000ff;stroke:#0000ff;" x="92.67337" xlink:href="#m7a31cb387a" y="31105"/>
     <use style="fill:#0000ff;stroke:#0000ff;" x="121.005909" xlink:href="#m7a31cb387a" y="316.138524"/>
     <use style="fill:#0000ff;stroke:#0000ff;" x="167.763182" xlink:href="#m7a31cb387a" y="299.941821"/>
     <use style="fill:#0000ff;stroke:#0000ff;" x="214.520455" xlink:href="#m7a31cb387a" y="284.448037"/>
     <use style="fill:#0000ff;stroke:#0000ff;" x="261.277727" xlink:href="#m7a31cb387a" y="263.768096"/>
     <use style="fill:#0000ff;stroke:#0000ff;" x="308.035" xlink:href="#m7a31cb387a" y="227.768133"/>
     <use style="fill:#0000ff;stroke:#0000ff;" x="354.792273" xlink:href="#m7a31cb387a" y="194.131889"/>
     <use style="fill:#0000ff;stroke:#0000ff;" x="401.549545" xlink:href="#m7a31cb387a" y="158.547505"/>
     <use style="fill:#0000ff;stroke:#0000ff;" x="448.306818" xlink:href="#m7a31cb387a" y="118.714381"/>
     <use style="fill:#0000ff;stroke:#0000ff;" x="495.064091" xlink:href="#m7a31cb387a" y="73.881743"/>
     <use style="fill:#0000ff;stroke:#0000ff;" x="541.821364" xlink:href="#m7a31cb387a" y="29.676658"/>
    </g>
   </g>
   <g id="line2d_78">
    <g clip-path="url(#p51461f153d)">
     <use style="fill:#0000ff;stroke:#0000ff;" x="74.248636" xlink:href="#m7a31cb387a" y="223.980204"/>
     <use style="fill:#0000ff;stroke:#0000ff;" x="121.005909" xlink:href="#m7a31cb387a" y="304.649197"/>
     <use style="fill:#0000ff;stroke:#0000ff;" x="167.763182" xlink:href="#m7a31cb387a" y="291.734495"/>
     <use style="fill:#0000ff;stroke:#0000ff;" x="214.520455" xlink:href="#m7a31cb387a" y="278.032321"/>
     <use style="fill:#0000ff;stroke:#0000ff;" x="261.277727" xlink:href="#m7a31cb387a" y="260.26843"/>
     <use style="fill:#0000ff;stroke:#0000ff;" x="308.035" xlink:href="#m7a31cb387a" y="227.54078"/>
     <use style="fill:#0000ff;stroke:#0000ff;" x="354.792273" xlink:href="#m7a31cb387a" y="191.775517"/>
     <use style="fill:#0000ff;stroke:#0000ff;" x="401.549545" xlink:href="#m7a31cb387a" y="156.857017"/>
     <use style="fill:#0000ff;stroke:#0000ff;" x="448.306818" xlink:href="#m7a31cb387a" y="118.431093"/>
     <use style="fill:#0000ff;stroke:#0000ff;" x="495.064091" xlink:href="#m7a31cb387a" y="72.021378"/>
     <use style="fill:#0000ff;stroke:#0000ff;" x="541.821364" xlink:href="#m7a31cb387a" y="28.185381"/>
    </g>
   </g>
   <g id="line2d_79">
    <defs>
     <path d="M 2 0 
L -2 -0 
" id="m210a5e1b32" style="stroke:#bf00bf;"/>
    </defs>
    <g clip-path="url(#p51461f153d)">
     <use style="fill:#bf00bf;stroke:#bf00bf;" x="74.248636" xlink:href="#m210a5e1b32" y="343.847349"/>
     <use style="fill:#bf00bf;stroke:#bf00bf;" x="121.005909" xlink:href="#m210a5e1b32" y="340.424704"/>
     <use style="fill:#bf00bf;stroke:#bf00bf;" x="167.763182" xlink:href="#m210a5e1b32" y="321.107556"/>
     <use style="fill:#bf00bf;stroke:#bf00bf;" x="214.520455" xlink:href="#m210a5e1b32" y="303.349171"/>
     <use style="fill:#bf00bf;stroke:#bf00bf;" x="261.277727" xlink:href="#m210a5e1b32" y="274.396549"/>
     <use style="fill:#bf00bf;stroke:#bf00bf;" x="308.035" xlink:href="#m210a5e1b32" y="238.604963"/>
     <use style="fill:#bf00bf;stroke:#bf00bf;" x="354.792273" xlink:href="#m210a5e1b32" y="200.414733"/>
     <use style="fill:#bf00bf;stroke:#bf00bf;" x="401.549545" xlink:href="#m210a5e1b32" y="164.186157"/>
     <use style="fill:#bf00bf;stroke:#bf00bf;" x="448.306818" xlink:href="#m210a5e1b32" y="122.268517"/>
     <use style="fill:#bf00bf;stroke:#bf00bf;" x="495.064091" xlink:href="#m210a5e1b32" y="78.725203"/>
     <use style="fill:#bf00bf;stroke:#bf00bf;" x="541.821364" xlink:href="#m210a5e1b32" y="33.480853"/>
    </g>
   </g>
   <g id="line2d_80">
    <g clip-path="url(#p51461f153d)">
     <use style="fill:#bf00bf;stroke:#bf00bf;" x="74.248636" xlink:href="#m210a5e1b32" y="334.690345"/>
     <use style="fill:#bf00bf;stroke:#bf00bf;" x="121.005909" xlink:href="#m210a5e1b32" y="326.868022"/>
     <use style="fill:#bf00bf;stroke:#bf00bf;" x="167.763182" xlink:href="#m210a5e1b32" y="312.971808"/>
     <use style="fill:#bf00bf;stroke:#bf00bf;" x="214.520455" xlink:href="#m210a5e1b32" y="297.277856"/>
     <use style="fill:#bf00bf;stroke:#bf00bf;" x="261.277727" xlink:href="#m210a5e1b32" y="273.71338"/>
     <use style="fill:#bf00bf;stroke:#bf00bf;" x="308.035" xlink:href="#m210a5e1b32" y="235.137565"/>
     <use style="fill:#bf00bf;stroke:#bf00bf;" x="354.792273" xlink:href="#m210a5e1b32" y="200.095313"/>
     <use style="fill:#bf00bf;stroke:#bf00bf;" x="401.549545" xlink:href="#m210a5e1b32" y="162.22336"/>
     <use style="fill:#bf00bf;stroke:#bf00bf;" x="448.306818" xlink:href="#m210a5e1b32" y="122.12782"/>
     <use style="fill:#bf00bf;stroke:#bf00bf;" x="495.064091" xlink:href="#m210a5e1b32" y="76.711739"/>
     <use style="fill:#bf00bf;stroke:#bf00bf;" x="541.821364" xlink:href="#m210a5e1b32" y="32.654602"/>
    </g>
   </g>
   <g id="line2d_81">
    <defs>
     <path d="M 2 0 
L -2 -0 
" id="mfdfa2ebff9" style="stroke:#ff00ff;"/>
    </defs>
    <g clip-path="url(#p51461f153d)">
     <use style="fill:#ff00ff;stroke:#ff00ff;" x="74.248636" xlink:href="#mfdfa2ebff9" y="343.606605"/>
     <use style="fill:#ff00ff;stroke:#ff00ff;" x="121.005909" xlink:href="#mfdfa2ebff9" y="335.926396"/>
     <use style="fill:#ff00ff;stroke:#ff00ff;" x="167.763182" xlink:href="#mfdfa2ebff9" y="320.120628"/>
     <use style="fill:#ff00ff;stroke:#ff00ff;" x="214.520455" xlink:href="#mfdfa2ebff9" y="299.961989"/>
     <use style="fill:#ff00ff;stroke:#ff00ff;" x="261.277727" xlink:href="#mfdfa2ebff9" y="274.074792"/>
     <use style="fill:#ff00ff;stroke:#ff00ff;" x="308.035" xlink:href="#mfdfa2ebff9" y="235.779141"/>
     <use style="fill:#ff00ff;stroke:#ff00ff;" x="354.792273" xlink:href="#mfdfa2ebff9" y="201.11519"/>
     <use style="fill:#ff00ff;stroke:#ff00ff;" x="401.549545" xlink:href="#mfdfa2ebff9" y="162.16145"/>
     <use style="fill:#ff00ff;stroke:#ff00ff;" x="448.306818" xlink:href="#mfdfa2ebff9" y="120.936928"/>
     <use style="fill:#ff00ff;stroke:#ff00ff;" x="495.064091" xlink:href="#mfdfa2ebff9" y="77.464622"/>
     <use style="fill:#ff00ff;stroke:#ff00ff;" x="541.821364" xlink:href="#mfdfa2ebff9" y="31.916289"/>
    </g>
   </g>
   <g id="line2d_82">
    <g clip-path="url(#p51461f153d)">
     <use style="fill:#ff00ff;stroke:#ff00ff;" x="74.248636" xlink:href="#mfdfa2ebff9" y="336.760067"/>
     <use style="fill:#ff00ff;stroke:#ff00ff;" x="121.005909" xlink:href="#mfdfa2ebff9" y="325.503833"/>
     <use style="fill:#ff00ff;stroke:#ff00ff;" x="167.763182" xlink:href="#mfdfa2ebff9" y="310.760771"/>
     <use style="fill:#ff00ff;stroke:#ff00ff;" x="214.520455" xlink:href="#mfdfa2ebff9" y="293.98344"/>
     <use style="fill:#ff00ff;stroke:#ff00ff;" x="261.277727" xlink:href="#mfdfa2ebff9" y="269.119597"/>
     <use style="fill:#ff00ff;stroke:#ff00ff;" x="308.035" xlink:href="#mfdfa2ebff9" y="232.567466"/>
     <use style="fill:#ff00ff;stroke:#ff00ff;" x="354.792273" xlink:href="#mfdfa2ebff9" y="198.53303"/>
     <use style="fill:#ff00ff;stroke:#ff00ff;" x="401.549545" xlink:href="#mfdfa2ebff9" y="161.919751"/>
     <use style="fill:#ff00ff;stroke:#ff00ff;" x="448.306818" xlink:href="#mfdfa2ebff9" y="120.129379"/>
     <use style="fill:#ff00ff;stroke:#ff00ff;" x="495.064091" xlink:href="#mfdfa2ebff9" y="75.419143"/>
     <use style="fill:#ff00ff;stroke:#ff00ff;" x="541.821364" xlink:href="#mfdfa2ebff9" y="31.003844"/>
    </g>
   </g>
   <g id="line2d_83">
    <defs>
     <path d="M 2 0 
L -2 -0 
" id="mb69a98db0d" style="stroke:#000000;"/>
    </defs>
    <g clip-path="url(#p51461f153d)">
     <use style="stroke:#000000;" x="92.684567" xlink:href="#mb69a98db0d" y="31105"/>
     <use style="stroke:#000000;" x="121.005909" xlink:href="#mb69a98db0d" y="346.999849"/>
     <use style="stroke:#000000;" x="149.327251" xlink:href="#mb69a98db0d" y="31105"/>
     <use style="stroke:#000000;" x="186.183472" xlink:href="#mb69a98db0d" y="31105"/>
     <use style="stroke:#000000;" x="214.520455" xlink:href="#mb69a98db0d" y="303.882871"/>
     <use style="stroke:#000000;" x="261.277727" xlink:href="#mb69a98db0d" y="269.058729"/>
     <use style="stroke:#000000;" x="308.035" xlink:href="#mb69a98db0d" y="238.164687"/>
     <use style="stroke:#000000;" x="354.792273" xlink:href="#mb69a98db0d" y="200.100888"/>
     <use style="stroke:#000000;" x="401.549545" xlink:href="#mb69a98db0d" y="160.335437"/>
     <use style="stroke:#000000;" x="448.306818" xlink:href="#mb69a98db0d" y="118.969815"/>
     <use style="stroke:#000000;" x="495.064091" xlink:href="#mb69a98db0d" y="74.239885"/>
     <use style="stroke:#000000;" x="541.821364" xlink:href="#mb69a98db0d" y="29.800453"/>
    </g>
   </g>
   <g id="line2d_84">
    <g clip-path="url(#p51461f153d)">
     <use style="stroke:#000000;" x="74.248636" xlink:href="#mb69a98db0d" y="288.964228"/>
     <use style="stroke:#000000;" x="121.005909" xlink:href="#mb69a98db0d" y="342.396154"/>
     <use style="stroke:#000000;" x="167.763182" xlink:href="#mb69a98db0d" y="299.995134"/>
     <use style="stroke:#000000;" x="214.520455" xlink:href="#mb69a98db0d" y="303.05797"/>
     <use style="stroke:#000000;" x="261.277727" xlink:href="#mb69a98db0d" y="268.882892"/>
     <use style="stroke:#000000;" x="308.035" xlink:href="#mb69a98db0d" y="236.880287"/>
     <use style="stroke:#000000;" x="354.792273" xlink:href="#mb69a98db0d" y="199.20179"/>
     <use style="stroke:#000000;" x="401.549545" xlink:href="#mb69a98db0d" y="158.966142"/>
     <use style="stroke:#000000;" x="448.306818" xlink:href="#mb69a98db0d" y="116.458391"/>
     <use style="stroke:#000000;" x="495.064091" xlink:href="#mb69a98db0d" y="72.034129"/>
     <use style="stroke:#000000;" x="541.821364" xlink:href="#mb69a98db0d" y="28.915116"/>
    </g>
   </g>
   <g id="line2d_85">
    <path clip-path="url(#p51461f153d)" d="M 74.248636 366.158775 
L 121.005909 350.142564 
L 167.763182 325.516805 
L 214.520455 296.955146 
L 261.277727 263.762741 
L 308.035 227.905462 
L 354.792273 193.027557 
L 401.549545 158.369325 
L 448.306818 118.441137 
L 495.064091 72.708206 
L 541.821364 29.062777 
" style="fill:none;stroke:#ff0000;stroke-linecap:square;stroke-width:1.5;"/>
   </g>
   <g id="line2d_86">
    <path clip-path="url(#p51461f153d)" d="M 74.248636 284.258029 
L 121.005909 309.656654 
L 167.763182 295.459936 
L 214.520455 281.00855 
L 261.277727 261.949173 
L 308.035 227.654165 
L 354.792273 192.922363 
L 401.549545 157.686128 
L 448.306818 118.572284 
L 495.064091 72.932022 
L 541.821364 28.918464 
" style="fill:none;stroke:#0000ff;stroke-linecap:square;stroke-width:1.5;"/>
   </g>
   <g id="line2d_87">
    <path clip-path="url(#p51461f153d)" d="M 74.248636 338.798683 
L 121.005909 332.624367 
L 167.763182 316.667992 
L 214.520455 300.10601 
L 261.277727 274.052329 
L 308.035 236.80344 
L 354.792273 200.254447 
L 401.549545 163.18301 
L 448.306818 122.198056 
L 495.064091 77.695586 
L 541.821364 33.063872 
" style="fill:none;stroke:#bf00bf;stroke-linecap:square;stroke-width:1.5;"/>
   </g>
   <g id="line2d_88">
    <path clip-path="url(#p51461f153d)" d="M 74.248636 339.919682 
L 121.005909 330.107269 
L 167.763182 314.949628 
L 214.520455 296.771485 
L 261.277727 271.458828 
L 308.035 234.115107 
L 354.792273 199.78648 
L 401.549545 162.04027 
L 448.306818 120.529471 
L 495.064091 76.418264 
L 541.821364 31.455365 
" style="fill:none;stroke:#ff00ff;stroke-linecap:square;stroke-width:1.5;"/>
   </g>
   <g id="line2d_89">
    <path clip-path="url(#p51461f153d)" d="M 74.248636 339.727186 
L 121.005909 344.578535 
L 167.763182 328.418956 
L 214.520455 303.466578 
L 261.277727 268.970636 
L 308.035 237.513172 
L 354.792273 199.646775 
L 401.549545 159.640203 
L 448.306818 117.678505 
L 495.064091 73.109544 
L 541.821364 29.353359 
" style="fill:none;stroke:#000000;stroke-linecap:square;stroke-width:1.5;"/>
   </g>
   <g id="patch_3">
    <path d="M 50.87 390.04 
L 50.87 10.8 
" style="fill:none;stroke:#000000;stroke-linecap:square;stroke-linejoin:miter;stroke-width:0.8;"/>
   </g>
   <g id="patch_4">
    <path d="M 565.2 390.04 
L 565.2 10.8 
" style="fill:none;stroke:#000000;stroke-linecap:square;stroke-linejoin:miter;stroke-width:0.8;"/>
   </g>
   <g id="patch_5">
    <path d="M 50.87 390.04 
L 565.2 390.04 
" style="fill:none;stroke:#000000;stroke-linecap:square;stroke-linejoin:miter;stroke-width:0.8;"/>
   </g>
   <g id="patch_6">
    <path d="M 50.87 10.8 
L 565.2 10.8 
" style="fill:none;stroke:#000000;stroke-linecap:square;stroke-linejoin:miter;stroke-width:0.8;"/>
   </g>
   <g id="legend_1">
    <g id="patch_7">
     <path d="M 57.87 92.190625 
L 151.474688 92.190625 
Q 153.474688 92.190625 153.474688 90.190625 
L 153.474688 17.8 
Q 153.474688 15.8 151.474688 15.8 
L 57.87 15.8 
Q 55.87 15.8 55.87 17.8 
L 55.87 90.190625 
Q 55.87 92.190625 57.87 92.190625 
z
" style="fill:#ffffff;opacity:0.8;stroke:#cccccc;stroke-linejoin:miter;"/>
    </g>
    <g id="LineCollection_6">
     <path d="M 69.87 28.898438 
L 69.87 18.898438 
" style="fill:none;stroke:#ff0000;stroke-width:1.5;"/>
    </g>
    <g id="line2d_90">
     <g>
      <use style="fill:#ff0000;stroke:#ff0000;" x="69.87" xlink:href="#mdbbf62ee94" y="28.898438"/>
     </g>
    </g>
    <g id="line2d_91">
     <g>
      <use style="fill:#ff0000;stroke:#ff0000;" x="69.87" xlink:href="#mdbbf62ee94" y="18.898438"/>
     </g>
    </g>
    <g id="line2d_92">
     <path d="M 59.87 23.898438 
L 79.87 23.898438 
" style="fill:none;stroke:#ff0000;stroke-linecap:square;stroke-width:1.5;"/>
    </g>
    <g id="line2d_93"/>
    <g id="text_16">
     <!-- Numba Para -->
     <defs>
      <path d="M 9.8125 72.90625 
L 23.09375 72.90625 
L 55.421875 11.921875 
L 55.421875 72.90625 
L 64.984375 72.90625 
L 64.984375 0 
L 51.703125 0 
L 19.390625 60.984375 
L 19.390625 0 
L 9.8125 0 
z
" id="DejaVuSans-78"/>
      <path d="M 34.28125 27.484375 
Q 23.390625 27.484375 19.1875 25 
Q 14.984375 22.515625 14.984375 16.5 
Q 14.984375 11.71875 18.140625 8.90625 
Q 21.296875 6.109375 26.703125 6.109375 
Q 34.1875 6.109375 38.703125 11.40625 
Q 43.21875 16.703125 43.21875 25.484375 
L 43.21875 27.484375 
z
M 52.203125 31.203125 
L 52.203125 0 
L 43.21875 0 
L 43.21875 8.296875 
Q 40.140625 3.328125 35.546875 0.953125 
Q 30.953125 -1.421875 24.3125 -1.421875 
Q 15.921875 -1.421875 10.953125 3.296875 
Q 6 8.015625 6 15.921875 
Q 6 25.140625 12.171875 29.828125 
Q 18.359375 34.515625 30.609375 34.515625 
L 43.21875 34.515625 
L 43.21875 35.40625 
Q 43.21875 41.609375 39.140625 45 
Q 35.0625 48.390625 27.6875 48.390625 
Q 23 48.390625 18.546875 47.265625 
Q 14.109375 46.140625 10.015625 43.890625 
L 10.015625 52.203125 
Q 14.9375 54.109375 19.578125 55.046875 
Q 24.21875 56 28.609375 56 
Q 40.484375 56 46.34375 49.84375 
Q 52.203125 43.703125 52.203125 31.203125 
z
" id="DejaVuSans-97"/>
      <path d="M 19.671875 64.796875 
L 19.671875 37.40625 
L 32.078125 37.40625 
Q 38.96875 37.40625 42.71875 40.96875 
Q 46.484375 44.53125 46.484375 51.125 
Q 46.484375 57.671875 42.71875 61.234375 
Q 38.96875 64.796875 32.078125 64.796875 
z
M 9.8125 72.90625 
L 32.078125 72.90625 
Q 44.34375 72.90625 50.609375 67.359375 
Q 56.890625 61.8125 56.890625 51.125 
Q 56.890625 40.328125 50.609375 34.8125 
Q 44.34375 29.296875 32.078125 29.296875 
L 19.671875 29.296875 
L 19.671875 0 
L 9.8125 0 
z
" id="DejaVuSans-80"/>
     </defs>
     <g transform="translate(87.87 27.398438)scale(0.1 -0.1)">
      <use xlink:href="#DejaVuSans-78"/>
      <use x="74.804688" xlink:href="#DejaVuSans-117"/>
      <use x="138.183594" xlink:href="#DejaVuSans-109"/>
      <use x="235.595703" xlink:href="#DejaVuSans-98"/>
      <use x="299.072266" xlink:href="#DejaVuSans-97"/>
      <use x="360.351562" xlink:href="#DejaVuSans-32"/>
      <use x="392.138672" xlink:href="#DejaVuSans-80"/>
      <use x="452.378906" xlink:href="#DejaVuSans-97"/>
      <use x="513.658203" xlink:href="#DejaVuSans-114"/>
      <use x="554.771484" xlink:href="#DejaVuSans-97"/>
     </g>
    </g>
    <g id="LineCollection_7">
     <path d="M 69.87 43.576563 
L 69.87 33.576563 
" style="fill:none;stroke:#0000ff;stroke-width:1.5;"/>
    </g>
    <g id="line2d_94">
     <g>
      <use style="fill:#0000ff;stroke:#0000ff;" x="69.87" xlink:href="#m7a31cb387a" y="43.576563"/>
     </g>
    </g>
    <g id="line2d_95">
     <g>
      <use style="fill:#0000ff;stroke:#0000ff;" x="69.87" xlink:href="#m7a31cb387a" y="33.576563"/>
     </g>
    </g>
    <g id="line2d_96">
     <path d="M 59.87 38.576563 
L 79.87 38.576563 
" style="fill:none;stroke:#0000ff;stroke-linecap:square;stroke-width:1.5;"/>
    </g>
    <g id="line2d_97"/>
    <g id="text_17">
     <!-- Numba Pool -->
     <defs>
      <path d="M 9.421875 75.984375 
L 18.40625 75.984375 
L 18.40625 0 
L 9.421875 0 
z
" id="DejaVuSans-108"/>
     </defs>
     <g transform="translate(87.87 42.076563)scale(0.1 -0.1)">
      <use xlink:href="#DejaVuSans-78"/>
      <use x="74.804688" xlink:href="#DejaVuSans-117"/>
      <use x="138.183594" xlink:href="#DejaVuSans-109"/>
      <use x="235.595703" xlink:href="#DejaVuSans-98"/>
      <use x="299.072266" xlink:href="#DejaVuSans-97"/>
      <use x="360.351562" xlink:href="#DejaVuSans-32"/>
      <use x="392.138672" xlink:href="#DejaVuSans-80"/>
      <use x="452.394531" xlink:href="#DejaVuSans-111"/>
      <use x="513.576172" xlink:href="#DejaVuSans-111"/>
      <use x="574.757812" xlink:href="#DejaVuSans-108"/>
     </g>
    </g>
    <g id="LineCollection_8">
     <path d="M 69.87 58.254687 
L 69.87 48.254687 
" style="fill:none;stroke:#bf00bf;stroke-width:1.5;"/>
    </g>
    <g id="line2d_98">
     <g>
      <use style="fill:#bf00bf;stroke:#bf00bf;" x="69.87" xlink:href="#m210a5e1b32" y="58.254687"/>
     </g>
    </g>
    <g id="line2d_99">
     <g>
      <use style="fill:#bf00bf;stroke:#bf00bf;" x="69.87" xlink:href="#m210a5e1b32" y="48.254687"/>
     </g>
    </g>
    <g id="line2d_100">
     <path d="M 59.87 53.254687 
L 79.87 53.254687 
" style="fill:none;stroke:#bf00bf;stroke-linecap:square;stroke-width:1.5;"/>
    </g>
    <g id="line2d_101"/>
    <g id="text_18">
     <!-- C++ stack -->
     <defs>
      <path d="M 64.40625 67.28125 
L 64.40625 56.890625 
Q 59.421875 61.53125 53.78125 63.8125 
Q 48.140625 66.109375 41.796875 66.109375 
Q 29.296875 66.109375 22.65625 58.46875 
Q 16.015625 50.828125 16.015625 36.375 
Q 16.015625 21.96875 22.65625 14.328125 
Q 29.296875 6.6875 41.796875 6.6875 
Q 48.140625 6.6875 53.78125 8.984375 
Q 59.421875 11.28125 64.40625 15.921875 
L 64.40625 5.609375 
Q 59.234375 2.09375 53.4375 0.328125 
Q 47.65625 -1.421875 41.21875 -1.421875 
Q 24.65625 -1.421875 15.125 8.703125 
Q 5.609375 18.84375 5.609375 36.375 
Q 5.609375 53.953125 15.125 64.078125 
Q 24.65625 74.21875 41.21875 74.21875 
Q 47.75 74.21875 53.53125 72.484375 
Q 59.328125 70.75 64.40625 67.28125 
z
" id="DejaVuSans-67"/>
      <path d="M 46 62.703125 
L 46 35.5 
L 73.1875 35.5 
L 73.1875 27.203125 
L 46 27.203125 
L 46 0 
L 37.796875 0 
L 37.796875 27.203125 
L 10.59375 27.203125 
L 10.59375 35.5 
L 37.796875 35.5 
L 37.796875 62.703125 
z
" id="DejaVuSans-43"/>
      <path d="M 48.78125 52.59375 
L 48.78125 44.1875 
Q 44.96875 46.296875 41.140625 47.34375 
Q 37.3125 48.390625 33.40625 48.390625 
Q 24.65625 48.390625 19.8125 42.84375 
Q 14.984375 37.3125 14.984375 27.296875 
Q 14.984375 17.28125 19.8125 11.734375 
Q 24.65625 6.203125 33.40625 6.203125 
Q 37.3125 6.203125 41.140625 7.25 
Q 44.96875 8.296875 48.78125 10.40625 
L 48.78125 2.09375 
Q 45.015625 0.34375 40.984375 -0.53125 
Q 36.96875 -1.421875 32.421875 -1.421875 
Q 20.0625 -1.421875 12.78125 6.34375 
Q 5.515625 14.109375 5.515625 27.296875 
Q 5.515625 40.671875 12.859375 48.328125 
Q 20.21875 56 33.015625 56 
Q 37.15625 56 41.109375 55.140625 
Q 45.0625 54.296875 48.78125 52.59375 
z
" id="DejaVuSans-99"/>
      <path d="M 9.078125 75.984375 
L 18.109375 75.984375 
L 18.109375 31.109375 
L 44.921875 54.6875 
L 56.390625 54.6875 
L 27.390625 29.109375 
L 57.625 0 
L 45.90625 0 
L 18.109375 26.703125 
L 18.109375 0 
L 9.078125 0 
z
" id="DejaVuSans-107"/>
     </defs>
     <g transform="translate(87.87 56.754687)scale(0.1 -0.1)">
      <use xlink:href="#DejaVuSans-67"/>
      <use x="69.824219" xlink:href="#DejaVuSans-43"/>
      <use x="153.613281" xlink:href="#DejaVuSans-43"/>
      <use x="237.402344" xlink:href="#DejaVuSans-32"/>
      <use x="269.189453" xlink:href="#DejaVuSans-115"/>
      <use x="321.289062" xlink:href="#DejaVuSans-116"/>
      <use x="360.498047" xlink:href="#DejaVuSans-97"/>
      <use x="421.777344" xlink:href="#DejaVuSans-99"/>
      <use x="476.757812" xlink:href="#DejaVuSans-107"/>
     </g>
    </g>
    <g id="LineCollection_9">
     <path d="M 69.87 72.932813 
L 69.87 62.932813 
" style="fill:none;stroke:#ff00ff;stroke-width:1.5;"/>
    </g>
    <g id="line2d_102">
     <g>
      <use style="fill:#ff00ff;stroke:#ff00ff;" x="69.87" xlink:href="#mfdfa2ebff9" y="72.932813"/>
     </g>
    </g>
    <g id="line2d_103">
     <g>
      <use style="fill:#ff00ff;stroke:#ff00ff;" x="69.87" xlink:href="#mfdfa2ebff9" y="62.932813"/>
     </g>
    </g>
    <g id="line2d_104">
     <path d="M 59.87 67.932813 
L 79.87 67.932813 
" style="fill:none;stroke:#ff00ff;stroke-linecap:square;stroke-width:1.5;"/>
    </g>
    <g id="line2d_105"/>
    <g id="text_19">
     <!-- C++ heap -->
     <defs>
      <path d="M 54.890625 33.015625 
L 54.890625 0 
L 45.90625 0 
L 45.90625 32.71875 
Q 45.90625 40.484375 42.875 44.328125 
Q 39.84375 48.1875 33.796875 48.1875 
Q 26.515625 48.1875 22.3125 43.546875 
Q 18.109375 38.921875 18.109375 30.90625 
L 18.109375 0 
L 9.078125 0 
L 9.078125 75.984375 
L 18.109375 75.984375 
L 18.109375 46.1875 
Q 21.34375 51.125 25.703125 53.5625 
Q 30.078125 56 35.796875 56 
Q 45.21875 56 50.046875 50.171875 
Q 54.890625 44.34375 54.890625 33.015625 
z
" id="DejaVuSans-104"/>
      <path d="M 18.109375 8.203125 
L 18.109375 -20.796875 
L 9.078125 -20.796875 
L 9.078125 54.6875 
L 18.109375 54.6875 
L 18.109375 46.390625 
Q 20.953125 51.265625 25.265625 53.625 
Q 29.59375 56 35.59375 56 
Q 45.5625 56 51.78125 48.09375 
Q 58.015625 40.1875 58.015625 27.296875 
Q 58.015625 14.40625 51.78125 6.484375 
Q 45.5625 -1.421875 35.59375 -1.421875 
Q 29.59375 -1.421875 25.265625 0.953125 
Q 20.953125 3.328125 18.109375 8.203125 
z
M 48.6875 27.296875 
Q 48.6875 37.203125 44.609375 42.84375 
Q 40.53125 48.484375 33.40625 48.484375 
Q 26.265625 48.484375 22.1875 42.84375 
Q 18.109375 37.203125 18.109375 27.296875 
Q 18.109375 17.390625 22.1875 11.75 
Q 26.265625 6.109375 33.40625 6.109375 
Q 40.53125 6.109375 44.609375 11.75 
Q 48.6875 17.390625 48.6875 27.296875 
z
" id="DejaVuSans-112"/>
     </defs>
     <g transform="translate(87.87 71.432813)scale(0.1 -0.1)">
      <use xlink:href="#DejaVuSans-67"/>
      <use x="69.824219" xlink:href="#DejaVuSans-43"/>
      <use x="153.613281" xlink:href="#DejaVuSans-43"/>
      <use x="237.402344" xlink:href="#DejaVuSans-32"/>
      <use x="269.189453" xlink:href="#DejaVuSans-104"/>
      <use x="332.568359" xlink:href="#DejaVuSans-101"/>
      <use x="394.091797" xlink:href="#DejaVuSans-97"/>
      <use x="455.371094" xlink:href="#DejaVuSans-112"/>
     </g>
    </g>
    <g id="LineCollection_10">
     <path d="M 69.87 87.610937 
L 69.87 77.610937 
" style="fill:none;stroke:#000000;stroke-width:1.5;"/>
    </g>
    <g id="line2d_106">
     <g>
      <use style="stroke:#000000;" x="69.87" xlink:href="#mb69a98db0d" y="87.610937"/>
     </g>
    </g>
    <g id="line2d_107">
     <g>
      <use style="stroke:#000000;" x="69.87" xlink:href="#mb69a98db0d" y="77.610937"/>
     </g>
    </g>
    <g id="line2d_108">
     <path d="M 59.87 82.610937 
L 79.87 82.610937 
" style="fill:none;stroke:#000000;stroke-linecap:square;stroke-width:1.5;"/>
    </g>
    <g id="line2d_109"/>
    <g id="text_20">
     <!-- Julia -->
     <defs>
      <path d="M 9.8125 72.90625 
L 19.671875 72.90625 
L 19.671875 5.078125 
Q 19.671875 -8.109375 14.671875 -14.0625 
Q 9.671875 -20.015625 -1.421875 -20.015625 
L -5.171875 -20.015625 
L -5.171875 -11.71875 
L -2.09375 -11.71875 
Q 4.4375 -11.71875 7.125 -8.046875 
Q 9.8125 -4.390625 9.8125 5.078125 
z
" id="DejaVuSans-74"/>
     </defs>
     <g transform="translate(87.87 86.110937)scale(0.1 -0.1)">
      <use xlink:href="#DejaVuSans-74"/>
      <use x="29.492188" xlink:href="#DejaVuSans-117"/>
      <use x="92.871094" xlink:href="#DejaVuSans-108"/>
      <use x="120.654297" xlink:href="#DejaVuSans-105"/>
      <use x="148.4375" xlink:href="#DejaVuSans-97"/>
     </g>
    </g>
   </g>
  </g>
 </g>
 <defs>
  <clipPath id="p51461f153d">
   <rect height="379.24" width="514.33" x="50.87" y="10.8"/>
  </clipPath>
 </defs>
</svg>
