<?xml version="1.0" encoding="utf-8" standalone="no"?>
<!DOCTYPE svg PUBLIC "-//W3C//DTD SVG 1.1//EN"
  "http://www.w3.org/Graphics/SVG/1.1/DTD/svg11.dtd">
<!-- Created with matplotlib (https://matplotlib.org/) -->
<svg height="432pt" version="1.1" viewBox="0 0 576 432" width="576pt" xmlns="http://www.w3.org/2000/svg" xmlns:xlink="http://www.w3.org/1999/xlink">
 <defs>
  <style type="text/css">
*{stroke-linecap:butt;stroke-linejoin:round;}
  </style>
 </defs>
 <g id="figure_1">
  <g id="patch_1">
   <path d="M 0 432 
L 576 432 
L 576 0 
L 0 0 
z
" style="fill:#ffffff;"/>
  </g>
  <g id="axes_1">
   <g id="patch_2">
    <path d="M 50.87 390.04 
L 565.2 390.04 
L 565.2 10.8 
L 50.87 10.8 
z
" style="fill:#ffffff;"/>
   </g>
   <g id="matplotlib.axis_1">
    <g id="xtick_1">
     <g id="line2d_1">
      <defs>
       <path d="M 0 0 
L 0 3.5 
" id="mb23f54daa8" style="stroke:#000000;stroke-width:0.8;"/>
      </defs>
      <g>
       <use style="stroke:#000000;stroke-width:0.8;" x="74.248636" xlink:href="#mb23f54daa8" y="390.04"/>
      </g>
     </g>
     <g id="text_1">
      <!-- 8 -->
      <defs>
       <path d="M 31.78125 34.625 
Q 24.75 34.625 20.71875 30.859375 
Q 16.703125 27.09375 16.703125 20.515625 
Q 16.703125 13.921875 20.71875 10.15625 
Q 24.75 6.390625 31.78125 6.390625 
Q 38.8125 6.390625 42.859375 10.171875 
Q 46.921875 13.96875 46.921875 20.515625 
Q 46.921875 27.09375 42.890625 30.859375 
Q 38.875 34.625 31.78125 34.625 
z
M 21.921875 38.8125 
Q 15.578125 40.375 12.03125 44.71875 
Q 8.5 49.078125 8.5 55.328125 
Q 8.5 64.0625 14.71875 69.140625 
Q 20.953125 74.21875 31.78125 74.21875 
Q 42.671875 74.21875 48.875 69.140625 
Q 55.078125 64.0625 55.078125 55.328125 
Q 55.078125 49.078125 51.53125 44.71875 
Q 48 40.375 41.703125 38.8125 
Q 48.828125 37.15625 52.796875 32.3125 
Q 56.78125 27.484375 56.78125 20.515625 
Q 56.78125 9.90625 50.3125 4.234375 
Q 43.84375 -1.421875 31.78125 -1.421875 
Q 19.734375 -1.421875 13.25 4.234375 
Q 6.78125 9.90625 6.78125 20.515625 
Q 6.78125 27.484375 10.78125 32.3125 
Q 14.796875 37.15625 21.921875 38.8125 
z
M 18.3125 54.390625 
Q 18.3125 48.734375 21.84375 45.5625 
Q 25.390625 42.390625 31.78125 42.390625 
Q 38.140625 42.390625 41.71875 45.5625 
Q 45.3125 48.734375 45.3125 54.390625 
Q 45.3125 60.0625 41.71875 63.234375 
Q 38.140625 66.40625 31.78125 66.40625 
Q 25.390625 66.40625 21.84375 63.234375 
Q 18.3125 60.0625 18.3125 54.390625 
z
" id="DejaVuSans-56"/>
      </defs>
      <g transform="translate(71.067386 404.638438)scale(0.1 -0.1)">
       <use xlink:href="#DejaVuSans-56"/>
      </g>
     </g>
    </g>
    <g id="xtick_2">
     <g id="line2d_2">
      <g>
       <use style="stroke:#000000;stroke-width:0.8;" x="132.695227" xlink:href="#mb23f54daa8" y="390.04"/>
      </g>
     </g>
     <g id="text_2">
      <!-- 9 -->
      <defs>
       <path d="M 10.984375 1.515625 
L 10.984375 10.5 
Q 14.703125 8.734375 18.5 7.8125 
Q 22.3125 6.890625 25.984375 6.890625 
Q 35.75 6.890625 40.890625 13.453125 
Q 46.046875 20.015625 46.78125 33.40625 
Q 43.953125 29.203125 39.59375 26.953125 
Q 35.25 24.703125 29.984375 24.703125 
Q 19.046875 24.703125 12.671875 31.3125 
Q 6.296875 37.9375 6.296875 49.421875 
Q 6.296875 60.640625 12.9375 67.421875 
Q 19.578125 74.21875 30.609375 74.21875 
Q 43.265625 74.21875 49.921875 64.515625 
Q 56.59375 54.828125 56.59375 36.375 
Q 56.59375 19.140625 48.40625 8.859375 
Q 40.234375 -1.421875 26.421875 -1.421875 
Q 22.703125 -1.421875 18.890625 -0.6875 
Q 15.09375 0.046875 10.984375 1.515625 
z
M 30.609375 32.421875 
Q 37.25 32.421875 41.125 36.953125 
Q 45.015625 41.5 45.015625 49.421875 
Q 45.015625 57.28125 41.125 61.84375 
Q 37.25 66.40625 30.609375 66.40625 
Q 23.96875 66.40625 20.09375 61.84375 
Q 16.21875 57.28125 16.21875 49.421875 
Q 16.21875 41.5 20.09375 36.953125 
Q 23.96875 32.421875 30.609375 32.421875 
z
" id="DejaVuSans-57"/>
      </defs>
      <g transform="translate(129.513977 404.638438)scale(0.1 -0.1)">
       <use xlink:href="#DejaVuSans-57"/>
      </g>
     </g>
    </g>
    <g id="xtick_3">
     <g id="line2d_3">
      <g>
       <use style="stroke:#000000;stroke-width:0.8;" x="191.141818" xlink:href="#mb23f54daa8" y="390.04"/>
      </g>
     </g>
     <g id="text_3">
      <!-- 10 -->
      <defs>
       <path d="M 12.40625 8.296875 
L 28.515625 8.296875 
L 28.515625 63.921875 
L 10.984375 60.40625 
L 10.984375 69.390625 
L 28.421875 72.90625 
L 38.28125 72.90625 
L 38.28125 8.296875 
L 54.390625 8.296875 
L 54.390625 0 
L 12.40625 0 
z
" id="DejaVuSans-49"/>
       <path d="M 31.78125 66.40625 
Q 24.171875 66.40625 20.328125 58.90625 
Q 16.5 51.421875 16.5 36.375 
Q 16.5 21.390625 20.328125 13.890625 
Q 24.171875 6.390625 31.78125 6.390625 
Q 39.453125 6.390625 43.28125 13.890625 
Q 47.125 21.390625 47.125 36.375 
Q 47.125 51.421875 43.28125 58.90625 
Q 39.453125 66.40625 31.78125 66.40625 
z
M 31.78125 74.21875 
Q 44.046875 74.21875 50.515625 64.515625 
Q 56.984375 54.828125 56.984375 36.375 
Q 56.984375 17.96875 50.515625 8.265625 
Q 44.046875 -1.421875 31.78125 -1.421875 
Q 19.53125 -1.421875 13.0625 8.265625 
Q 6.59375 17.96875 6.59375 36.375 
Q 6.59375 54.828125 13.0625 64.515625 
Q 19.53125 74.21875 31.78125 74.21875 
z
" id="DejaVuSans-48"/>
      </defs>
      <g transform="translate(184.779318 404.638438)scale(0.1 -0.1)">
       <use xlink:href="#DejaVuSans-49"/>
       <use x="63.623047" xlink:href="#DejaVuSans-48"/>
      </g>
     </g>
    </g>
    <g id="xtick_4">
     <g id="line2d_4">
      <g>
       <use style="stroke:#000000;stroke-width:0.8;" x="249.588409" xlink:href="#mb23f54daa8" y="390.04"/>
      </g>
     </g>
     <g id="text_4">
      <!-- 11 -->
      <g transform="translate(243.225909 404.638438)scale(0.1 -0.1)">
       <use xlink:href="#DejaVuSans-49"/>
       <use x="63.623047" xlink:href="#DejaVuSans-49"/>
      </g>
     </g>
    </g>
    <g id="xtick_5">
     <g id="line2d_5">
      <g>
       <use style="stroke:#000000;stroke-width:0.8;" x="308.035" xlink:href="#mb23f54daa8" y="390.04"/>
      </g>
     </g>
     <g id="text_5">
      <!-- 12 -->
      <defs>
       <path d="M 19.1875 8.296875 
L 53.609375 8.296875 
L 53.609375 0 
L 7.328125 0 
L 7.328125 8.296875 
Q 12.9375 14.109375 22.625 23.890625 
Q 32.328125 33.6875 34.8125 36.53125 
Q 39.546875 41.84375 41.421875 45.53125 
Q 43.3125 49.21875 43.3125 52.78125 
Q 43.3125 58.59375 39.234375 62.25 
Q 35.15625 65.921875 28.609375 65.921875 
Q 23.96875 65.921875 18.8125 64.3125 
Q 13.671875 62.703125 7.8125 59.421875 
L 7.8125 69.390625 
Q 13.765625 71.78125 18.9375 73 
Q 24.125 74.21875 28.421875 74.21875 
Q 39.75 74.21875 46.484375 68.546875 
Q 53.21875 62.890625 53.21875 53.421875 
Q 53.21875 48.921875 51.53125 44.890625 
Q 49.859375 40.875 45.40625 35.40625 
Q 44.1875 33.984375 37.640625 27.21875 
Q 31.109375 20.453125 19.1875 8.296875 
z
" id="DejaVuSans-50"/>
      </defs>
      <g transform="translate(301.6725 404.638438)scale(0.1 -0.1)">
       <use xlink:href="#DejaVuSans-49"/>
       <use x="63.623047" xlink:href="#DejaVuSans-50"/>
      </g>
     </g>
    </g>
    <g id="xtick_6">
     <g id="line2d_6">
      <g>
       <use style="stroke:#000000;stroke-width:0.8;" x="366.481591" xlink:href="#mb23f54daa8" y="390.04"/>
      </g>
     </g>
     <g id="text_6">
      <!-- 13 -->
      <defs>
       <path d="M 40.578125 39.3125 
Q 47.65625 37.796875 51.625 33 
Q 55.609375 28.21875 55.609375 21.1875 
Q 55.609375 10.40625 48.1875 4.484375 
Q 40.765625 -1.421875 27.09375 -1.421875 
Q 22.515625 -1.421875 17.65625 -0.515625 
Q 12.796875 0.390625 7.625 2.203125 
L 7.625 11.71875 
Q 11.71875 9.328125 16.59375 8.109375 
Q 21.484375 6.890625 26.8125 6.890625 
Q 36.078125 6.890625 40.9375 10.546875 
Q 45.796875 14.203125 45.796875 21.1875 
Q 45.796875 27.640625 41.28125 31.265625 
Q 36.765625 34.90625 28.71875 34.90625 
L 20.21875 34.90625 
L 20.21875 43.015625 
L 29.109375 43.015625 
Q 36.375 43.015625 40.234375 45.921875 
Q 44.09375 48.828125 44.09375 54.296875 
Q 44.09375 59.90625 40.109375 62.90625 
Q 36.140625 65.921875 28.71875 65.921875 
Q 24.65625 65.921875 20.015625 65.03125 
Q 15.375 64.15625 9.8125 62.3125 
L 9.8125 71.09375 
Q 15.4375 72.65625 20.34375 73.4375 
Q 25.25 74.21875 29.59375 74.21875 
Q 40.828125 74.21875 47.359375 69.109375 
Q 53.90625 64.015625 53.90625 55.328125 
Q 53.90625 49.265625 50.4375 45.09375 
Q 46.96875 40.921875 40.578125 39.3125 
z
" id="DejaVuSans-51"/>
      </defs>
      <g transform="translate(360.119091 404.638438)scale(0.1 -0.1)">
       <use xlink:href="#DejaVuSans-49"/>
       <use x="63.623047" xlink:href="#DejaVuSans-51"/>
      </g>
     </g>
    </g>
    <g id="xtick_7">
     <g id="line2d_7">
      <g>
       <use style="stroke:#000000;stroke-width:0.8;" x="424.928182" xlink:href="#mb23f54daa8" y="390.04"/>
      </g>
     </g>
     <g id="text_7">
      <!-- 14 -->
      <defs>
       <path d="M 37.796875 64.3125 
L 12.890625 25.390625 
L 37.796875 25.390625 
z
M 35.203125 72.90625 
L 47.609375 72.90625 
L 47.609375 25.390625 
L 58.015625 25.390625 
L 58.015625 17.1875 
L 47.609375 17.1875 
L 47.609375 0 
L 37.796875 0 
L 37.796875 17.1875 
L 4.890625 17.1875 
L 4.890625 26.703125 
z
" id="DejaVuSans-52"/>
      </defs>
      <g transform="translate(418.565682 404.638438)scale(0.1 -0.1)">
       <use xlink:href="#DejaVuSans-49"/>
       <use x="63.623047" xlink:href="#DejaVuSans-52"/>
      </g>
     </g>
    </g>
    <g id="xtick_8">
     <g id="line2d_8">
      <g>
       <use style="stroke:#000000;stroke-width:0.8;" x="483.374773" xlink:href="#mb23f54daa8" y="390.04"/>
      </g>
     </g>
     <g id="text_8">
      <!-- 15 -->
      <defs>
       <path d="M 10.796875 72.90625 
L 49.515625 72.90625 
L 49.515625 64.59375 
L 19.828125 64.59375 
L 19.828125 46.734375 
Q 21.96875 47.46875 24.109375 47.828125 
Q 26.265625 48.1875 28.421875 48.1875 
Q 40.625 48.1875 47.75 41.5 
Q 54.890625 34.8125 54.890625 23.390625 
Q 54.890625 11.625 47.5625 5.09375 
Q 40.234375 -1.421875 26.90625 -1.421875 
Q 22.3125 -1.421875 17.546875 -0.640625 
Q 12.796875 0.140625 7.71875 1.703125 
L 7.71875 11.625 
Q 12.109375 9.234375 16.796875 8.0625 
Q 21.484375 6.890625 26.703125 6.890625 
Q 35.15625 6.890625 40.078125 11.328125 
Q 45.015625 15.765625 45.015625 23.390625 
Q 45.015625 31 40.078125 35.4375 
Q 35.15625 39.890625 26.703125 39.890625 
Q 22.75 39.890625 18.8125 39.015625 
Q 14.890625 38.140625 10.796875 36.28125 
z
" id="DejaVuSans-53"/>
      </defs>
      <g transform="translate(477.012273 404.638438)scale(0.1 -0.1)">
       <use xlink:href="#DejaVuSans-49"/>
       <use x="63.623047" xlink:href="#DejaVuSans-53"/>
      </g>
     </g>
    </g>
    <g id="xtick_9">
     <g id="line2d_9">
      <g>
       <use style="stroke:#000000;stroke-width:0.8;" x="541.821364" xlink:href="#mb23f54daa8" y="390.04"/>
      </g>
     </g>
     <g id="text_9">
      <!-- 16 -->
      <defs>
       <path d="M 33.015625 40.375 
Q 26.375 40.375 22.484375 35.828125 
Q 18.609375 31.296875 18.609375 23.390625 
Q 18.609375 15.53125 22.484375 10.953125 
Q 26.375 6.390625 33.015625 6.390625 
Q 39.65625 6.390625 43.53125 10.953125 
Q 47.40625 15.53125 47.40625 23.390625 
Q 47.40625 31.296875 43.53125 35.828125 
Q 39.65625 40.375 33.015625 40.375 
z
M 52.59375 71.296875 
L 52.59375 62.3125 
Q 48.875 64.0625 45.09375 64.984375 
Q 41.3125 65.921875 37.59375 65.921875 
Q 27.828125 65.921875 22.671875 59.328125 
Q 17.53125 52.734375 16.796875 39.40625 
Q 19.671875 43.65625 24.015625 45.921875 
Q 28.375 48.1875 33.59375 48.1875 
Q 44.578125 48.1875 50.953125 41.515625 
Q 57.328125 34.859375 57.328125 23.390625 
Q 57.328125 12.15625 50.6875 5.359375 
Q 44.046875 -1.421875 33.015625 -1.421875 
Q 20.359375 -1.421875 13.671875 8.265625 
Q 6.984375 17.96875 6.984375 36.375 
Q 6.984375 53.65625 15.1875 63.9375 
Q 23.390625 74.21875 37.203125 74.21875 
Q 40.921875 74.21875 44.703125 73.484375 
Q 48.484375 72.75 52.59375 71.296875 
z
" id="DejaVuSans-54"/>
      </defs>
      <g transform="translate(535.458864 404.638438)scale(0.1 -0.1)">
       <use xlink:href="#DejaVuSans-49"/>
       <use x="63.623047" xlink:href="#DejaVuSans-54"/>
      </g>
     </g>
    </g>
    <g id="text_10">
     <!-- number of queens -->
     <defs>
      <path d="M 54.890625 33.015625 
L 54.890625 0 
L 45.90625 0 
L 45.90625 32.71875 
Q 45.90625 40.484375 42.875 44.328125 
Q 39.84375 48.1875 33.796875 48.1875 
Q 26.515625 48.1875 22.3125 43.546875 
Q 18.109375 38.921875 18.109375 30.90625 
L 18.109375 0 
L 9.078125 0 
L 9.078125 54.6875 
L 18.109375 54.6875 
L 18.109375 46.1875 
Q 21.34375 51.125 25.703125 53.5625 
Q 30.078125 56 35.796875 56 
Q 45.21875 56 50.046875 50.171875 
Q 54.890625 44.34375 54.890625 33.015625 
z
" id="DejaVuSans-110"/>
      <path d="M 8.5 21.578125 
L 8.5 54.6875 
L 17.484375 54.6875 
L 17.484375 21.921875 
Q 17.484375 14.15625 20.5 10.265625 
Q 23.53125 6.390625 29.59375 6.390625 
Q 36.859375 6.390625 41.078125 11.03125 
Q 45.3125 15.671875 45.3125 23.6875 
L 45.3125 54.6875 
L 54.296875 54.6875 
L 54.296875 0 
L 45.3125 0 
L 45.3125 8.40625 
Q 42.046875 3.421875 37.71875 1 
Q 33.40625 -1.421875 27.6875 -1.421875 
Q 18.265625 -1.421875 13.375 4.4375 
Q 8.5 10.296875 8.5 21.578125 
z
M 31.109375 56 
z
" id="DejaVuSans-117"/>
      <path d="M 52 44.1875 
Q 55.375 50.25 60.0625 53.125 
Q 64.75 56 71.09375 56 
Q 79.640625 56 84.28125 50.015625 
Q 88.921875 44.046875 88.921875 33.015625 
L 88.921875 0 
L 79.890625 0 
L 79.890625 32.71875 
Q 79.890625 40.578125 77.09375 44.375 
Q 74.3125 48.1875 68.609375 48.1875 
Q 61.625 48.1875 57.5625 43.546875 
Q 53.515625 38.921875 53.515625 30.90625 
L 53.515625 0 
L 44.484375 0 
L 44.484375 32.71875 
Q 44.484375 40.625 41.703125 44.40625 
Q 38.921875 48.1875 33.109375 48.1875 
Q 26.21875 48.1875 22.15625 43.53125 
Q 18.109375 38.875 18.109375 30.90625 
L 18.109375 0 
L 9.078125 0 
L 9.078125 54.6875 
L 18.109375 54.6875 
L 18.109375 46.1875 
Q 21.1875 51.21875 25.484375 53.609375 
Q 29.78125 56 35.6875 56 
Q 41.65625 56 45.828125 52.96875 
Q 50 49.953125 52 44.1875 
z
" id="DejaVuSans-109"/>
      <path d="M 48.6875 27.296875 
Q 48.6875 37.203125 44.609375 42.84375 
Q 40.53125 48.484375 33.40625 48.484375 
Q 26.265625 48.484375 22.1875 42.84375 
Q 18.109375 37.203125 18.109375 27.296875 
Q 18.109375 17.390625 22.1875 11.75 
Q 26.265625 6.109375 33.40625 6.109375 
Q 40.53125 6.109375 44.609375 11.75 
Q 48.6875 17.390625 48.6875 27.296875 
z
M 18.109375 46.390625 
Q 20.953125 51.265625 25.265625 53.625 
Q 29.59375 56 35.59375 56 
Q 45.5625 56 51.78125 48.09375 
Q 58.015625 40.1875 58.015625 27.296875 
Q 58.015625 14.40625 51.78125 6.484375 
Q 45.5625 -1.421875 35.59375 -1.421875 
Q 29.59375 -1.421875 25.265625 0.953125 
Q 20.953125 3.328125 18.109375 8.203125 
L 18.109375 0 
L 9.078125 0 
L 9.078125 75.984375 
L 18.109375 75.984375 
z
" id="DejaVuSans-98"/>
      <path d="M 56.203125 29.59375 
L 56.203125 25.203125 
L 14.890625 25.203125 
Q 15.484375 15.921875 20.484375 11.0625 
Q 25.484375 6.203125 34.421875 6.203125 
Q 39.59375 6.203125 44.453125 7.46875 
Q 49.3125 8.734375 54.109375 11.28125 
L 54.109375 2.78125 
Q 49.265625 0.734375 44.1875 -0.34375 
Q 39.109375 -1.421875 33.890625 -1.421875 
Q 20.796875 -1.421875 13.15625 6.1875 
Q 5.515625 13.8125 5.515625 26.8125 
Q 5.515625 40.234375 12.765625 48.109375 
Q 20.015625 56 32.328125 56 
Q 43.359375 56 49.78125 48.890625 
Q 56.203125 41.796875 56.203125 29.59375 
z
M 47.21875 32.234375 
Q 47.125 39.59375 43.09375 43.984375 
Q 39.0625 48.390625 32.421875 48.390625 
Q 24.90625 48.390625 20.390625 44.140625 
Q 15.875 39.890625 15.1875 32.171875 
z
" id="DejaVuSans-101"/>
      <path d="M 41.109375 46.296875 
Q 39.59375 47.171875 37.8125 47.578125 
Q 36.03125 48 33.890625 48 
Q 26.265625 48 22.1875 43.046875 
Q 18.109375 38.09375 18.109375 28.8125 
L 18.109375 0 
L 9.078125 0 
L 9.078125 54.6875 
L 18.109375 54.6875 
L 18.109375 46.1875 
Q 20.953125 51.171875 25.484375 53.578125 
Q 30.03125 56 36.53125 56 
Q 37.453125 56 38.578125 55.875 
Q 39.703125 55.765625 41.0625 55.515625 
z
" id="DejaVuSans-114"/>
      <path id="DejaVuSans-32"/>
      <path d="M 30.609375 48.390625 
Q 23.390625 48.390625 19.1875 42.75 
Q 14.984375 37.109375 14.984375 27.296875 
Q 14.984375 17.484375 19.15625 11.84375 
Q 23.34375 6.203125 30.609375 6.203125 
Q 37.796875 6.203125 41.984375 11.859375 
Q 46.1875 17.53125 46.1875 27.296875 
Q 46.1875 37.015625 41.984375 42.703125 
Q 37.796875 48.390625 30.609375 48.390625 
z
M 30.609375 56 
Q 42.328125 56 49.015625 48.375 
Q 55.71875 40.765625 55.71875 27.296875 
Q 55.71875 13.875 49.015625 6.21875 
Q 42.328125 -1.421875 30.609375 -1.421875 
Q 18.84375 -1.421875 12.171875 6.21875 
Q 5.515625 13.875 5.515625 27.296875 
Q 5.515625 40.765625 12.171875 48.375 
Q 18.84375 56 30.609375 56 
z
" id="DejaVuSans-111"/>
      <path d="M 37.109375 75.984375 
L 37.109375 68.5 
L 28.515625 68.5 
Q 23.6875 68.5 21.796875 66.546875 
Q 19.921875 64.59375 19.921875 59.515625 
L 19.921875 54.6875 
L 34.71875 54.6875 
L 34.71875 47.703125 
L 19.921875 47.703125 
L 19.921875 0 
L 10.890625 0 
L 10.890625 47.703125 
L 2.296875 47.703125 
L 2.296875 54.6875 
L 10.890625 54.6875 
L 10.890625 58.5 
Q 10.890625 67.625 15.140625 71.796875 
Q 19.390625 75.984375 28.609375 75.984375 
z
" id="DejaVuSans-102"/>
      <path d="M 14.796875 27.296875 
Q 14.796875 17.390625 18.875 11.75 
Q 22.953125 6.109375 30.078125 6.109375 
Q 37.203125 6.109375 41.296875 11.75 
Q 45.40625 17.390625 45.40625 27.296875 
Q 45.40625 37.203125 41.296875 42.84375 
Q 37.203125 48.484375 30.078125 48.484375 
Q 22.953125 48.484375 18.875 42.84375 
Q 14.796875 37.203125 14.796875 27.296875 
z
M 45.40625 8.203125 
Q 42.578125 3.328125 38.25 0.953125 
Q 33.9375 -1.421875 27.875 -1.421875 
Q 17.96875 -1.421875 11.734375 6.484375 
Q 5.515625 14.40625 5.515625 27.296875 
Q 5.515625 40.1875 11.734375 48.09375 
Q 17.96875 56 27.875 56 
Q 33.9375 56 38.25 53.625 
Q 42.578125 51.265625 45.40625 46.390625 
L 45.40625 54.6875 
L 54.390625 54.6875 
L 54.390625 -20.796875 
L 45.40625 -20.796875 
z
" id="DejaVuSans-113"/>
      <path d="M 44.28125 53.078125 
L 44.28125 44.578125 
Q 40.484375 46.53125 36.375 47.5 
Q 32.28125 48.484375 27.875 48.484375 
Q 21.1875 48.484375 17.84375 46.4375 
Q 14.5 44.390625 14.5 40.28125 
Q 14.5 37.15625 16.890625 35.375 
Q 19.28125 33.59375 26.515625 31.984375 
L 29.59375 31.296875 
Q 39.15625 29.25 43.1875 25.515625 
Q 47.21875 21.78125 47.21875 15.09375 
Q 47.21875 7.46875 41.1875 3.015625 
Q 35.15625 -1.421875 24.609375 -1.421875 
Q 20.21875 -1.421875 15.453125 -0.5625 
Q 10.6875 0.296875 5.421875 2 
L 5.421875 11.28125 
Q 10.40625 8.6875 15.234375 7.390625 
Q 20.0625 6.109375 24.8125 6.109375 
Q 31.15625 6.109375 34.5625 8.28125 
Q 37.984375 10.453125 37.984375 14.40625 
Q 37.984375 18.0625 35.515625 20.015625 
Q 33.0625 21.96875 24.703125 23.78125 
L 21.578125 24.515625 
Q 13.234375 26.265625 9.515625 29.90625 
Q 5.8125 33.546875 5.8125 39.890625 
Q 5.8125 47.609375 11.28125 51.796875 
Q 16.75 56 26.8125 56 
Q 31.78125 56 36.171875 55.265625 
Q 40.578125 54.546875 44.28125 53.078125 
z
" id="DejaVuSans-115"/>
     </defs>
     <g transform="translate(262.25375 418.316562)scale(0.1 -0.1)">
      <use xlink:href="#DejaVuSans-110"/>
      <use x="63.378906" xlink:href="#DejaVuSans-117"/>
      <use x="126.757812" xlink:href="#DejaVuSans-109"/>
      <use x="224.169922" xlink:href="#DejaVuSans-98"/>
      <use x="287.646484" xlink:href="#DejaVuSans-101"/>
      <use x="349.169922" xlink:href="#DejaVuSans-114"/>
      <use x="390.283203" xlink:href="#DejaVuSans-32"/>
      <use x="422.070312" xlink:href="#DejaVuSans-111"/>
      <use x="483.251953" xlink:href="#DejaVuSans-102"/>
      <use x="518.457031" xlink:href="#DejaVuSans-32"/>
      <use x="550.244141" xlink:href="#DejaVuSans-113"/>
      <use x="613.720703" xlink:href="#DejaVuSans-117"/>
      <use x="677.099609" xlink:href="#DejaVuSans-101"/>
      <use x="738.623047" xlink:href="#DejaVuSans-101"/>
      <use x="800.146484" xlink:href="#DejaVuSans-110"/>
      <use x="863.525391" xlink:href="#DejaVuSans-115"/>
     </g>
    </g>
   </g>
   <g id="matplotlib.axis_2">
    <g id="ytick_1">
     <g id="line2d_10">
      <defs>
       <path d="M 0 0 
L -3.5 0 
" id="me81b8ebec2" style="stroke:#000000;stroke-width:0.8;"/>
      </defs>
      <g>
       <use style="stroke:#000000;stroke-width:0.8;" x="50.87" xlink:href="#me81b8ebec2" y="364.115447"/>
      </g>
     </g>
     <g id="text_11">
      <!-- $\mathdefault{10^{-4}}$ -->
      <defs>
       <path d="M 10.59375 35.5 
L 73.1875 35.5 
L 73.1875 27.203125 
L 10.59375 27.203125 
z
" id="DejaVuSans-8722"/>
      </defs>
      <g transform="translate(20.37 367.914666)scale(0.1 -0.1)">
       <use transform="translate(0 0.684375)" xlink:href="#DejaVuSans-49"/>
       <use transform="translate(63.623047 0.684375)" xlink:href="#DejaVuSans-48"/>
       <use transform="translate(128.203125 38.965625)scale(0.7)" xlink:href="#DejaVuSans-8722"/>
       <use transform="translate(186.855469 38.965625)scale(0.7)" xlink:href="#DejaVuSans-52"/>
      </g>
     </g>
    </g>
    <g id="ytick_2">
     <g id="line2d_11">
      <g>
       <use style="stroke:#000000;stroke-width:0.8;" x="50.87" xlink:href="#me81b8ebec2" y="312.253756"/>
      </g>
     </g>
     <g id="text_12">
      <!-- $\mathdefault{10^{-3}}$ -->
      <g transform="translate(20.37 316.052975)scale(0.1 -0.1)">
       <use transform="translate(0 0.765625)" xlink:href="#DejaVuSans-49"/>
       <use transform="translate(63.623047 0.765625)" xlink:href="#DejaVuSans-48"/>
       <use transform="translate(128.203125 39.046875)scale(0.7)" xlink:href="#DejaVuSans-8722"/>
       <use transform="translate(186.855469 39.046875)scale(0.7)" xlink:href="#DejaVuSans-51"/>
      </g>
     </g>
    </g>
    <g id="ytick_3">
     <g id="line2d_12">
      <g>
       <use style="stroke:#000000;stroke-width:0.8;" x="50.87" xlink:href="#me81b8ebec2" y="260.392065"/>
      </g>
     </g>
     <g id="text_13">
      <!-- $\mathdefault{10^{-2}}$ -->
      <g transform="translate(20.37 264.191284)scale(0.1 -0.1)">
       <use transform="translate(0 0.765625)" xlink:href="#DejaVuSans-49"/>
       <use transform="translate(63.623047 0.765625)" xlink:href="#DejaVuSans-48"/>
       <use transform="translate(128.203125 39.046875)scale(0.7)" xlink:href="#DejaVuSans-8722"/>
       <use transform="translate(186.855469 39.046875)scale(0.7)" xlink:href="#DejaVuSans-50"/>
      </g>
     </g>
    </g>
    <g id="ytick_4">
     <g id="line2d_13">
      <g>
       <use style="stroke:#000000;stroke-width:0.8;" x="50.87" xlink:href="#me81b8ebec2" y="208.530374"/>
      </g>
     </g>
     <g id="text_14">
      <!-- $\mathdefault{10^{-1}}$ -->
      <g transform="translate(20.37 212.329593)scale(0.1 -0.1)">
       <use transform="translate(0 0.684375)" xlink:href="#DejaVuSans-49"/>
       <use transform="translate(63.623047 0.684375)" xlink:href="#DejaVuSans-48"/>
       <use transform="translate(128.203125 38.965625)scale(0.7)" xlink:href="#DejaVuSans-8722"/>
       <use transform="translate(186.855469 38.965625)scale(0.7)" xlink:href="#DejaVuSans-49"/>
      </g>
     </g>
    </g>
    <g id="ytick_5">
     <g id="line2d_14">
      <g>
       <use style="stroke:#000000;stroke-width:0.8;" x="50.87" xlink:href="#me81b8ebec2" y="156.668683"/>
      </g>
     </g>
     <g id="text_15">
      <!-- $\mathdefault{10^{0}}$ -->
      <g transform="translate(26.27 160.467902)scale(0.1 -0.1)">
       <use transform="translate(0 0.765625)" xlink:href="#DejaVuSans-49"/>
       <use transform="translate(63.623047 0.765625)" xlink:href="#DejaVuSans-48"/>
       <use transform="translate(128.203125 39.046875)scale(0.7)" xlink:href="#DejaVuSans-48"/>
      </g>
     </g>
    </g>
    <g id="ytick_6">
     <g id="line2d_15">
      <g>
       <use style="stroke:#000000;stroke-width:0.8;" x="50.87" xlink:href="#me81b8ebec2" y="104.806992"/>
      </g>
     </g>
     <g id="text_16">
      <!-- $\mathdefault{10^{1}}$ -->
      <g transform="translate(26.27 108.606211)scale(0.1 -0.1)">
       <use transform="translate(0 0.684375)" xlink:href="#DejaVuSans-49"/>
       <use transform="translate(63.623047 0.684375)" xlink:href="#DejaVuSans-48"/>
       <use transform="translate(128.203125 38.965625)scale(0.7)" xlink:href="#DejaVuSans-49"/>
      </g>
     </g>
    </g>
    <g id="ytick_7">
     <g id="line2d_16">
      <g>
       <use style="stroke:#000000;stroke-width:0.8;" x="50.87" xlink:href="#me81b8ebec2" y="52.945301"/>
      </g>
     </g>
     <g id="text_17">
      <!-- $\mathdefault{10^{2}}$ -->
      <g transform="translate(26.27 56.74452)scale(0.1 -0.1)">
       <use transform="translate(0 0.765625)" xlink:href="#DejaVuSans-49"/>
       <use transform="translate(63.623047 0.765625)" xlink:href="#DejaVuSans-48"/>
       <use transform="translate(128.203125 39.046875)scale(0.7)" xlink:href="#DejaVuSans-50"/>
      </g>
     </g>
    </g>
    <g id="ytick_8">
     <g id="line2d_17">
      <defs>
       <path d="M 0 0 
L -2 0 
" id="mf18e0cc752" style="stroke:#000000;stroke-width:0.6;"/>
      </defs>
      <g>
       <use style="stroke:#000000;stroke-width:0.6;" x="50.87" xlink:href="#mf18e0cc752" y="384.753289"/>
      </g>
     </g>
    </g>
    <g id="ytick_9">
     <g id="line2d_18">
      <g>
       <use style="stroke:#000000;stroke-width:0.6;" x="50.87" xlink:href="#mf18e0cc752" y="379.727372"/>
      </g>
     </g>
    </g>
    <g id="ytick_10">
     <g id="line2d_19">
      <g>
       <use style="stroke:#000000;stroke-width:0.6;" x="50.87" xlink:href="#mf18e0cc752" y="375.620898"/>
      </g>
     </g>
    </g>
    <g id="ytick_11">
     <g id="line2d_20">
      <g>
       <use style="stroke:#000000;stroke-width:0.6;" x="50.87" xlink:href="#mf18e0cc752" y="372.148925"/>
      </g>
     </g>
    </g>
    <g id="ytick_12">
     <g id="line2d_21">
      <g>
       <use style="stroke:#000000;stroke-width:0.6;" x="50.87" xlink:href="#mf18e0cc752" y="369.141364"/>
      </g>
     </g>
    </g>
    <g id="ytick_13">
     <g id="line2d_22">
      <g>
       <use style="stroke:#000000;stroke-width:0.6;" x="50.87" xlink:href="#mf18e0cc752" y="366.488508"/>
      </g>
     </g>
    </g>
    <g id="ytick_14">
     <g id="line2d_23">
      <g>
       <use style="stroke:#000000;stroke-width:0.6;" x="50.87" xlink:href="#mf18e0cc752" y="348.503523"/>
      </g>
     </g>
    </g>
    <g id="ytick_15">
     <g id="line2d_24">
      <g>
       <use style="stroke:#000000;stroke-width:0.6;" x="50.87" xlink:href="#mf18e0cc752" y="339.371132"/>
      </g>
     </g>
    </g>
    <g id="ytick_16">
     <g id="line2d_25">
      <g>
       <use style="stroke:#000000;stroke-width:0.6;" x="50.87" xlink:href="#mf18e0cc752" y="332.891598"/>
      </g>
     </g>
    </g>
    <g id="ytick_17">
     <g id="line2d_26">
      <g>
       <use style="stroke:#000000;stroke-width:0.6;" x="50.87" xlink:href="#mf18e0cc752" y="327.865681"/>
      </g>
     </g>
    </g>
    <g id="ytick_18">
     <g id="line2d_27">
      <g>
       <use style="stroke:#000000;stroke-width:0.6;" x="50.87" xlink:href="#mf18e0cc752" y="323.759207"/>
      </g>
     </g>
    </g>
    <g id="ytick_19">
     <g id="line2d_28">
      <g>
       <use style="stroke:#000000;stroke-width:0.6;" x="50.87" xlink:href="#mf18e0cc752" y="320.287234"/>
      </g>
     </g>
    </g>
    <g id="ytick_20">
     <g id="line2d_29">
      <g>
       <use style="stroke:#000000;stroke-width:0.6;" x="50.87" xlink:href="#mf18e0cc752" y="317.279673"/>
      </g>
     </g>
    </g>
    <g id="ytick_21">
     <g id="line2d_30">
      <g>
       <use style="stroke:#000000;stroke-width:0.6;" x="50.87" xlink:href="#mf18e0cc752" y="314.626817"/>
      </g>
     </g>
    </g>
    <g id="ytick_22">
     <g id="line2d_31">
      <g>
       <use style="stroke:#000000;stroke-width:0.6;" x="50.87" xlink:href="#mf18e0cc752" y="296.641831"/>
      </g>
     </g>
    </g>
    <g id="ytick_23">
     <g id="line2d_32">
      <g>
       <use style="stroke:#000000;stroke-width:0.6;" x="50.87" xlink:href="#mf18e0cc752" y="287.509441"/>
      </g>
     </g>
    </g>
    <g id="ytick_24">
     <g id="line2d_33">
      <g>
       <use style="stroke:#000000;stroke-width:0.6;" x="50.87" xlink:href="#mf18e0cc752" y="281.029907"/>
      </g>
     </g>
    </g>
    <g id="ytick_25">
     <g id="line2d_34">
      <g>
       <use style="stroke:#000000;stroke-width:0.6;" x="50.87" xlink:href="#mf18e0cc752" y="276.00399"/>
      </g>
     </g>
    </g>
    <g id="ytick_26">
     <g id="line2d_35">
      <g>
       <use style="stroke:#000000;stroke-width:0.6;" x="50.87" xlink:href="#mf18e0cc752" y="271.897516"/>
      </g>
     </g>
    </g>
    <g id="ytick_27">
     <g id="line2d_36">
      <g>
       <use style="stroke:#000000;stroke-width:0.6;" x="50.87" xlink:href="#mf18e0cc752" y="268.425543"/>
      </g>
     </g>
    </g>
    <g id="ytick_28">
     <g id="line2d_37">
      <g>
       <use style="stroke:#000000;stroke-width:0.6;" x="50.87" xlink:href="#mf18e0cc752" y="265.417982"/>
      </g>
     </g>
    </g>
    <g id="ytick_29">
     <g id="line2d_38">
      <g>
       <use style="stroke:#000000;stroke-width:0.6;" x="50.87" xlink:href="#mf18e0cc752" y="262.765126"/>
      </g>
     </g>
    </g>
    <g id="ytick_30">
     <g id="line2d_39">
      <g>
       <use style="stroke:#000000;stroke-width:0.6;" x="50.87" xlink:href="#mf18e0cc752" y="244.78014"/>
      </g>
     </g>
    </g>
    <g id="ytick_31">
     <g id="line2d_40">
      <g>
       <use style="stroke:#000000;stroke-width:0.6;" x="50.87" xlink:href="#mf18e0cc752" y="235.64775"/>
      </g>
     </g>
    </g>
    <g id="ytick_32">
     <g id="line2d_41">
      <g>
       <use style="stroke:#000000;stroke-width:0.6;" x="50.87" xlink:href="#mf18e0cc752" y="229.168216"/>
      </g>
     </g>
    </g>
    <g id="ytick_33">
     <g id="line2d_42">
      <g>
       <use style="stroke:#000000;stroke-width:0.6;" x="50.87" xlink:href="#mf18e0cc752" y="224.142299"/>
      </g>
     </g>
    </g>
    <g id="ytick_34">
     <g id="line2d_43">
      <g>
       <use style="stroke:#000000;stroke-width:0.6;" x="50.87" xlink:href="#mf18e0cc752" y="220.035825"/>
      </g>
     </g>
    </g>
    <g id="ytick_35">
     <g id="line2d_44">
      <g>
       <use style="stroke:#000000;stroke-width:0.6;" x="50.87" xlink:href="#mf18e0cc752" y="216.563852"/>
      </g>
     </g>
    </g>
    <g id="ytick_36">
     <g id="line2d_45">
      <g>
       <use style="stroke:#000000;stroke-width:0.6;" x="50.87" xlink:href="#mf18e0cc752" y="213.556291"/>
      </g>
     </g>
    </g>
    <g id="ytick_37">
     <g id="line2d_46">
      <g>
       <use style="stroke:#000000;stroke-width:0.6;" x="50.87" xlink:href="#mf18e0cc752" y="210.903435"/>
      </g>
     </g>
    </g>
    <g id="ytick_38">
     <g id="line2d_47">
      <g>
       <use style="stroke:#000000;stroke-width:0.6;" x="50.87" xlink:href="#mf18e0cc752" y="192.918449"/>
      </g>
     </g>
    </g>
    <g id="ytick_39">
     <g id="line2d_48">
      <g>
       <use style="stroke:#000000;stroke-width:0.6;" x="50.87" xlink:href="#mf18e0cc752" y="183.786059"/>
      </g>
     </g>
    </g>
    <g id="ytick_40">
     <g id="line2d_49">
      <g>
       <use style="stroke:#000000;stroke-width:0.6;" x="50.87" xlink:href="#mf18e0cc752" y="177.306525"/>
      </g>
     </g>
    </g>
    <g id="ytick_41">
     <g id="line2d_50">
      <g>
       <use style="stroke:#000000;stroke-width:0.6;" x="50.87" xlink:href="#mf18e0cc752" y="172.280608"/>
      </g>
     </g>
    </g>
    <g id="ytick_42">
     <g id="line2d_51">
      <g>
       <use style="stroke:#000000;stroke-width:0.6;" x="50.87" xlink:href="#mf18e0cc752" y="168.174134"/>
      </g>
     </g>
    </g>
    <g id="ytick_43">
     <g id="line2d_52">
      <g>
       <use style="stroke:#000000;stroke-width:0.6;" x="50.87" xlink:href="#mf18e0cc752" y="164.702161"/>
      </g>
     </g>
    </g>
    <g id="ytick_44">
     <g id="line2d_53">
      <g>
       <use style="stroke:#000000;stroke-width:0.6;" x="50.87" xlink:href="#mf18e0cc752" y="161.6946"/>
      </g>
     </g>
    </g>
    <g id="ytick_45">
     <g id="line2d_54">
      <g>
       <use style="stroke:#000000;stroke-width:0.6;" x="50.87" xlink:href="#mf18e0cc752" y="159.041744"/>
      </g>
     </g>
    </g>
    <g id="ytick_46">
     <g id="line2d_55">
      <g>
       <use style="stroke:#000000;stroke-width:0.6;" x="50.87" xlink:href="#mf18e0cc752" y="141.056758"/>
      </g>
     </g>
    </g>
    <g id="ytick_47">
     <g id="line2d_56">
      <g>
       <use style="stroke:#000000;stroke-width:0.6;" x="50.87" xlink:href="#mf18e0cc752" y="131.924368"/>
      </g>
     </g>
    </g>
    <g id="ytick_48">
     <g id="line2d_57">
      <g>
       <use style="stroke:#000000;stroke-width:0.6;" x="50.87" xlink:href="#mf18e0cc752" y="125.444834"/>
      </g>
     </g>
    </g>
    <g id="ytick_49">
     <g id="line2d_58">
      <g>
       <use style="stroke:#000000;stroke-width:0.6;" x="50.87" xlink:href="#mf18e0cc752" y="120.418917"/>
      </g>
     </g>
    </g>
    <g id="ytick_50">
     <g id="line2d_59">
      <g>
       <use style="stroke:#000000;stroke-width:0.6;" x="50.87" xlink:href="#mf18e0cc752" y="116.312443"/>
      </g>
     </g>
    </g>
    <g id="ytick_51">
     <g id="line2d_60">
      <g>
       <use style="stroke:#000000;stroke-width:0.6;" x="50.87" xlink:href="#mf18e0cc752" y="112.84047"/>
      </g>
     </g>
    </g>
    <g id="ytick_52">
     <g id="line2d_61">
      <g>
       <use style="stroke:#000000;stroke-width:0.6;" x="50.87" xlink:href="#mf18e0cc752" y="109.832909"/>
      </g>
     </g>
    </g>
    <g id="ytick_53">
     <g id="line2d_62">
      <g>
       <use style="stroke:#000000;stroke-width:0.6;" x="50.87" xlink:href="#mf18e0cc752" y="107.180053"/>
      </g>
     </g>
    </g>
    <g id="ytick_54">
     <g id="line2d_63">
      <g>
       <use style="stroke:#000000;stroke-width:0.6;" x="50.87" xlink:href="#mf18e0cc752" y="89.195067"/>
      </g>
     </g>
    </g>
    <g id="ytick_55">
     <g id="line2d_64">
      <g>
       <use style="stroke:#000000;stroke-width:0.6;" x="50.87" xlink:href="#mf18e0cc752" y="80.062677"/>
      </g>
     </g>
    </g>
    <g id="ytick_56">
     <g id="line2d_65">
      <g>
       <use style="stroke:#000000;stroke-width:0.6;" x="50.87" xlink:href="#mf18e0cc752" y="73.583143"/>
      </g>
     </g>
    </g>
    <g id="ytick_57">
     <g id="line2d_66">
      <g>
       <use style="stroke:#000000;stroke-width:0.6;" x="50.87" xlink:href="#mf18e0cc752" y="68.557226"/>
      </g>
     </g>
    </g>
    <g id="ytick_58">
     <g id="line2d_67">
      <g>
       <use style="stroke:#000000;stroke-width:0.6;" x="50.87" xlink:href="#mf18e0cc752" y="64.450752"/>
      </g>
     </g>
    </g>
    <g id="ytick_59">
     <g id="line2d_68">
      <g>
       <use style="stroke:#000000;stroke-width:0.6;" x="50.87" xlink:href="#mf18e0cc752" y="60.978778"/>
      </g>
     </g>
    </g>
    <g id="ytick_60">
     <g id="line2d_69">
      <g>
       <use style="stroke:#000000;stroke-width:0.6;" x="50.87" xlink:href="#mf18e0cc752" y="57.971218"/>
      </g>
     </g>
    </g>
    <g id="ytick_61">
     <g id="line2d_70">
      <g>
       <use style="stroke:#000000;stroke-width:0.6;" x="50.87" xlink:href="#mf18e0cc752" y="55.318362"/>
      </g>
     </g>
    </g>
    <g id="ytick_62">
     <g id="line2d_71">
      <g>
       <use style="stroke:#000000;stroke-width:0.6;" x="50.87" xlink:href="#mf18e0cc752" y="37.333376"/>
      </g>
     </g>
    </g>
    <g id="ytick_63">
     <g id="line2d_72">
      <g>
       <use style="stroke:#000000;stroke-width:0.6;" x="50.87" xlink:href="#mf18e0cc752" y="28.200986"/>
      </g>
     </g>
    </g>
    <g id="ytick_64">
     <g id="line2d_73">
      <g>
       <use style="stroke:#000000;stroke-width:0.6;" x="50.87" xlink:href="#mf18e0cc752" y="21.721452"/>
      </g>
     </g>
    </g>
    <g id="ytick_65">
     <g id="line2d_74">
      <g>
       <use style="stroke:#000000;stroke-width:0.6;" x="50.87" xlink:href="#mf18e0cc752" y="16.695534"/>
      </g>
     </g>
    </g>
    <g id="ytick_66">
     <g id="line2d_75">
      <g>
       <use style="stroke:#000000;stroke-width:0.6;" x="50.87" xlink:href="#mf18e0cc752" y="12.589061"/>
      </g>
     </g>
    </g>
    <g id="text_18">
     <!-- time [s] -->
     <defs>
      <path d="M 18.3125 70.21875 
L 18.3125 54.6875 
L 36.8125 54.6875 
L 36.8125 47.703125 
L 18.3125 47.703125 
L 18.3125 18.015625 
Q 18.3125 11.328125 20.140625 9.421875 
Q 21.96875 7.515625 27.59375 7.515625 
L 36.8125 7.515625 
L 36.8125 0 
L 27.59375 0 
Q 17.1875 0 13.234375 3.875 
Q 9.28125 7.765625 9.28125 18.015625 
L 9.28125 47.703125 
L 2.6875 47.703125 
L 2.6875 54.6875 
L 9.28125 54.6875 
L 9.28125 70.21875 
z
" id="DejaVuSans-116"/>
      <path d="M 9.421875 54.6875 
L 18.40625 54.6875 
L 18.40625 0 
L 9.421875 0 
z
M 9.421875 75.984375 
L 18.40625 75.984375 
L 18.40625 64.59375 
L 9.421875 64.59375 
z
" id="DejaVuSans-105"/>
      <path d="M 8.59375 75.984375 
L 29.296875 75.984375 
L 29.296875 69 
L 17.578125 69 
L 17.578125 -6.203125 
L 29.296875 -6.203125 
L 29.296875 -13.1875 
L 8.59375 -13.1875 
z
" id="DejaVuSans-91"/>
      <path d="M 30.421875 75.984375 
L 30.421875 -13.1875 
L 9.71875 -13.1875 
L 9.71875 -6.203125 
L 21.390625 -6.203125 
L 21.390625 69 
L 9.71875 69 
L 9.71875 75.984375 
z
" id="DejaVuSans-93"/>
     </defs>
     <g transform="translate(14.290313 219.811406)rotate(-90)scale(0.1 -0.1)">
      <use xlink:href="#DejaVuSans-116"/>
      <use x="39.208984" xlink:href="#DejaVuSans-105"/>
      <use x="66.992188" xlink:href="#DejaVuSans-109"/>
      <use x="164.404297" xlink:href="#DejaVuSans-101"/>
      <use x="225.927734" xlink:href="#DejaVuSans-32"/>
      <use x="257.714844" xlink:href="#DejaVuSans-91"/>
      <use x="296.728516" xlink:href="#DejaVuSans-115"/>
      <use x="348.828125" xlink:href="#DejaVuSans-93"/>
     </g>
    </g>
   </g>
   <g id="LineCollection_1">
    <path clip-path="url(#p6cb73b30a2)" d="M 74.248636 280.939994 
L 74.248636 272.025511 
" style="fill:none;stroke:#ff0000;stroke-width:1.5;"/>
    <path clip-path="url(#p6cb73b30a2)" d="M 132.695227 245.082851 
L 132.695227 244.937224 
" style="fill:none;stroke:#ff0000;stroke-width:1.5;"/>
    <path clip-path="url(#p6cb73b30a2)" d="M 191.141818 218.681671 
L 191.141818 214.289982 
" style="fill:none;stroke:#ff0000;stroke-width:1.5;"/>
    <path clip-path="url(#p6cb73b30a2)" d="M 249.588409 182.829096 
L 249.588409 177.887797 
" style="fill:none;stroke:#ff0000;stroke-width:1.5;"/>
    <path clip-path="url(#p6cb73b30a2)" d="M 308.035 144.910814 
L 308.035 142.16111 
" style="fill:none;stroke:#ff0000;stroke-width:1.5;"/>
   </g>
   <g id="LineCollection_2">
    <path clip-path="url(#p6cb73b30a2)" d="M 74.248636 365.993472 
L 74.248636 360.008974 
" style="fill:none;stroke:#820002;stroke-width:1.5;"/>
    <path clip-path="url(#p6cb73b30a2)" d="M 132.695227 333.117964 
L 132.695227 330.950596 
" style="fill:none;stroke:#820002;stroke-width:1.5;"/>
    <path clip-path="url(#p6cb73b30a2)" d="M 191.141818 298.023489 
L 191.141818 297.062414 
" style="fill:none;stroke:#820002;stroke-width:1.5;"/>
    <path clip-path="url(#p6cb73b30a2)" d="M 249.588409 256.130342 
L 249.588409 255.563412 
" style="fill:none;stroke:#820002;stroke-width:1.5;"/>
    <path clip-path="url(#p6cb73b30a2)" d="M 308.035 218.169681 
L 308.035 218.155173 
" style="fill:none;stroke:#820002;stroke-width:1.5;"/>
    <path clip-path="url(#p6cb73b30a2)" d="M 366.481591 183.146628 
L 366.481591 178.494499 
" style="fill:none;stroke:#820002;stroke-width:1.5;"/>
    <path clip-path="url(#p6cb73b30a2)" d="M 424.928182 145.028586 
L 424.928182 144.224065 
" style="fill:none;stroke:#820002;stroke-width:1.5;"/>
    <path clip-path="url(#p6cb73b30a2)" d="M 483.374773 103.030807 
L 483.374773 100.939498 
" style="fill:none;stroke:#820002;stroke-width:1.5;"/>
    <path clip-path="url(#p6cb73b30a2)" d="M 541.821364 58.922731 
L 541.821364 58.635071 
" style="fill:none;stroke:#820002;stroke-width:1.5;"/>
   </g>
   <g id="LineCollection_3">
    <path clip-path="url(#p6cb73b30a2)" d="M 74.248636 370.401544 
L 74.248636 357.118941 
" style="fill:none;stroke:#000000;stroke-width:1.5;"/>
    <path clip-path="url(#p6cb73b30a2)" d="M 132.695227 334.163696 
L 132.695227 331.389313 
" style="fill:none;stroke:#000000;stroke-width:1.5;"/>
    <path clip-path="url(#p6cb73b30a2)" d="M 191.141818 294.438552 
L 191.141818 291.850964 
" style="fill:none;stroke:#000000;stroke-width:1.5;"/>
    <path clip-path="url(#p6cb73b30a2)" d="M 249.588409 256.528274 
L 249.588409 256.333688 
" style="fill:none;stroke:#000000;stroke-width:1.5;"/>
    <path clip-path="url(#p6cb73b30a2)" d="M 308.035 218.789919 
L 308.035 218.722039 
" style="fill:none;stroke:#000000;stroke-width:1.5;"/>
    <path clip-path="url(#p6cb73b30a2)" d="M 366.481591 186.804433 
L 366.481591 181.301873 
" style="fill:none;stroke:#000000;stroke-width:1.5;"/>
    <path clip-path="url(#p6cb73b30a2)" d="M 424.928182 142.01349 
L 424.928182 138.165956 
" style="fill:none;stroke:#000000;stroke-width:1.5;"/>
    <path clip-path="url(#p6cb73b30a2)" d="M 483.374773 99.518641 
L 483.374773 97.062324 
" style="fill:none;stroke:#000000;stroke-width:1.5;"/>
    <path clip-path="url(#p6cb73b30a2)" d="M 541.821364 58.931563 
L 541.821364 58.336181 
" style="fill:none;stroke:#000000;stroke-width:1.5;"/>
   </g>
   <g id="LineCollection_4">
    <path clip-path="url(#p6cb73b30a2)" d="M 74.248636 370.402375 
L 74.248636 368.042964 
" style="fill:none;stroke:#828282;stroke-width:1.5;"/>
    <path clip-path="url(#p6cb73b30a2)" d="M 132.695227 333.922956 
L 132.695227 333.172672 
" style="fill:none;stroke:#828282;stroke-width:1.5;"/>
    <path clip-path="url(#p6cb73b30a2)" d="M 191.141818 299.044681 
L 191.141818 298.694609 
" style="fill:none;stroke:#828282;stroke-width:1.5;"/>
    <path clip-path="url(#p6cb73b30a2)" d="M 249.588409 262.858893 
L 249.588409 262.752641 
" style="fill:none;stroke:#828282;stroke-width:1.5;"/>
    <path clip-path="url(#p6cb73b30a2)" d="M 308.035 225.171645 
L 308.035 225.155198 
" style="fill:none;stroke:#828282;stroke-width:1.5;"/>
    <path clip-path="url(#p6cb73b30a2)" d="M 366.481591 186.187143 
L 366.481591 186.107315 
" style="fill:none;stroke:#828282;stroke-width:1.5;"/>
    <path clip-path="url(#p6cb73b30a2)" d="M 424.928182 146.246748 
L 424.928182 142.651929 
" style="fill:none;stroke:#828282;stroke-width:1.5;"/>
    <path clip-path="url(#p6cb73b30a2)" d="M 483.374773 103.914377 
L 483.374773 103.500678 
" style="fill:none;stroke:#828282;stroke-width:1.5;"/>
    <path clip-path="url(#p6cb73b30a2)" d="M 541.821364 60.24032 
L 541.821364 59.938439 
" style="fill:none;stroke:#828282;stroke-width:1.5;"/>
   </g>
   <g id="LineCollection_5">
    <path clip-path="url(#p6cb73b30a2)" d="M 74.248636 369.526047 
L 74.248636 367.816484 
" style="fill:none;stroke:#00bfbf;stroke-width:1.5;"/>
    <path clip-path="url(#p6cb73b30a2)" d="M 132.695227 333.520775 
L 132.695227 332.671639 
" style="fill:none;stroke:#00bfbf;stroke-width:1.5;"/>
    <path clip-path="url(#p6cb73b30a2)" d="M 191.141818 299.1536 
L 191.141818 297.769568 
" style="fill:none;stroke:#00bfbf;stroke-width:1.5;"/>
    <path clip-path="url(#p6cb73b30a2)" d="M 249.588409 262.613431 
L 249.588409 262.234391 
" style="fill:none;stroke:#00bfbf;stroke-width:1.5;"/>
    <path clip-path="url(#p6cb73b30a2)" d="M 308.035 225.023741 
L 308.035 224.932751 
" style="fill:none;stroke:#00bfbf;stroke-width:1.5;"/>
    <path clip-path="url(#p6cb73b30a2)" d="M 366.481591 186.127264 
L 366.481591 185.663894 
" style="fill:none;stroke:#00bfbf;stroke-width:1.5;"/>
    <path clip-path="url(#p6cb73b30a2)" d="M 424.928182 145.984379 
L 424.928182 142.666278 
" style="fill:none;stroke:#00bfbf;stroke-width:1.5;"/>
    <path clip-path="url(#p6cb73b30a2)" d="M 483.374773 103.759279 
L 483.374773 102.636038 
" style="fill:none;stroke:#00bfbf;stroke-width:1.5;"/>
    <path clip-path="url(#p6cb73b30a2)" d="M 541.821364 60.24629 
L 541.821364 59.155393 
" style="fill:none;stroke:#00bfbf;stroke-width:1.5;"/>
   </g>
   <g id="LineCollection_6">
    <path clip-path="url(#p6cb73b30a2)" d="M 74.248636 433 
L 74.248636 296.499864 
" style="fill:none;stroke:#82005b;stroke-width:1.5;"/>
    <path clip-path="url(#p6cb73b30a2)" d="M 132.695227 307.074624 
L 132.695227 292.540353 
" style="fill:none;stroke:#82005b;stroke-width:1.5;"/>
    <path clip-path="url(#p6cb73b30a2)" d="M 191.141818 270.946462 
L 191.141818 264.417899 
" style="fill:none;stroke:#82005b;stroke-width:1.5;"/>
    <path clip-path="url(#p6cb73b30a2)" d="M 249.588409 237.395879 
L 249.588409 235.025499 
" style="fill:none;stroke:#82005b;stroke-width:1.5;"/>
    <path clip-path="url(#p6cb73b30a2)" d="M 308.035 194.107799 
L 308.035 190.037804 
" style="fill:none;stroke:#82005b;stroke-width:1.5;"/>
    <path clip-path="url(#p6cb73b30a2)" d="M 366.481591 158.436223 
L 366.481591 153.898492 
" style="fill:none;stroke:#82005b;stroke-width:1.5;"/>
    <path clip-path="url(#p6cb73b30a2)" d="M 424.928182 118.546736 
L 424.928182 115.421749 
" style="fill:none;stroke:#82005b;stroke-width:1.5;"/>
    <path clip-path="url(#p6cb73b30a2)" d="M 483.374773 74.741265 
L 483.374773 72.036331 
" style="fill:none;stroke:#82005b;stroke-width:1.5;"/>
    <path clip-path="url(#p6cb73b30a2)" d="M 541.821364 29.907374 
L 541.821364 28.038182 
" style="fill:none;stroke:#82005b;stroke-width:1.5;"/>
   </g>
   <g id="LineCollection_7">
    <path clip-path="url(#p6cb73b30a2)" d="M 74.248636 433 
L 74.248636 301.209805 
" style="fill:none;stroke:#d60052;stroke-width:1.5;"/>
    <path clip-path="url(#p6cb73b30a2)" d="M 132.695227 307.208515 
L 132.695227 293.484862 
" style="fill:none;stroke:#d60052;stroke-width:1.5;"/>
    <path clip-path="url(#p6cb73b30a2)" d="M 191.141818 273.33862 
L 191.141818 265.695955 
" style="fill:none;stroke:#d60052;stroke-width:1.5;"/>
    <path clip-path="url(#p6cb73b30a2)" d="M 249.588409 237.095041 
L 249.588409 236.35927 
" style="fill:none;stroke:#d60052;stroke-width:1.5;"/>
    <path clip-path="url(#p6cb73b30a2)" d="M 308.035 199.389369 
L 308.035 196.533555 
" style="fill:none;stroke:#d60052;stroke-width:1.5;"/>
    <path clip-path="url(#p6cb73b30a2)" d="M 366.481591 158.705128 
L 366.481591 154.94678 
" style="fill:none;stroke:#d60052;stroke-width:1.5;"/>
    <path clip-path="url(#p6cb73b30a2)" d="M 424.928182 116.368496 
L 424.928182 114.612029 
" style="fill:none;stroke:#d60052;stroke-width:1.5;"/>
    <path clip-path="url(#p6cb73b30a2)" d="M 483.374773 76.373933 
L 483.374773 75.130818 
" style="fill:none;stroke:#d60052;stroke-width:1.5;"/>
    <path clip-path="url(#p6cb73b30a2)" d="M 541.821364 32.834067 
L 541.821364 32.594829 
" style="fill:none;stroke:#d60052;stroke-width:1.5;"/>
   </g>
   <g id="LineCollection_8">
    <path clip-path="url(#p6cb73b30a2)" d="M 74.248636 372.801818 
L 74.248636 349.422966 
" style="fill:none;stroke:#d6711f;stroke-width:1.5;"/>
    <path clip-path="url(#p6cb73b30a2)" d="M 132.695227 322.130311 
L 132.695227 321.442525 
" style="fill:none;stroke:#d6711f;stroke-width:1.5;"/>
    <path clip-path="url(#p6cb73b30a2)" d="M 191.141818 293.454802 
L 191.141818 291.382882 
" style="fill:none;stroke:#d6711f;stroke-width:1.5;"/>
    <path clip-path="url(#p6cb73b30a2)" d="M 249.588409 256.679418 
L 249.588409 256.511958 
" style="fill:none;stroke:#d6711f;stroke-width:1.5;"/>
    <path clip-path="url(#p6cb73b30a2)" d="M 308.035 218.705367 
L 308.035 218.654469 
" style="fill:none;stroke:#d6711f;stroke-width:1.5;"/>
    <path clip-path="url(#p6cb73b30a2)" d="M 366.481591 179.850029 
L 366.481591 179.337343 
" style="fill:none;stroke:#d6711f;stroke-width:1.5;"/>
    <path clip-path="url(#p6cb73b30a2)" d="M 424.928182 139.698535 
L 424.928182 137.079799 
" style="fill:none;stroke:#d6711f;stroke-width:1.5;"/>
    <path clip-path="url(#p6cb73b30a2)" d="M 483.374773 97.556937 
L 483.374773 96.366471 
" style="fill:none;stroke:#d6711f;stroke-width:1.5;"/>
    <path clip-path="url(#p6cb73b30a2)" d="M 541.821364 53.522491 
L 541.821364 53.286487 
" style="fill:none;stroke:#d6711f;stroke-width:1.5;"/>
   </g>
   <g id="line2d_76">
    <defs>
     <path d="M 2 0 
L -2 -0 
" id="me571db7b60" style="stroke:#ff0000;"/>
    </defs>
    <g clip-path="url(#p6cb73b30a2)">
     <use style="fill:#ff0000;stroke:#ff0000;" x="74.248636" xlink:href="#me571db7b60" y="280.939994"/>
     <use style="fill:#ff0000;stroke:#ff0000;" x="132.695227" xlink:href="#me571db7b60" y="245.082851"/>
     <use style="fill:#ff0000;stroke:#ff0000;" x="191.141818" xlink:href="#me571db7b60" y="218.681671"/>
     <use style="fill:#ff0000;stroke:#ff0000;" x="249.588409" xlink:href="#me571db7b60" y="182.829096"/>
     <use style="fill:#ff0000;stroke:#ff0000;" x="308.035" xlink:href="#me571db7b60" y="144.910814"/>
    </g>
   </g>
   <g id="line2d_77">
    <g clip-path="url(#p6cb73b30a2)">
     <use style="fill:#ff0000;stroke:#ff0000;" x="74.248636" xlink:href="#me571db7b60" y="272.025511"/>
     <use style="fill:#ff0000;stroke:#ff0000;" x="132.695227" xlink:href="#me571db7b60" y="244.937224"/>
     <use style="fill:#ff0000;stroke:#ff0000;" x="191.141818" xlink:href="#me571db7b60" y="214.289982"/>
     <use style="fill:#ff0000;stroke:#ff0000;" x="249.588409" xlink:href="#me571db7b60" y="177.887797"/>
     <use style="fill:#ff0000;stroke:#ff0000;" x="308.035" xlink:href="#me571db7b60" y="142.16111"/>
    </g>
   </g>
   <g id="line2d_78">
    <defs>
     <path d="M 2 0 
L -2 -0 
" id="mfc01178296" style="stroke:#820002;"/>
    </defs>
    <g clip-path="url(#p6cb73b30a2)">
     <use style="fill:#820002;stroke:#820002;" x="74.248636" xlink:href="#mfc01178296" y="365.993472"/>
     <use style="fill:#820002;stroke:#820002;" x="132.695227" xlink:href="#mfc01178296" y="333.117964"/>
     <use style="fill:#820002;stroke:#820002;" x="191.141818" xlink:href="#mfc01178296" y="298.023489"/>
     <use style="fill:#820002;stroke:#820002;" x="249.588409" xlink:href="#mfc01178296" y="256.130342"/>
     <use style="fill:#820002;stroke:#820002;" x="308.035" xlink:href="#mfc01178296" y="218.169681"/>
     <use style="fill:#820002;stroke:#820002;" x="366.481591" xlink:href="#mfc01178296" y="183.146628"/>
     <use style="fill:#820002;stroke:#820002;" x="424.928182" xlink:href="#mfc01178296" y="145.028586"/>
     <use style="fill:#820002;stroke:#820002;" x="483.374773" xlink:href="#mfc01178296" y="103.030807"/>
     <use style="fill:#820002;stroke:#820002;" x="541.821364" xlink:href="#mfc01178296" y="58.922731"/>
    </g>
   </g>
   <g id="line2d_79">
    <g clip-path="url(#p6cb73b30a2)">
     <use style="fill:#820002;stroke:#820002;" x="74.248636" xlink:href="#mfc01178296" y="360.008974"/>
     <use style="fill:#820002;stroke:#820002;" x="132.695227" xlink:href="#mfc01178296" y="330.950596"/>
     <use style="fill:#820002;stroke:#820002;" x="191.141818" xlink:href="#mfc01178296" y="297.062414"/>
     <use style="fill:#820002;stroke:#820002;" x="249.588409" xlink:href="#mfc01178296" y="255.563412"/>
     <use style="fill:#820002;stroke:#820002;" x="308.035" xlink:href="#mfc01178296" y="218.155173"/>
     <use style="fill:#820002;stroke:#820002;" x="366.481591" xlink:href="#mfc01178296" y="178.494499"/>
     <use style="fill:#820002;stroke:#820002;" x="424.928182" xlink:href="#mfc01178296" y="144.224065"/>
     <use style="fill:#820002;stroke:#820002;" x="483.374773" xlink:href="#mfc01178296" y="100.939498"/>
     <use style="fill:#820002;stroke:#820002;" x="541.821364" xlink:href="#mfc01178296" y="58.635071"/>
    </g>
   </g>
   <g id="line2d_80">
    <defs>
     <path d="M 2 0 
L -2 -0 
" id="m24f34e4d2f" style="stroke:#000000;"/>
    </defs>
    <g clip-path="url(#p6cb73b30a2)">
     <use style="stroke:#000000;" x="74.248636" xlink:href="#m24f34e4d2f" y="370.401544"/>
     <use style="stroke:#000000;" x="132.695227" xlink:href="#m24f34e4d2f" y="334.163696"/>
     <use style="stroke:#000000;" x="191.141818" xlink:href="#m24f34e4d2f" y="294.438552"/>
     <use style="stroke:#000000;" x="249.588409" xlink:href="#m24f34e4d2f" y="256.528274"/>
     <use style="stroke:#000000;" x="308.035" xlink:href="#m24f34e4d2f" y="218.789919"/>
     <use style="stroke:#000000;" x="366.481591" xlink:href="#m24f34e4d2f" y="186.804433"/>
     <use style="stroke:#000000;" x="424.928182" xlink:href="#m24f34e4d2f" y="142.01349"/>
     <use style="stroke:#000000;" x="483.374773" xlink:href="#m24f34e4d2f" y="99.518641"/>
     <use style="stroke:#000000;" x="541.821364" xlink:href="#m24f34e4d2f" y="58.931563"/>
    </g>
   </g>
   <g id="line2d_81">
    <g clip-path="url(#p6cb73b30a2)">
     <use style="stroke:#000000;" x="74.248636" xlink:href="#m24f34e4d2f" y="357.118941"/>
     <use style="stroke:#000000;" x="132.695227" xlink:href="#m24f34e4d2f" y="331.389313"/>
     <use style="stroke:#000000;" x="191.141818" xlink:href="#m24f34e4d2f" y="291.850964"/>
     <use style="stroke:#000000;" x="249.588409" xlink:href="#m24f34e4d2f" y="256.333688"/>
     <use style="stroke:#000000;" x="308.035" xlink:href="#m24f34e4d2f" y="218.722039"/>
     <use style="stroke:#000000;" x="366.481591" xlink:href="#m24f34e4d2f" y="181.301873"/>
     <use style="stroke:#000000;" x="424.928182" xlink:href="#m24f34e4d2f" y="138.165956"/>
     <use style="stroke:#000000;" x="483.374773" xlink:href="#m24f34e4d2f" y="97.062324"/>
     <use style="stroke:#000000;" x="541.821364" xlink:href="#m24f34e4d2f" y="58.336181"/>
    </g>
   </g>
   <g id="line2d_82">
    <defs>
     <path d="M 2 0 
L -2 -0 
" id="ma137d4f1af" style="stroke:#828282;"/>
    </defs>
    <g clip-path="url(#p6cb73b30a2)">
     <use style="fill:#828282;stroke:#828282;" x="74.248636" xlink:href="#ma137d4f1af" y="370.402375"/>
     <use style="fill:#828282;stroke:#828282;" x="132.695227" xlink:href="#ma137d4f1af" y="333.922956"/>
     <use style="fill:#828282;stroke:#828282;" x="191.141818" xlink:href="#ma137d4f1af" y="299.044681"/>
     <use style="fill:#828282;stroke:#828282;" x="249.588409" xlink:href="#ma137d4f1af" y="262.858893"/>
     <use style="fill:#828282;stroke:#828282;" x="308.035" xlink:href="#ma137d4f1af" y="225.171645"/>
     <use style="fill:#828282;stroke:#828282;" x="366.481591" xlink:href="#ma137d4f1af" y="186.187143"/>
     <use style="fill:#828282;stroke:#828282;" x="424.928182" xlink:href="#ma137d4f1af" y="146.246748"/>
     <use style="fill:#828282;stroke:#828282;" x="483.374773" xlink:href="#ma137d4f1af" y="103.914377"/>
     <use style="fill:#828282;stroke:#828282;" x="541.821364" xlink:href="#ma137d4f1af" y="60.24032"/>
    </g>
   </g>
   <g id="line2d_83">
    <g clip-path="url(#p6cb73b30a2)">
     <use style="fill:#828282;stroke:#828282;" x="74.248636" xlink:href="#ma137d4f1af" y="368.042964"/>
     <use style="fill:#828282;stroke:#828282;" x="132.695227" xlink:href="#ma137d4f1af" y="333.172672"/>
     <use style="fill:#828282;stroke:#828282;" x="191.141818" xlink:href="#ma137d4f1af" y="298.694609"/>
     <use style="fill:#828282;stroke:#828282;" x="249.588409" xlink:href="#ma137d4f1af" y="262.752641"/>
     <use style="fill:#828282;stroke:#828282;" x="308.035" xlink:href="#ma137d4f1af" y="225.155198"/>
     <use style="fill:#828282;stroke:#828282;" x="366.481591" xlink:href="#ma137d4f1af" y="186.107315"/>
     <use style="fill:#828282;stroke:#828282;" x="424.928182" xlink:href="#ma137d4f1af" y="142.651929"/>
     <use style="fill:#828282;stroke:#828282;" x="483.374773" xlink:href="#ma137d4f1af" y="103.500678"/>
     <use style="fill:#828282;stroke:#828282;" x="541.821364" xlink:href="#ma137d4f1af" y="59.938439"/>
    </g>
   </g>
   <g id="line2d_84">
    <defs>
     <path d="M 2 0 
L -2 -0 
" id="m194d4ae05c" style="stroke:#00bfbf;"/>
    </defs>
    <g clip-path="url(#p6cb73b30a2)">
     <use style="fill:#00bfbf;stroke:#00bfbf;" x="74.248636" xlink:href="#m194d4ae05c" y="369.526047"/>
     <use style="fill:#00bfbf;stroke:#00bfbf;" x="132.695227" xlink:href="#m194d4ae05c" y="333.520775"/>
     <use style="fill:#00bfbf;stroke:#00bfbf;" x="191.141818" xlink:href="#m194d4ae05c" y="299.1536"/>
     <use style="fill:#00bfbf;stroke:#00bfbf;" x="249.588409" xlink:href="#m194d4ae05c" y="262.613431"/>
     <use style="fill:#00bfbf;stroke:#00bfbf;" x="308.035" xlink:href="#m194d4ae05c" y="225.023741"/>
     <use style="fill:#00bfbf;stroke:#00bfbf;" x="366.481591" xlink:href="#m194d4ae05c" y="186.127264"/>
     <use style="fill:#00bfbf;stroke:#00bfbf;" x="424.928182" xlink:href="#m194d4ae05c" y="145.984379"/>
     <use style="fill:#00bfbf;stroke:#00bfbf;" x="483.374773" xlink:href="#m194d4ae05c" y="103.759279"/>
     <use style="fill:#00bfbf;stroke:#00bfbf;" x="541.821364" xlink:href="#m194d4ae05c" y="60.24629"/>
    </g>
   </g>
   <g id="line2d_85">
    <g clip-path="url(#p6cb73b30a2)">
     <use style="fill:#00bfbf;stroke:#00bfbf;" x="74.248636" xlink:href="#m194d4ae05c" y="367.816484"/>
     <use style="fill:#00bfbf;stroke:#00bfbf;" x="132.695227" xlink:href="#m194d4ae05c" y="332.671639"/>
     <use style="fill:#00bfbf;stroke:#00bfbf;" x="191.141818" xlink:href="#m194d4ae05c" y="297.769568"/>
     <use style="fill:#00bfbf;stroke:#00bfbf;" x="249.588409" xlink:href="#m194d4ae05c" y="262.234391"/>
     <use style="fill:#00bfbf;stroke:#00bfbf;" x="308.035" xlink:href="#m194d4ae05c" y="224.932751"/>
     <use style="fill:#00bfbf;stroke:#00bfbf;" x="366.481591" xlink:href="#m194d4ae05c" y="185.663894"/>
     <use style="fill:#00bfbf;stroke:#00bfbf;" x="424.928182" xlink:href="#m194d4ae05c" y="142.666278"/>
     <use style="fill:#00bfbf;stroke:#00bfbf;" x="483.374773" xlink:href="#m194d4ae05c" y="102.636038"/>
     <use style="fill:#00bfbf;stroke:#00bfbf;" x="541.821364" xlink:href="#m194d4ae05c" y="59.155393"/>
    </g>
   </g>
   <g id="line2d_86">
    <defs>
     <path d="M 2 0 
L -2 -0 
" id="m398dcd997c" style="stroke:#82005b;"/>
    </defs>
    <g clip-path="url(#p6cb73b30a2)">
     <use style="fill:#82005b;stroke:#82005b;" x="97.885925" xlink:href="#m398dcd997c" y="31105"/>
     <use style="fill:#82005b;stroke:#82005b;" x="132.695227" xlink:href="#m398dcd997c" y="307.074624"/>
     <use style="fill:#82005b;stroke:#82005b;" x="191.141818" xlink:href="#m398dcd997c" y="270.946462"/>
     <use style="fill:#82005b;stroke:#82005b;" x="249.588409" xlink:href="#m398dcd997c" y="237.395879"/>
     <use style="fill:#82005b;stroke:#82005b;" x="308.035" xlink:href="#m398dcd997c" y="194.107799"/>
     <use style="fill:#82005b;stroke:#82005b;" x="366.481591" xlink:href="#m398dcd997c" y="158.436223"/>
     <use style="fill:#82005b;stroke:#82005b;" x="424.928182" xlink:href="#m398dcd997c" y="118.546736"/>
     <use style="fill:#82005b;stroke:#82005b;" x="483.374773" xlink:href="#m398dcd997c" y="74.741265"/>
     <use style="fill:#82005b;stroke:#82005b;" x="541.821364" xlink:href="#m398dcd997c" y="29.907374"/>
    </g>
   </g>
   <g id="line2d_87">
    <g clip-path="url(#p6cb73b30a2)">
     <use style="fill:#82005b;stroke:#82005b;" x="74.248636" xlink:href="#m398dcd997c" y="296.499864"/>
     <use style="fill:#82005b;stroke:#82005b;" x="132.695227" xlink:href="#m398dcd997c" y="292.540353"/>
     <use style="fill:#82005b;stroke:#82005b;" x="191.141818" xlink:href="#m398dcd997c" y="264.417899"/>
     <use style="fill:#82005b;stroke:#82005b;" x="249.588409" xlink:href="#m398dcd997c" y="235.025499"/>
     <use style="fill:#82005b;stroke:#82005b;" x="308.035" xlink:href="#m398dcd997c" y="190.037804"/>
     <use style="fill:#82005b;stroke:#82005b;" x="366.481591" xlink:href="#m398dcd997c" y="153.898492"/>
     <use style="fill:#82005b;stroke:#82005b;" x="424.928182" xlink:href="#m398dcd997c" y="115.421749"/>
     <use style="fill:#82005b;stroke:#82005b;" x="483.374773" xlink:href="#m398dcd997c" y="72.036331"/>
     <use style="fill:#82005b;stroke:#82005b;" x="541.821364" xlink:href="#m398dcd997c" y="28.038182"/>
    </g>
   </g>
   <g id="line2d_88">
    <defs>
     <path d="M 2 0 
L -2 -0 
" id="m275d644f7e" style="stroke:#d60052;"/>
    </defs>
    <g clip-path="url(#p6cb73b30a2)">
     <use style="fill:#d60052;stroke:#d60052;" x="97.885986" xlink:href="#m275d644f7e" y="31105"/>
     <use style="fill:#d60052;stroke:#d60052;" x="132.695227" xlink:href="#m275d644f7e" y="307.208515"/>
     <use style="fill:#d60052;stroke:#d60052;" x="191.141818" xlink:href="#m275d644f7e" y="273.33862"/>
     <use style="fill:#d60052;stroke:#d60052;" x="249.588409" xlink:href="#m275d644f7e" y="237.095041"/>
     <use style="fill:#d60052;stroke:#d60052;" x="308.035" xlink:href="#m275d644f7e" y="199.389369"/>
     <use style="fill:#d60052;stroke:#d60052;" x="366.481591" xlink:href="#m275d644f7e" y="158.705128"/>
     <use style="fill:#d60052;stroke:#d60052;" x="424.928182" xlink:href="#m275d644f7e" y="116.368496"/>
     <use style="fill:#d60052;stroke:#d60052;" x="483.374773" xlink:href="#m275d644f7e" y="76.373933"/>
     <use style="fill:#d60052;stroke:#d60052;" x="541.821364" xlink:href="#m275d644f7e" y="32.834067"/>
    </g>
   </g>
   <g id="line2d_89">
    <g clip-path="url(#p6cb73b30a2)">
     <use style="fill:#d60052;stroke:#d60052;" x="74.248636" xlink:href="#m275d644f7e" y="301.209805"/>
     <use style="fill:#d60052;stroke:#d60052;" x="132.695227" xlink:href="#m275d644f7e" y="293.484862"/>
     <use style="fill:#d60052;stroke:#d60052;" x="191.141818" xlink:href="#m275d644f7e" y="265.695955"/>
     <use style="fill:#d60052;stroke:#d60052;" x="249.588409" xlink:href="#m275d644f7e" y="236.35927"/>
     <use style="fill:#d60052;stroke:#d60052;" x="308.035" xlink:href="#m275d644f7e" y="196.533555"/>
     <use style="fill:#d60052;stroke:#d60052;" x="366.481591" xlink:href="#m275d644f7e" y="154.94678"/>
     <use style="fill:#d60052;stroke:#d60052;" x="424.928182" xlink:href="#m275d644f7e" y="114.612029"/>
     <use style="fill:#d60052;stroke:#d60052;" x="483.374773" xlink:href="#m275d644f7e" y="75.130818"/>
     <use style="fill:#d60052;stroke:#d60052;" x="541.821364" xlink:href="#m275d644f7e" y="32.594829"/>
    </g>
   </g>
   <g id="line2d_90">
    <defs>
     <path d="M 2 0 
L -2 -0 
" id="m78e8309f77" style="stroke:#d6711f;"/>
    </defs>
    <g clip-path="url(#p6cb73b30a2)">
     <use style="fill:#d6711f;stroke:#d6711f;" x="74.248636" xlink:href="#m78e8309f77" y="372.801818"/>
     <use style="fill:#d6711f;stroke:#d6711f;" x="132.695227" xlink:href="#m78e8309f77" y="322.130311"/>
     <use style="fill:#d6711f;stroke:#d6711f;" x="191.141818" xlink:href="#m78e8309f77" y="293.454802"/>
     <use style="fill:#d6711f;stroke:#d6711f;" x="249.588409" xlink:href="#m78e8309f77" y="256.679418"/>
     <use style="fill:#d6711f;stroke:#d6711f;" x="308.035" xlink:href="#m78e8309f77" y="218.705367"/>
     <use style="fill:#d6711f;stroke:#d6711f;" x="366.481591" xlink:href="#m78e8309f77" y="179.850029"/>
     <use style="fill:#d6711f;stroke:#d6711f;" x="424.928182" xlink:href="#m78e8309f77" y="139.698535"/>
     <use style="fill:#d6711f;stroke:#d6711f;" x="483.374773" xlink:href="#m78e8309f77" y="97.556937"/>
     <use style="fill:#d6711f;stroke:#d6711f;" x="541.821364" xlink:href="#m78e8309f77" y="53.522491"/>
    </g>
   </g>
   <g id="line2d_91">
    <g clip-path="url(#p6cb73b30a2)">
     <use style="fill:#d6711f;stroke:#d6711f;" x="74.248636" xlink:href="#m78e8309f77" y="349.422966"/>
     <use style="fill:#d6711f;stroke:#d6711f;" x="132.695227" xlink:href="#m78e8309f77" y="321.442525"/>
     <use style="fill:#d6711f;stroke:#d6711f;" x="191.141818" xlink:href="#m78e8309f77" y="291.382882"/>
     <use style="fill:#d6711f;stroke:#d6711f;" x="249.588409" xlink:href="#m78e8309f77" y="256.511958"/>
     <use style="fill:#d6711f;stroke:#d6711f;" x="308.035" xlink:href="#m78e8309f77" y="218.654469"/>
     <use style="fill:#d6711f;stroke:#d6711f;" x="366.481591" xlink:href="#m78e8309f77" y="179.337343"/>
     <use style="fill:#d6711f;stroke:#d6711f;" x="424.928182" xlink:href="#m78e8309f77" y="137.079799"/>
     <use style="fill:#d6711f;stroke:#d6711f;" x="483.374773" xlink:href="#m78e8309f77" y="96.366471"/>
     <use style="fill:#d6711f;stroke:#d6711f;" x="541.821364" xlink:href="#m78e8309f77" y="53.286487"/>
    </g>
   </g>
   <g id="line2d_92">
    <path clip-path="url(#p6cb73b30a2)" d="M 74.248636 276.044568 
L 132.695227 245.00992 
L 191.141818 216.378957 
L 249.588409 180.223211 
L 308.035 143.494027 
" style="fill:none;stroke:#ff0000;stroke-linecap:square;stroke-width:1.5;"/>
   </g>
   <g id="line2d_93">
    <path clip-path="url(#p6cb73b30a2)" d="M 74.248636 362.803042 
L 132.695227 332.00822 
L 191.141818 297.537826 
L 249.588409 255.845093 
L 308.035 218.162426 
L 366.481591 180.700665 
L 424.928182 144.622734 
L 483.374773 101.960889 
L 541.821364 58.778442 
" style="fill:none;stroke:#820002;stroke-linecap:square;stroke-width:1.5;"/>
   </g>
   <g id="line2d_94">
    <path clip-path="url(#p6cb73b30a2)" d="M 74.248636 362.794969 
L 132.695227 332.733813 
L 191.141818 293.107619 
L 249.588409 256.43077 
L 308.035 218.755954 
L 366.481591 183.885531 
L 424.928182 140.007666 
L 483.374773 98.257014 
L 541.821364 58.631905 
" style="fill:none;stroke:#000000;stroke-linecap:square;stroke-width:1.5;"/>
   </g>
   <g id="line2d_95">
    <path clip-path="url(#p6cb73b30a2)" d="M 74.248636 369.191788 
L 132.695227 333.54469 
L 191.141818 298.868965 
L 249.588409 262.805704 
L 308.035 225.16342 
L 366.481591 186.147194 
L 424.928182 144.377696 
L 483.374773 103.706578 
L 541.821364 60.088874 
" style="fill:none;stroke:#828282;stroke-linecap:square;stroke-width:1.5;"/>
   </g>
   <g id="line2d_96">
    <path clip-path="url(#p6cb73b30a2)" d="M 74.248636 368.655049 
L 132.695227 333.092206 
L 191.141818 298.450955 
L 249.588409 262.423114 
L 308.035 224.9782 
L 366.481591 185.894387 
L 424.928182 144.264281 
L 483.374773 103.190657 
L 541.821364 59.694238 
" style="fill:none;stroke:#00bfbf;stroke-linecap:square;stroke-width:1.5;"/>
   </g>
   <g id="line2d_97">
    <path clip-path="url(#p6cb73b30a2)" d="M 74.248636 325.112943 
L 132.695227 298.65491 
L 191.141818 267.446459 
L 249.588409 236.179521 
L 308.035 191.980994 
L 366.481591 156.053274 
L 424.928182 116.930089 
L 483.374773 73.348216 
L 541.821364 28.953393 
" style="fill:none;stroke:#82005b;stroke-linecap:square;stroke-width:1.5;"/>
   </g>
   <g id="line2d_98">
    <path clip-path="url(#p6cb73b30a2)" d="M 74.248636 326.426145 
L 132.695227 299.317222 
L 191.141818 269.194664 
L 249.588409 236.724151 
L 308.035 197.91623 
L 366.481591 156.747653 
L 424.928182 115.473144 
L 483.374773 75.7438 
L 541.821364 32.71413 
" style="fill:none;stroke:#d60052;stroke-linecap:square;stroke-width:1.5;"/>
   </g>
   <g id="line2d_99">
    <path clip-path="url(#p6cb73b30a2)" d="M 74.248636 358.206152 
L 132.695227 321.783793 
L 191.141818 292.395026 
L 249.588409 256.595532 
L 308.035 218.679903 
L 366.481591 179.592227 
L 424.928182 138.351129 
L 483.374773 96.953839 
L 541.821364 53.40418 
" style="fill:none;stroke:#d6711f;stroke-linecap:square;stroke-width:1.5;"/>
   </g>
   <g id="patch_3">
    <path d="M 50.87 390.04 
L 50.87 10.8 
" style="fill:none;stroke:#000000;stroke-linecap:square;stroke-linejoin:miter;stroke-width:0.8;"/>
   </g>
   <g id="patch_4">
    <path d="M 565.2 390.04 
L 565.2 10.8 
" style="fill:none;stroke:#000000;stroke-linecap:square;stroke-linejoin:miter;stroke-width:0.8;"/>
   </g>
   <g id="patch_5">
    <path d="M 50.87 390.04 
L 565.2 390.04 
" style="fill:none;stroke:#000000;stroke-linecap:square;stroke-linejoin:miter;stroke-width:0.8;"/>
   </g>
   <g id="patch_6">
    <path d="M 50.87 10.8 
L 565.2 10.8 
" style="fill:none;stroke:#000000;stroke-linecap:square;stroke-linejoin:miter;stroke-width:0.8;"/>
   </g>
   <g id="legend_1">
    <g id="patch_7">
     <path d="M 57.87 136.225 
L 156.1325 136.225 
Q 158.1325 136.225 158.1325 134.225 
L 158.1325 17.8 
Q 158.1325 15.8 156.1325 15.8 
L 57.87 15.8 
Q 55.87 15.8 55.87 17.8 
L 55.87 134.225 
Q 55.87 136.225 57.87 136.225 
z
" style="fill:#ffffff;opacity:0.8;stroke:#cccccc;stroke-linejoin:miter;"/>
    </g>
    <g id="LineCollection_9">
     <path d="M 69.87 28.898438 
L 69.87 18.898438 
" style="fill:none;stroke:#ff0000;stroke-width:1.5;"/>
    </g>
    <g id="line2d_100">
     <g>
      <use style="fill:#ff0000;stroke:#ff0000;" x="69.87" xlink:href="#me571db7b60" y="28.898438"/>
     </g>
    </g>
    <g id="line2d_101">
     <g>
      <use style="fill:#ff0000;stroke:#ff0000;" x="69.87" xlink:href="#me571db7b60" y="18.898438"/>
     </g>
    </g>
    <g id="line2d_102">
     <path d="M 59.87 23.898438 
L 79.87 23.898438 
" style="fill:none;stroke:#ff0000;stroke-linecap:square;stroke-width:1.5;"/>
    </g>
    <g id="line2d_103"/>
    <g id="text_19">
     <!-- Python -->
     <defs>
      <path d="M 19.671875 64.796875 
L 19.671875 37.40625 
L 32.078125 37.40625 
Q 38.96875 37.40625 42.71875 40.96875 
Q 46.484375 44.53125 46.484375 51.125 
Q 46.484375 57.671875 42.71875 61.234375 
Q 38.96875 64.796875 32.078125 64.796875 
z
M 9.8125 72.90625 
L 32.078125 72.90625 
Q 44.34375 72.90625 50.609375 67.359375 
Q 56.890625 61.8125 56.890625 51.125 
Q 56.890625 40.328125 50.609375 34.8125 
Q 44.34375 29.296875 32.078125 29.296875 
L 19.671875 29.296875 
L 19.671875 0 
L 9.8125 0 
z
" id="DejaVuSans-80"/>
      <path d="M 32.171875 -5.078125 
Q 28.375 -14.84375 24.75 -17.8125 
Q 21.140625 -20.796875 15.09375 -20.796875 
L 7.90625 -20.796875 
L 7.90625 -13.28125 
L 13.1875 -13.28125 
Q 16.890625 -13.28125 18.9375 -11.515625 
Q 21 -9.765625 23.484375 -3.21875 
L 25.09375 0.875 
L 2.984375 54.6875 
L 12.5 54.6875 
L 29.59375 11.921875 
L 46.6875 54.6875 
L 56.203125 54.6875 
z
" id="DejaVuSans-121"/>
      <path d="M 54.890625 33.015625 
L 54.890625 0 
L 45.90625 0 
L 45.90625 32.71875 
Q 45.90625 40.484375 42.875 44.328125 
Q 39.84375 48.1875 33.796875 48.1875 
Q 26.515625 48.1875 22.3125 43.546875 
Q 18.109375 38.921875 18.109375 30.90625 
L 18.109375 0 
L 9.078125 0 
L 9.078125 75.984375 
L 18.109375 75.984375 
L 18.109375 46.1875 
Q 21.34375 51.125 25.703125 53.5625 
Q 30.078125 56 35.796875 56 
Q 45.21875 56 50.046875 50.171875 
Q 54.890625 44.34375 54.890625 33.015625 
z
" id="DejaVuSans-104"/>
     </defs>
     <g transform="translate(87.87 27.398438)scale(0.1 -0.1)">
      <use xlink:href="#DejaVuSans-80"/>
      <use x="60.302734" xlink:href="#DejaVuSans-121"/>
      <use x="119.482422" xlink:href="#DejaVuSans-116"/>
      <use x="158.691406" xlink:href="#DejaVuSans-104"/>
      <use x="222.070312" xlink:href="#DejaVuSans-111"/>
      <use x="283.251953" xlink:href="#DejaVuSans-110"/>
     </g>
    </g>
    <g id="LineCollection_10">
     <path d="M 69.87 43.576563 
L 69.87 33.576563 
" style="fill:none;stroke:#820002;stroke-width:1.5;"/>
    </g>
    <g id="line2d_104">
     <g>
      <use style="fill:#820002;stroke:#820002;" x="69.87" xlink:href="#mfc01178296" y="43.576563"/>
     </g>
    </g>
    <g id="line2d_105">
     <g>
      <use style="fill:#820002;stroke:#820002;" x="69.87" xlink:href="#mfc01178296" y="33.576563"/>
     </g>
    </g>
    <g id="line2d_106">
     <path d="M 59.87 38.576563 
L 79.87 38.576563 
" style="fill:none;stroke:#820002;stroke-linecap:square;stroke-width:1.5;"/>
    </g>
    <g id="line2d_107"/>
    <g id="text_20">
     <!-- Numba -->
     <defs>
      <path d="M 9.8125 72.90625 
L 23.09375 72.90625 
L 55.421875 11.921875 
L 55.421875 72.90625 
L 64.984375 72.90625 
L 64.984375 0 
L 51.703125 0 
L 19.390625 60.984375 
L 19.390625 0 
L 9.8125 0 
z
" id="DejaVuSans-78"/>
      <path d="M 34.28125 27.484375 
Q 23.390625 27.484375 19.1875 25 
Q 14.984375 22.515625 14.984375 16.5 
Q 14.984375 11.71875 18.140625 8.90625 
Q 21.296875 6.109375 26.703125 6.109375 
Q 34.1875 6.109375 38.703125 11.40625 
Q 43.21875 16.703125 43.21875 25.484375 
L 43.21875 27.484375 
z
M 52.203125 31.203125 
L 52.203125 0 
L 43.21875 0 
L 43.21875 8.296875 
Q 40.140625 3.328125 35.546875 0.953125 
Q 30.953125 -1.421875 24.3125 -1.421875 
Q 15.921875 -1.421875 10.953125 3.296875 
Q 6 8.015625 6 15.921875 
Q 6 25.140625 12.171875 29.828125 
Q 18.359375 34.515625 30.609375 34.515625 
L 43.21875 34.515625 
L 43.21875 35.40625 
Q 43.21875 41.609375 39.140625 45 
Q 35.0625 48.390625 27.6875 48.390625 
Q 23 48.390625 18.546875 47.265625 
Q 14.109375 46.140625 10.015625 43.890625 
L 10.015625 52.203125 
Q 14.9375 54.109375 19.578125 55.046875 
Q 24.21875 56 28.609375 56 
Q 40.484375 56 46.34375 49.84375 
Q 52.203125 43.703125 52.203125 31.203125 
z
" id="DejaVuSans-97"/>
     </defs>
     <g transform="translate(87.87 42.076563)scale(0.1 -0.1)">
      <use xlink:href="#DejaVuSans-78"/>
      <use x="74.804688" xlink:href="#DejaVuSans-117"/>
      <use x="138.183594" xlink:href="#DejaVuSans-109"/>
      <use x="235.595703" xlink:href="#DejaVuSans-98"/>
      <use x="299.072266" xlink:href="#DejaVuSans-97"/>
     </g>
    </g>
    <g id="LineCollection_11">
     <path d="M 69.87 58.254688 
L 69.87 48.254688 
" style="fill:none;stroke:#000000;stroke-width:1.5;"/>
    </g>
    <g id="line2d_108">
     <g>
      <use style="stroke:#000000;" x="69.87" xlink:href="#m24f34e4d2f" y="58.254688"/>
     </g>
    </g>
    <g id="line2d_109">
     <g>
      <use style="stroke:#000000;" x="69.87" xlink:href="#m24f34e4d2f" y="48.254688"/>
     </g>
    </g>
    <g id="line2d_110">
     <path d="M 59.87 53.254688 
L 79.87 53.254688 
" style="fill:none;stroke:#000000;stroke-linecap:square;stroke-width:1.5;"/>
    </g>
    <g id="line2d_111"/>
    <g id="text_21">
     <!-- C++ stack -->
     <defs>
      <path d="M 64.40625 67.28125 
L 64.40625 56.890625 
Q 59.421875 61.53125 53.78125 63.8125 
Q 48.140625 66.109375 41.796875 66.109375 
Q 29.296875 66.109375 22.65625 58.46875 
Q 16.015625 50.828125 16.015625 36.375 
Q 16.015625 21.96875 22.65625 14.328125 
Q 29.296875 6.6875 41.796875 6.6875 
Q 48.140625 6.6875 53.78125 8.984375 
Q 59.421875 11.28125 64.40625 15.921875 
L 64.40625 5.609375 
Q 59.234375 2.09375 53.4375 0.328125 
Q 47.65625 -1.421875 41.21875 -1.421875 
Q 24.65625 -1.421875 15.125 8.703125 
Q 5.609375 18.84375 5.609375 36.375 
Q 5.609375 53.953125 15.125 64.078125 
Q 24.65625 74.21875 41.21875 74.21875 
Q 47.75 74.21875 53.53125 72.484375 
Q 59.328125 70.75 64.40625 67.28125 
z
" id="DejaVuSans-67"/>
      <path d="M 46 62.703125 
L 46 35.5 
L 73.1875 35.5 
L 73.1875 27.203125 
L 46 27.203125 
L 46 0 
L 37.796875 0 
L 37.796875 27.203125 
L 10.59375 27.203125 
L 10.59375 35.5 
L 37.796875 35.5 
L 37.796875 62.703125 
z
" id="DejaVuSans-43"/>
      <path d="M 48.78125 52.59375 
L 48.78125 44.1875 
Q 44.96875 46.296875 41.140625 47.34375 
Q 37.3125 48.390625 33.40625 48.390625 
Q 24.65625 48.390625 19.8125 42.84375 
Q 14.984375 37.3125 14.984375 27.296875 
Q 14.984375 17.28125 19.8125 11.734375 
Q 24.65625 6.203125 33.40625 6.203125 
Q 37.3125 6.203125 41.140625 7.25 
Q 44.96875 8.296875 48.78125 10.40625 
L 48.78125 2.09375 
Q 45.015625 0.34375 40.984375 -0.53125 
Q 36.96875 -1.421875 32.421875 -1.421875 
Q 20.0625 -1.421875 12.78125 6.34375 
Q 5.515625 14.109375 5.515625 27.296875 
Q 5.515625 40.671875 12.859375 48.328125 
Q 20.21875 56 33.015625 56 
Q 37.15625 56 41.109375 55.140625 
Q 45.0625 54.296875 48.78125 52.59375 
z
" id="DejaVuSans-99"/>
      <path d="M 9.078125 75.984375 
L 18.109375 75.984375 
L 18.109375 31.109375 
L 44.921875 54.6875 
L 56.390625 54.6875 
L 27.390625 29.109375 
L 57.625 0 
L 45.90625 0 
L 18.109375 26.703125 
L 18.109375 0 
L 9.078125 0 
z
" id="DejaVuSans-107"/>
     </defs>
     <g transform="translate(87.87 56.754688)scale(0.1 -0.1)">
      <use xlink:href="#DejaVuSans-67"/>
      <use x="69.824219" xlink:href="#DejaVuSans-43"/>
      <use x="153.613281" xlink:href="#DejaVuSans-43"/>
      <use x="237.402344" xlink:href="#DejaVuSans-32"/>
      <use x="269.189453" xlink:href="#DejaVuSans-115"/>
      <use x="321.289062" xlink:href="#DejaVuSans-116"/>
      <use x="360.498047" xlink:href="#DejaVuSans-97"/>
      <use x="421.777344" xlink:href="#DejaVuSans-99"/>
      <use x="476.757812" xlink:href="#DejaVuSans-107"/>
     </g>
    </g>
    <g id="LineCollection_12">
     <path d="M 69.87 72.932813 
L 69.87 62.932813 
" style="fill:none;stroke:#828282;stroke-width:1.5;"/>
    </g>
    <g id="line2d_112">
     <g>
      <use style="fill:#828282;stroke:#828282;" x="69.87" xlink:href="#ma137d4f1af" y="72.932813"/>
     </g>
    </g>
    <g id="line2d_113">
     <g>
      <use style="fill:#828282;stroke:#828282;" x="69.87" xlink:href="#ma137d4f1af" y="62.932813"/>
     </g>
    </g>
    <g id="line2d_114">
     <path d="M 59.87 67.932813 
L 79.87 67.932813 
" style="fill:none;stroke:#828282;stroke-linecap:square;stroke-width:1.5;"/>
    </g>
    <g id="line2d_115"/>
    <g id="text_22">
     <!-- C++ heap -->
     <defs>
      <path d="M 18.109375 8.203125 
L 18.109375 -20.796875 
L 9.078125 -20.796875 
L 9.078125 54.6875 
L 18.109375 54.6875 
L 18.109375 46.390625 
Q 20.953125 51.265625 25.265625 53.625 
Q 29.59375 56 35.59375 56 
Q 45.5625 56 51.78125 48.09375 
Q 58.015625 40.1875 58.015625 27.296875 
Q 58.015625 14.40625 51.78125 6.484375 
Q 45.5625 -1.421875 35.59375 -1.421875 
Q 29.59375 -1.421875 25.265625 0.953125 
Q 20.953125 3.328125 18.109375 8.203125 
z
M 48.6875 27.296875 
Q 48.6875 37.203125 44.609375 42.84375 
Q 40.53125 48.484375 33.40625 48.484375 
Q 26.265625 48.484375 22.1875 42.84375 
Q 18.109375 37.203125 18.109375 27.296875 
Q 18.109375 17.390625 22.1875 11.75 
Q 26.265625 6.109375 33.40625 6.109375 
Q 40.53125 6.109375 44.609375 11.75 
Q 48.6875 17.390625 48.6875 27.296875 
z
" id="DejaVuSans-112"/>
     </defs>
     <g transform="translate(87.87 71.432813)scale(0.1 -0.1)">
      <use xlink:href="#DejaVuSans-67"/>
      <use x="69.824219" xlink:href="#DejaVuSans-43"/>
      <use x="153.613281" xlink:href="#DejaVuSans-43"/>
      <use x="237.402344" xlink:href="#DejaVuSans-32"/>
      <use x="269.189453" xlink:href="#DejaVuSans-104"/>
      <use x="332.568359" xlink:href="#DejaVuSans-101"/>
      <use x="394.091797" xlink:href="#DejaVuSans-97"/>
      <use x="455.371094" xlink:href="#DejaVuSans-112"/>
     </g>
    </g>
    <g id="LineCollection_13">
     <path d="M 69.87 87.610938 
L 69.87 77.610938 
" style="fill:none;stroke:#00bfbf;stroke-width:1.5;"/>
    </g>
    <g id="line2d_116">
     <g>
      <use style="fill:#00bfbf;stroke:#00bfbf;" x="69.87" xlink:href="#m194d4ae05c" y="87.610938"/>
     </g>
    </g>
    <g id="line2d_117">
     <g>
      <use style="fill:#00bfbf;stroke:#00bfbf;" x="69.87" xlink:href="#m194d4ae05c" y="77.610938"/>
     </g>
    </g>
    <g id="line2d_118">
     <path d="M 59.87 82.610938 
L 79.87 82.610938 
" style="fill:none;stroke:#00bfbf;stroke-linecap:square;stroke-width:1.5;"/>
    </g>
    <g id="line2d_119"/>
    <g id="text_23">
     <!-- Julia -->
     <defs>
      <path d="M 9.8125 72.90625 
L 19.671875 72.90625 
L 19.671875 5.078125 
Q 19.671875 -8.109375 14.671875 -14.0625 
Q 9.671875 -20.015625 -1.421875 -20.015625 
L -5.171875 -20.015625 
L -5.171875 -11.71875 
L -2.09375 -11.71875 
Q 4.4375 -11.71875 7.125 -8.046875 
Q 9.8125 -4.390625 9.8125 5.078125 
z
" id="DejaVuSans-74"/>
      <path d="M 9.421875 75.984375 
L 18.40625 75.984375 
L 18.40625 0 
L 9.421875 0 
z
" id="DejaVuSans-108"/>
     </defs>
     <g transform="translate(87.87 86.110938)scale(0.1 -0.1)">
      <use xlink:href="#DejaVuSans-74"/>
      <use x="29.492188" xlink:href="#DejaVuSans-117"/>
      <use x="92.871094" xlink:href="#DejaVuSans-108"/>
      <use x="120.654297" xlink:href="#DejaVuSans-105"/>
      <use x="148.4375" xlink:href="#DejaVuSans-97"/>
     </g>
    </g>
    <g id="LineCollection_14">
     <path d="M 69.87 102.289063 
L 69.87 92.289063 
" style="fill:none;stroke:#82005b;stroke-width:1.5;"/>
    </g>
    <g id="line2d_120">
     <g>
      <use style="fill:#82005b;stroke:#82005b;" x="69.87" xlink:href="#m398dcd997c" y="102.289063"/>
     </g>
    </g>
    <g id="line2d_121">
     <g>
      <use style="fill:#82005b;stroke:#82005b;" x="69.87" xlink:href="#m398dcd997c" y="92.289063"/>
     </g>
    </g>
    <g id="line2d_122">
     <path d="M 59.87 97.289063 
L 79.87 97.289063 
" style="fill:none;stroke:#82005b;stroke-linecap:square;stroke-width:1.5;"/>
    </g>
    <g id="line2d_123"/>
    <g id="text_24">
     <!-- Scala rec -->
     <defs>
      <path d="M 53.515625 70.515625 
L 53.515625 60.890625 
Q 47.90625 63.578125 42.921875 64.890625 
Q 37.9375 66.21875 33.296875 66.21875 
Q 25.25 66.21875 20.875 63.09375 
Q 16.5 59.96875 16.5 54.203125 
Q 16.5 49.359375 19.40625 46.890625 
Q 22.3125 44.4375 30.421875 42.921875 
L 36.375 41.703125 
Q 47.40625 39.59375 52.65625 34.296875 
Q 57.90625 29 57.90625 20.125 
Q 57.90625 9.515625 50.796875 4.046875 
Q 43.703125 -1.421875 29.984375 -1.421875 
Q 24.8125 -1.421875 18.96875 -0.25 
Q 13.140625 0.921875 6.890625 3.21875 
L 6.890625 13.375 
Q 12.890625 10.015625 18.65625 8.296875 
Q 24.421875 6.59375 29.984375 6.59375 
Q 38.421875 6.59375 43.015625 9.90625 
Q 47.609375 13.234375 47.609375 19.390625 
Q 47.609375 24.75 44.3125 27.78125 
Q 41.015625 30.8125 33.5 32.328125 
L 27.484375 33.5 
Q 16.453125 35.6875 11.515625 40.375 
Q 6.59375 45.0625 6.59375 53.421875 
Q 6.59375 63.09375 13.40625 68.65625 
Q 20.21875 74.21875 32.171875 74.21875 
Q 37.3125 74.21875 42.625 73.28125 
Q 47.953125 72.359375 53.515625 70.515625 
z
" id="DejaVuSans-83"/>
     </defs>
     <g transform="translate(87.87 100.789063)scale(0.1 -0.1)">
      <use xlink:href="#DejaVuSans-83"/>
      <use x="63.476562" xlink:href="#DejaVuSans-99"/>
      <use x="118.457031" xlink:href="#DejaVuSans-97"/>
      <use x="179.736328" xlink:href="#DejaVuSans-108"/>
      <use x="207.519531" xlink:href="#DejaVuSans-97"/>
      <use x="268.798828" xlink:href="#DejaVuSans-32"/>
      <use x="300.585938" xlink:href="#DejaVuSans-114"/>
      <use x="341.667969" xlink:href="#DejaVuSans-101"/>
      <use x="403.191406" xlink:href="#DejaVuSans-99"/>
     </g>
    </g>
    <g id="LineCollection_15">
     <path d="M 69.87 116.967188 
L 69.87 106.967188 
" style="fill:none;stroke:#d60052;stroke-width:1.5;"/>
    </g>
    <g id="line2d_124">
     <g>
      <use style="fill:#d60052;stroke:#d60052;" x="69.87" xlink:href="#m275d644f7e" y="116.967188"/>
     </g>
    </g>
    <g id="line2d_125">
     <g>
      <use style="fill:#d60052;stroke:#d60052;" x="69.87" xlink:href="#m275d644f7e" y="106.967188"/>
     </g>
    </g>
    <g id="line2d_126">
     <path d="M 59.87 111.967188 
L 79.87 111.967188 
" style="fill:none;stroke:#d60052;stroke-linecap:square;stroke-width:1.5;"/>
    </g>
    <g id="line2d_127"/>
    <g id="text_25">
     <!-- Scala closure -->
     <g transform="translate(87.87 115.467188)scale(0.1 -0.1)">
      <use xlink:href="#DejaVuSans-83"/>
      <use x="63.476562" xlink:href="#DejaVuSans-99"/>
      <use x="118.457031" xlink:href="#DejaVuSans-97"/>
      <use x="179.736328" xlink:href="#DejaVuSans-108"/>
      <use x="207.519531" xlink:href="#DejaVuSans-97"/>
      <use x="268.798828" xlink:href="#DejaVuSans-32"/>
      <use x="300.585938" xlink:href="#DejaVuSans-99"/>
      <use x="355.566406" xlink:href="#DejaVuSans-108"/>
      <use x="383.349609" xlink:href="#DejaVuSans-111"/>
      <use x="444.53125" xlink:href="#DejaVuSans-115"/>
      <use x="496.630859" xlink:href="#DejaVuSans-117"/>
      <use x="560.009766" xlink:href="#DejaVuSans-114"/>
      <use x="601.091797" xlink:href="#DejaVuSans-101"/>
     </g>
    </g>
    <g id="LineCollection_16">
     <path d="M 69.87 131.645313 
L 69.87 121.645313 
" style="fill:none;stroke:#d6711f;stroke-width:1.5;"/>
    </g>
    <g id="line2d_128">
     <g>
      <use style="fill:#d6711f;stroke:#d6711f;" x="69.87" xlink:href="#m78e8309f77" y="131.645313"/>
     </g>
    </g>
    <g id="line2d_129">
     <g>
      <use style="fill:#d6711f;stroke:#d6711f;" x="69.87" xlink:href="#m78e8309f77" y="121.645313"/>
     </g>
    </g>
    <g id="line2d_130">
     <path d="M 59.87 126.645313 
L 79.87 126.645313 
" style="fill:none;stroke:#d6711f;stroke-linecap:square;stroke-width:1.5;"/>
    </g>
    <g id="line2d_131"/>
    <g id="text_26">
     <!-- Java -->
     <defs>
      <path d="M 2.984375 54.6875 
L 12.5 54.6875 
L 29.59375 8.796875 
L 46.6875 54.6875 
L 56.203125 54.6875 
L 35.6875 0 
L 23.484375 0 
z
" id="DejaVuSans-118"/>
     </defs>
     <g transform="translate(87.87 130.145313)scale(0.1 -0.1)">
      <use xlink:href="#DejaVuSans-74"/>
      <use x="29.492188" xlink:href="#DejaVuSans-97"/>
      <use x="90.771484" xlink:href="#DejaVuSans-118"/>
      <use x="149.951172" xlink:href="#DejaVuSans-97"/>
     </g>
    </g>
   </g>
  </g>
 </g>
 <defs>
  <clipPath id="p6cb73b30a2">
   <rect height="379.24" width="514.33" x="50.87" y="10.8"/>
  </clipPath>
 </defs>
</svg>
